<svg xmlns="http://www.w3.org/2000/svg" xmlns:xlink="http://www.w3.org/1999/xlink" width="1080" zoomAndPan="magnify" viewBox="0 0 810 809.999993" height="1080" preserveAspectRatio="xMidYMid meet" version="1.0"><defs><clipPath id="48ff9200ac"><path d="M 243 248.332031 L 567 248.332031 L 567 561.832031 L 243 561.832031 Z M 243 248.332031 " clip-rule="nonzero"/></clipPath></defs><g clip-path="url(#48ff9200ac)"><path fill="#ffffff" d="M 411.03125 264.363281 C 418.335938 270.179688 423.695312 276.910156 427.523438 285.261719 C 434.160156 269.671875 443.359375 256.621094 458.660156 248.4375 C 459.683594 250.199219 459.765625 251.929688 459.816406 253.605469 C 460.03125 260.679688 459.757812 267.691406 457.6875 274.558594 C 454.058594 286.574219 450.085938 298.441406 443.289062 309.113281 C 440.1875 313.976562 436.625 318.515625 432.328125 322.378906 C 430.488281 324.03125 429.207031 326.039062 428.484375 328.40625 C 426.695312 333.757812 426.097656 339.3125 424.871094 345.792969 C 434.359375 337.6875 443.558594 330.761719 455.65625 328.542969 C 456.726562 333.527344 456.050781 338.15625 454.851562 342.738281 C 449.34375 363.734375 436.261719 378.730469 417.777344 389.375 C 415.234375 390.839844 413.707031 392.625 412.777344 395.417969 C 410.347656 402.75 407.617188 409.988281 404.78125 417.90625 C 408.984375 415.238281 412.546875 412.738281 416.324219 410.632812 C 420.835938 408.117188 425.511719 405.835938 430.65625 404.84375 C 433.234375 404.351562 435.613281 403.375 437.789062 401.90625 C 442.457031 398.777344 447.027344 395.527344 451.242188 391.78125 C 452.6875 390.496094 453.238281 389.179688 453.113281 387.277344 C 452.242188 374.433594 458.34375 364.503906 466.894531 355.890625 C 472.558594 350.175781 478.597656 344.742188 486.714844 342.476562 C 489.082031 341.8125 491.382812 341.117188 493.816406 341.703125 C 495.082031 343.910156 493.515625 345.734375 493.292969 347.644531 C 491.425781 363.5625 482.597656 375.257812 470.261719 384.671875 C 467.039062 387.136719 463.226562 388.730469 459.34375 389.753906 C 455.828125 390.679688 453.207031 392.679688 450.648438 394.992188 C 449.707031 395.839844 448.730469 396.65625 447.226562 397.953125 C 451.773438 397.730469 455.261719 395.902344 458.972656 395.101562 C 463.472656 394.132812 467.933594 393.003906 472.519531 392.570312 C 474.179688 392.398438 475.773438 391.972656 477.300781 391.300781 C 478.828125 390.625 480.214844 389.734375 481.460938 388.625 C 489.929688 381.359375 499.9375 379.003906 510.71875 378.914062 C 512.585938 378.898438 513.855469 378.289062 515.199219 376.914062 C 524.195312 367.78125 534.859375 361.511719 547.523438 358.882812 C 553.914062 357.546875 560.316406 357.355469 567.015625 359.039062 C 565.382812 374.539062 553.960938 382.015625 542.566406 389.886719 C 544.457031 392.492188 547.351562 394.0625 549.15625 396.929688 C 547.066406 401.363281 542.824219 403.296875 538.652344 405.097656 C 527.761719 409.820312 516.492188 410.21875 504.816406 408.429688 C 495.257812 406.972656 487.621094 402.144531 480.316406 396.496094 C 477.929688 394.652344 475.753906 394.222656 472.847656 394.496094 C 464.058594 395.378906 455.691406 397.933594 447.316406 400.496094 C 445.027344 401.191406 442.714844 402.046875 440.316406 404.121094 C 445.945312 404.613281 450.511719 406.957031 455.871094 406.746094 C 458.71875 406.617188 461.558594 406.710938 464.390625 407.03125 C 467.222656 407.347656 470.011719 407.882812 472.761719 408.636719 C 475.507812 409.394531 478.179688 410.355469 480.777344 411.53125 C 483.375 412.703125 485.863281 414.074219 488.246094 415.636719 C 498.199219 422.136719 505.492188 431.160156 509.828125 442.378906 C 510.023438 442.921875 510.167969 443.476562 510.265625 444.042969 C 510.292969 444.332031 510.292969 444.617188 510.265625 444.902344 C 509.84375 445.902344 508.960938 446.414062 508.019531 446.765625 C 499.515625 449.941406 491.070312 449.652344 482.820312 445.972656 C 472.824219 441.507812 464.140625 435.257812 457.425781 426.484375 C 453.988281 422.003906 451.046875 417.207031 449.628906 411.699219 C 448.960938 409.074219 447.527344 407.945312 445 407.402344 C 436.960938 405.664062 429.335938 406.519531 421.964844 410.265625 C 417.339844 412.597656 412.820312 415.027344 408.703125 418.238281 C 404.652344 421.363281 401.53125 425.234375 399.347656 429.859375 C 392.347656 444.59375 383.246094 458.042969 374.199219 471.519531 C 369.421875 478.644531 363.558594 484.964844 357.871094 491.496094 C 358.976562 491.882812 359.714844 491.359375 360.496094 491.050781 C 369.3125 487.546875 378.050781 483.855469 387.269531 481.421875 C 391.074219 480.421875 394.140625 477.882812 397.019531 475.242188 C 398.046875 474.292969 398.261719 473.003906 398.503906 471.730469 C 400.628906 460.539062 406.640625 451.960938 415.996094 445.605469 C 422.941406 440.886719 430.15625 436.792969 438.488281 434.996094 C 442.71875 434.085938 446.941406 433.402344 451.488281 433.785156 C 451.945312 436.675781 450.613281 439.011719 449.445312 441.167969 C 440.359375 457.929688 426.5625 469.007812 408.582031 475.003906 C 406.109375 475.828125 403.582031 476.445312 400.972656 476.417969 C 399.023438 476.398438 397.695312 477.195312 396.226562 478.839844 C 399.769531 479.546875 403.011719 478.78125 406.128906 478.410156 C 414.460938 477.410156 422.761719 477.058594 431.097656 477.839844 C 432.105469 477.945312 433.097656 477.878906 434.078125 477.628906 C 435.058594 477.382812 435.96875 476.976562 436.804688 476.40625 C 446.75 469.882812 457.753906 469.582031 468.847656 471.609375 C 479.796875 473.609375 489.535156 478.605469 497.988281 485.890625 C 501.695312 489.089844 504.765625 492.890625 507.433594 496.683594 C 507.152344 498.25 506.097656 498.5 505.230469 498.941406 C 499.871094 501.605469 494.207031 503.101562 488.234375 503.429688 C 480.042969 503.894531 471.808594 503.660156 463.859375 501.175781 C 452.84375 497.730469 442.894531 492.535156 435.773438 483.050781 C 434.367188 481.179688 432.773438 480.261719 430.398438 480.054688 C 418.113281 478.972656 406.03125 480.238281 393.957031 482.453125 C 380.226562 484.976562 367.449219 490.203125 355.179688 496.53125 C 349.285156 499.570312 343.402344 503.050781 337.820312 508.195312 C 344.203125 508.097656 349.792969 509.664062 355.414062 506.390625 C 366.816406 499.75 379.410156 499.058594 391.863281 501.832031 C 404.390625 504.613281 415.488281 510.71875 424.230469 520.691406 C 423.167969 523.542969 420.832031 524.957031 418.367188 526.078125 C 410.269531 529.820312 401.796875 532.273438 392.949219 533.4375 C 393.085938 535.300781 394.761719 536.257812 395.492188 537.984375 C 394.957031 539.984375 393.492188 541.523438 391.683594 542.746094 C 379.96875 550.597656 367.125 552.792969 353.355469 550.503906 C 344.601562 549.046875 337.191406 544.699219 329.957031 539.933594 C 327.921875 538.601562 325.699219 537.503906 324.101562 535.570312 C 322.5 533.632812 320.542969 533.570312 318.230469 534.089844 C 310.96875 535.695312 304.417969 538.855469 298.113281 542.691406 C 293.390625 545.558594 289.492188 549.375 285.574219 553.175781 C 282.621094 556.042969 279.832031 559.078125 276.261719 561.535156 C 276.015625 559.761719 277.125 558.957031 277.984375 558.074219 C 281.296875 554.675781 284.613281 551.273438 288.007812 547.957031 C 290.117188 545.898438 291.734375 543.59375 292.546875 540.746094 C 293.011719 539.109375 293.046875 537.5 291.546875 536.410156 C 286.460938 532.722656 283.933594 527.097656 280.707031 522.050781 C 272.570312 509.34375 271.917969 495.894531 277.425781 482.015625 C 278.871094 478.386719 281.425781 475.390625 283.15625 472.125 C 285.15625 471.5625 285.933594 473.085938 287.015625 473.910156 C 297.535156 481.972656 302.65625 492.75 303.144531 505.90625 C 303.332031 510.957031 303.246094 515.9375 302.144531 520.902344 C 301.277344 524.875 299.761719 528.578125 297.59375 532.015625 C 296.078125 534.414062 294.59375 536.867188 295.277344 540.4375 C 297.941406 538.882812 299.609375 536.773438 301.382812 534.835938 C 302.550781 533.5625 303.550781 532.085938 304.894531 531.039062 C 311.917969 525.566406 313.496094 517.617188 314.367188 509.570312 C 315.082031 503.007812 315.074219 496.355469 315.160156 489.742188 C 315.320312 477.035156 312.914062 464.863281 307.238281 453.390625 C 306.023438 450.9375 304.765625 448.96875 301.667969 448.917969 C 300.707031 448.917969 299.699219 448.429688 298.820312 447.964844 C 297.21875 447.113281 295.753906 447.15625 293.921875 447.453125 C 286.859375 448.589844 279.730469 448.121094 273.015625 445.785156 C 262.445312 442.105469 252.703125 436.929688 245.835938 427.578125 C 244.722656 426.0625 243.648438 424.578125 243.003906 422.390625 C 252.550781 417.441406 262.710938 417.078125 273.503906 418.109375 C 272.835938 414.839844 272.289062 411.683594 271.503906 408.589844 C 269.902344 402.296875 269.777344 396.097656 272.078125 389.929688 C 273.167969 387.003906 273.519531 386.234375 276.351562 383.113281 C 277.714844 382.84375 278.886719 383.539062 280.019531 384.113281 C 290.796875 389.492188 300.089844 396.746094 306.105469 407.296875 C 309.84375 413.84375 311.398438 421.292969 310.914062 428.925781 C 310.578125 434.382812 309.789062 439.820312 307.765625 444.957031 C 307.070312 446.722656 307.304688 448.121094 308.046875 449.847656 C 311.847656 458.71875 315.316406 467.6875 316.476562 477.398438 C 316.972656 481.53125 316.886719 485.695312 317.273438 490.300781 C 319.65625 488.183594 321.113281 486.132812 321.328125 483.25 C 321.753906 477.296875 323.21875 471.609375 325.714844 466.191406 C 326.757812 464.082031 327.15625 461.863281 326.917969 459.523438 C 325.355469 444.8125 329.824219 431.734375 337.835938 419.613281 C 341.347656 414.300781 345.078125 409.226562 350.242188 405.351562 C 351.628906 404.21875 353.195312 403.441406 354.9375 403.019531 C 357.269531 414.734375 356.382812 426.367188 354.738281 438.34375 C 360.25 437.121094 365.453125 436.292969 370.699219 436.96875 C 371.796875 438.410156 371.210938 439.839844 370.863281 441.191406 C 367.367188 454.792969 360.902344 466.292969 349.457031 475.132812 C 341.621094 481.191406 333.292969 485.402344 323.738281 487.53125 C 319.742188 488.421875 318.8125 492.046875 317.628906 495.15625 C 316.5 498.117188 316.316406 501.347656 316.5 504.53125 C 316.789062 509.644531 315.773438 514.554688 314.441406 519.4375 C 314.191406 520.355469 313.488281 521.242188 314.015625 522.332031 C 315.21875 522.691406 315.863281 521.738281 316.542969 521.117188 C 322.714844 515.453125 329.613281 510.765625 336.402344 505.90625 C 340.496094 502.972656 345.007812 500.574219 348.8125 497.371094 C 353.066406 493.765625 356.6875 489.371094 360.453125 485.230469 C 371.039062 473.542969 378.984375 459.976562 387.5 446.824219 C 389.605469 443.570312 391.332031 440.066406 393.144531 436.632812 C 395.96875 431.300781 396.144531 427.75 394.003906 421.558594 C 382.269531 420.695312 375.007812 413.339844 369.007812 404.050781 C 364.515625 397.078125 361.164062 389.640625 359.597656 381.496094 C 358.53125 375.800781 358.277344 370.070312 358.839844 364.304688 C 359.113281 361.160156 360.023438 358.210938 361.5625 355.457031 C 366.769531 356.367188 371.449219 358.460938 375.601562 361.730469 C 388.558594 371.9375 396.933594 384.960938 397.976562 401.917969 C 398.214844 405.835938 397.554688 409.726562 396.660156 413.464844 C 395.59375 417.910156 396.882812 421.867188 397.847656 426.765625 C 400.253906 423 401.355469 419.433594 402.820312 416.101562 C 406.210938 408.308594 408.871094 400.246094 411.535156 392.179688 C 411.9375 390.96875 411.773438 389.980469 411.496094 388.847656 C 408.324219 376.105469 411.617188 364.617188 418.671875 354.027344 C 420.933594 350.644531 422.441406 346.949219 423.191406 342.945312 C 423.648438 340.546875 423.722656 338.050781 424.382812 335.71875 C 425.382812 332.253906 424.355469 329.835938 421.261719 328.207031 C 412.492188 323.578125 408.992188 315.210938 406.003906 306.546875 C 401.855469 294.5 403.171875 282.734375 408.054688 271.191406 C 408.941406 269.101562 409.433594 266.828125 411.03125 264.363281 Z M 276.773438 385.175781 C 273.542969 389.976562 272.21875 395.125 272.636719 400.507812 C 273.183594 407.546875 274.671875 414.40625 277.777344 420.886719 C 281.039062 427.699219 284.925781 434.035156 290.390625 439.300781 C 293.585938 442.382812 297.117188 444.96875 302.28125 446.261719 C 299.429688 437.796875 297.617188 429.695312 293.460938 422.410156 C 291.964844 419.785156 290.578125 417.097656 289.183594 414.410156 C 288.652344 413.386719 288.386719 412.332031 289.945312 411.285156 C 292.699219 417.054688 296.238281 422.101562 298.613281 427.785156 C 300.945312 433.40625 302.179688 439.449219 304.96875 445.285156 C 315.507812 419.609375 303.550781 396.425781 276.773438 385.175781 Z M 325.667969 532.3125 C 325.410156 533.863281 326.4375 534.550781 327.226562 535.128906 C 330.011719 537.160156 332.816406 539.179688 335.742188 541 C 340.761719 544.125 346.050781 546.628906 351.890625 547.96875 C 361.726562 550.222656 371.347656 549.445312 380.753906 546.109375 C 385.183594 544.535156 389.398438 542.394531 392.453125 538.632812 C 377.886719 518.4375 341.515625 514.378906 326.132812 529.984375 C 330.574219 531.574219 335.085938 532.210938 339.542969 533.097656 C 347.460938 534.667969 355.558594 534.714844 363.507812 535.976562 C 364.367188 536.113281 365.53125 535.828125 366.191406 537.75 C 352.460938 537.59375 338.953125 535.78125 325.667969 532.3125 Z M 481.019531 393.695312 C 500.316406 414 535.339844 409.023438 546.003906 397.5 C 531.789062 378.984375 497.09375 375.066406 482.015625 391.625 C 488.71875 393.957031 495.925781 392.707031 502.605469 394.789062 C 502.273438 395.539062 501.851562 395.640625 501.441406 395.636719 C 494.84375 395.59375 488.347656 394.570312 481.019531 393.695312 Z M 393.453125 416.398438 C 402.9375 390.542969 379.242188 359.785156 362.855469 358.574219 C 361.238281 362.039062 360.617188 368.007812 360.945312 373.742188 C 361.570312 384.84375 365.808594 394.671875 371.691406 403.824219 C 375.199219 409.292969 379.554688 414.125 385.574219 417.054688 C 387.148438 417.824219 388.761719 418.859375 390.933594 418.167969 C 389.851562 415.089844 388.382812 412.210938 386.523438 409.527344 C 382 403.195312 378.308594 396.378906 375.023438 389.355469 C 372.832031 384.691406 370.761719 379.925781 369.734375 374.8125 C 369.507812 373.671875 369.277344 372.417969 371.398438 372.445312 C 375.121094 388.78125 384.789062 402.210938 393.453125 416.398438 Z M 472.484375 489.464844 C 472.441406 489.765625 472.402344 490.0625 472.367188 490.359375 C 469.542969 490.59375 466.773438 490.085938 464.035156 489.453125 C 455.875 487.59375 447.9375 485.101562 440.441406 481.320312 C 439.742188 480.964844 438.90625 480.414062 438.214844 481.417969 C 446.277344 498.425781 488.683594 508.214844 503.894531 496.554688 C 503.726562 496.160156 503.519531 495.785156 503.277344 495.433594 C 489.320312 478.882812 471.894531 470.707031 450.011719 473.710938 C 446.011719 474.261719 441.785156 474.808594 438.347656 478.320312 C 444.117188 480.625 449.300781 483.425781 454.976562 485.003906 C 460.789062 486.609375 466.652344 487.988281 472.484375 489.464844 Z M 421.394531 521.300781 C 402.105469 500.09375 369.835938 498.015625 353.152344 510.421875 C 368.816406 516.550781 384.859375 518.570312 401.675781 517.054688 C 400.894531 518.910156 399.675781 518.722656 398.609375 518.875 C 385.382812 520.59375 372.519531 518.703125 359.847656 514.960938 C 358.386719 514.527344 357 513.769531 355.070312 514.269531 C 357.03125 516.171875 358.472656 518.480469 361.03125 518.734375 C 370.183594 519.644531 378.234375 523.277344 385.558594 528.539062 C 389.035156 531.039062 392.625 531.324219 396.554688 530.78125 C 403.160156 529.867188 409.449219 527.851562 415.550781 525.261719 C 417.628906 524.382812 419.785156 523.480469 421.394531 521.300781 Z M 453.753906 331.828125 C 453.1875 331.664062 452.898438 331.492188 452.660156 331.53125 C 451.953125 331.664062 451.265625 331.847656 450.585938 332.085938 C 437.867188 336.640625 427.59375 344.402344 420.09375 355.664062 C 415.09375 363.144531 412.292969 371.324219 412.628906 380.429688 C 412.660156 381.375 412.570312 382.34375 413.433594 383.160156 C 420.574219 370.066406 432.179688 354.261719 436.332031 351.949219 C 436.210938 353.71875 434.851562 354.699219 433.875 355.894531 C 427.964844 363.152344 422.507812 370.730469 418.035156 378.964844 C 416.625 381.5625 415.183594 384.210938 415.316406 387.382812 C 417.109375 387.878906 418.222656 386.832031 419.429688 386.152344 C 422.574219 384.375 425.328125 382.082031 428.09375 379.792969 C 440.445312 369.621094 449.035156 357.042969 453 341.433594 C 453.863281 338.277344 454.113281 335.078125 453.753906 331.828125 Z M 493.144531 438.863281 C 492.066406 439.949219 491.347656 439.558594 490.761719 439.25 C 482.382812 434.8125 473.964844 430.429688 466.84375 424.03125 C 462.667969 420.277344 458.714844 416.277344 454.21875 412.886719 C 453.742188 412.527344 453.363281 411.582031 452.492188 412.484375 C 452.492188 414.414062 453.46875 416.011719 454.316406 417.667969 C 456.648438 422.214844 459.839844 426.125 463.351562 429.734375 C 471.015625 437.597656 479.914062 443.527344 490.679688 446.3125 C 496.59375 447.84375 502.238281 446.734375 508.144531 444.691406 C 503.144531 431.804688 495.105469 421.855469 483.378906 415.433594 C 473.191406 409.855469 459.382812 407.640625 454.050781 410.027344 C 460.898438 414.820312 466.105469 421.050781 472.535156 425.867188 C 478.964844 430.683594 486.167969 434.554688 493.144531 438.863281 Z M 324.910156 484.519531 C 347 481.296875 368.855469 456.128906 368.175781 439.039062 C 346.046875 436.675781 322.445312 464.578125 324.238281 481.320312 C 328.382812 476.90625 331.382812 471.78125 335.695312 467.765625 C 340.007812 463.75 343.53125 458.921875 349.164062 456.484375 C 340.894531 465.460938 331.53125 473.429688 324.910156 484.527344 Z M 288.34375 495.425781 C 288.675781 499.617188 289.285156 503.6875 289.921875 507.757812 C 290.589844 512.019531 291.277344 516.277344 292.046875 520.523438 C 292.757812 524.472656 292.277344 528.675781 294.238281 532.640625 C 307.191406 515.757812 301.695312 484.195312 284.4375 474.929688 C 284.105469 475.15625 283.640625 475.316406 283.4375 475.648438 C 274.914062 488.898438 273.582031 502.703125 280.699219 516.9375 C 282.9375 521.421875 285.792969 525.601562 288.425781 529.882812 C 288.910156 530.667969 289.425781 531.625 291 531.613281 C 291.050781 527.28125 290.035156 523.109375 289.496094 518.914062 C 288.675781 512.503906 287.710938 506.109375 286.949219 499.6875 C 286.777344 498.273438 286.21875 496.5625 288.34375 495.425781 Z M 416.164062 294.648438 C 419.285156 298.378906 417.832031 302.203125 418.890625 305.414062 C 420 308.800781 420.152344 312.453125 421.835938 315.726562 C 423.425781 318.828125 424.078125 322.390625 426.417969 325.339844 C 434.875 308.203125 427 278.269531 411.773438 268.378906 C 411.441406 268.792969 410.914062 269.160156 410.738281 269.648438 C 409.914062 271.949219 409.203125 274.285156 408.40625 276.597656 C 403.300781 291.570312 406.03125 305.464844 414.058594 318.691406 C 416.222656 322.257812 419.582031 324.226562 423.78125 326.800781 C 421.546875 321.007812 419.34375 316.210938 417.875 311.199219 C 416.40625 306.1875 415.820312 300.933594 416.164062 294.648438 Z M 448.738281 266.808594 C 449.789062 267.808594 449.574219 268.472656 449.355469 269.171875 C 446.125 279.222656 441.335938 288.53125 435.867188 297.519531 C 433.632812 301.1875 431.332031 304.679688 432.230469 309.457031 C 432.664062 311.753906 431.777344 314.289062 431.515625 316.71875 C 431.417969 317.640625 430.675781 318.632812 431.746094 319.460938 C 443.359375 312.058594 462.355469 267.523438 456.96875 252.332031 C 455.382812 252.332031 454.402344 253.515625 453.273438 254.328125 C 443.503906 261.441406 436.695312 270.816406 431.457031 281.65625 C 428.519531 287.734375 429.6875 293.160156 431.769531 299.351562 C 436.226562 294.472656 438.074219 288.628906 441.132812 283.515625 C 444.265625 278.289062 445.285156 272.070312 448.738281 266.808594 Z M 448.59375 436.292969 C 444.929688 435.625 441.46875 436.660156 438.078125 437.507812 C 428.28125 439.972656 419.933594 445.121094 412.292969 451.636719 C 406.847656 456.285156 403.542969 462.167969 401.40625 468.828125 C 401.148438 469.640625 400.464844 470.679688 401.804688 471.660156 C 406.5625 466.660156 412.261719 462.722656 417.652344 458.441406 C 422.9375 454.25 428.027344 449.699219 434.558594 446.148438 C 434.445312 448.234375 433.441406 448.792969 432.558594 449.445312 C 429.679688 451.585938 426.789062 453.714844 423.929688 455.886719 C 418.4375 460.0625 413.476562 464.882812 407.851562 468.914062 C 406.214844 470.09375 404.421875 471.40625 403.765625 473.699219 C 422.328125 470.738281 443.515625 452.957031 448.59375 436.296875 Z M 475.507812 361.972656 C 470.988281 370.957031 463.769531 378.117188 458.6875 387.117188 C 472.929688 385.050781 490.90625 364.589844 491.128906 344.105469 C 488.152344 344.730469 485.261719 345.066406 482.492188 346.53125 C 474.1875 350.925781 467.597656 357.195312 462.113281 364.679688 C 459.300781 368.519531 457.136719 372.769531 456.074219 377.457031 C 455.441406 380.277344 454.722656 383.164062 456.039062 386.4375 C 459.402344 381.984375 462.515625 377.898438 465.585938 373.773438 C 468.660156 369.644531 471.394531 365.261719 475.507812 361.980469 Z M 531.007812 383.214844 C 533.210938 384.386719 534.980469 385.070312 536.449219 386.160156 C 538.730469 387.851562 540.84375 387.589844 543.273438 386.53125 C 547.742188 384.589844 551.054688 381.15625 554.640625 378.082031 C 558.527344 374.75 561.265625 370.554688 563.332031 365.902344 C 564.023438 364.332031 564.574219 362.757812 564.167969 361.082031 C 548.050781 357.035156 523.527344 368.679688 516.84375 379.113281 C 519.644531 379.511719 522.359375 380.042969 524.765625 381.261719 C 527.285156 382.535156 529.097656 381.738281 531.015625 380.199219 C 536.746094 375.609375 543.015625 371.808594 549.195312 367.871094 C 550.246094 367.203125 551.238281 366.300781 553.546875 366.738281 C 549.363281 369.554688 545.671875 371.914062 542.113281 374.46875 C 538.449219 377.117188 534.363281 379.289062 531.007812 383.214844 Z M 340.640625 446.347656 C 343.914062 444.457031 346.433594 442.792969 349.136719 441.496094 C 351.640625 440.296875 352.652344 438.378906 353.054688 435.804688 C 354.476562 426.800781 354.726562 417.765625 353.804688 408.699219 C 353.71875 407.859375 353.746094 406.917969 352.652344 406.617188 C 337.378906 416.46875 324.917969 444.871094 329.382812 459.277344 C 332.066406 456.15625 334.691406 453.140625 337.257812 450.078125 C 337.609375 449.609375 337.792969 449.082031 337.8125 448.496094 C 337.980469 444.71875 339.285156 441.164062 340.078125 437.539062 C 341.199219 432.609375 342.808594 427.84375 344.90625 423.242188 C 345.4375 422.046875 345.835938 420.648438 348.359375 420.382812 C 344.203125 428.71875 342.332031 437.0625 340.640625 446.347656 Z M 283.058594 434.773438 C 280.492188 431.308594 278.320312 427.617188 276.539062 423.691406 C 275.511719 421.488281 273.695312 420.5625 271.472656 420.179688 C 263.804688 418.847656 256.308594 419.644531 248.917969 421.867188 C 247.855469 422.203125 246.617188 422.34375 246.09375 423.597656 C 254.378906 438.695312 279.417969 448.386719 292.933594 445.125 C 290.359375 442.703125 287.878906 440.386719 285.417969 438.039062 C 284.855469 437.503906 284.234375 437.433594 283.492188 437.371094 C 277.359375 436.75 272.039062 433.847656 266.636719 431.207031 C 265.9375 430.875 264.886719 430.589844 265.730469 428.855469 C 271.359375 430.210938 276.101562 434.644531 283.058594 434.773438 Z M 354.785156 518.171875 C 350.140625 511.242188 350.140625 511.242188 342.992188 510.542969 C 342.707031 510.515625 342.421875 510.445312 342.136719 510.441406 C 337.613281 510.347656 333.308594 510.945312 329.472656 513.703125 C 321.664062 519.320312 314.421875 525.628906 307.164062 531.90625 C 305.714844 533.160156 304.570312 534.769531 302.933594 536.605469 C 303.933594 536.445312 304.351562 536.453125 304.710938 536.300781 C 309.621094 534.242188 314.542969 532.238281 319.851562 531.40625 C 321.316406 531.128906 322.554688 530.4375 323.5625 529.335938 C 329.457031 523.378906 336.773438 520.386719 344.871094 518.890625 C 347.976562 518.320312 351.117188 518.46875 354.785156 518.171875 Z M 354.785156 518.171875 " fill-opacity="1" fill-rule="nonzero"/></g></svg>