<svg xmlns="http://www.w3.org/2000/svg" xmlns:xlink="http://www.w3.org/1999/xlink" width="1080" zoomAndPan="magnify" viewBox="0 0 810 809.999993" height="1080" preserveAspectRatio="xMidYMid meet" version="1.0"><defs><clipPath id="b004875a08"><path d="M 285.355469 321.683594 L 454 321.683594 L 454 645.683594 L 285.355469 645.683594 Z M 285.355469 321.683594 " clip-rule="nonzero"/></clipPath></defs><g clip-path="url(#b004875a08)"><path fill="#000000" d="M 343.421875 515.609375 C 343.617188 514.972656 343.671875 514.238281 344.027344 513.71875 C 347.300781 508.929688 351.191406 504.699219 355.6875 501.039062 C 359.730469 497.714844 364.4375 495.261719 369.289062 493.210938 C 370.058594 492.855469 370.851562 492.5625 371.664062 492.324219 C 377.335938 490.882812 382.34375 488.0625 386.992188 484.636719 C 388.417969 483.585938 389.496094 484.964844 390.765625 484.542969 C 391.160156 484.410156 391.410156 485.160156 391.398438 485.671875 C 391.371094 486.859375 391.253906 487.980469 390.644531 489.09375 C 386.746094 496.210938 383.351562 503.617188 378.578125 510.238281 C 377.886719 511.199219 377.191406 512.203125 376.308594 512.96875 C 373.238281 515.621094 370.972656 519.101562 367.601562 521.441406 C 367.023438 521.84375 367.1875 522.722656 367.890625 523.0625 C 368.949219 523.585938 370.019531 524.390625 371.125 524.449219 C 374.675781 524.640625 378.066406 525.910156 381.675781 525.71875 C 384.714844 525.558594 387.769531 525.800781 390.816406 525.816406 C 393.523438 525.832031 396.222656 525.816406 398.820312 524.8125 C 399.167969 524.679688 399.871094 524.9375 400.128906 525.246094 C 400.40625 525.675781 400.480469 526.136719 400.355469 526.628906 C 399.875 528.292969 399.03125 529.738281 397.824219 530.976562 C 393.0625 536.101562 387.132812 539.359375 380.4375 540.90625 C 372.972656 542.628906 365.390625 542.527344 357.769531 541.378906 C 353.949219 540.800781 350.148438 539.984375 346.234375 539.890625 C 341.875 539.785156 337.882812 540.820312 333.96875 542.589844 C 333.414062 542.8125 332.941406 543.15625 332.554688 543.613281 C 332.171875 544.074219 331.914062 544.597656 331.789062 545.183594 C 331.566406 546.003906 331.429688 546.839844 331.378906 547.691406 C 331.226562 553.128906 330.246094 558.460938 329.464844 563.820312 C 328.636719 569.511719 327.847656 575.203125 326.390625 580.777344 C 326.296875 581.105469 326.257812 581.441406 326.277344 581.78125 C 326.3125 582.273438 326.261719 582.925781 326.546875 583.195312 C 326.945312 583.578125 327.40625 583.082031 327.71875 582.753906 C 328.898438 581.539062 330.070312 580.324219 331.222656 579.0625 C 333.53125 576.542969 336.164062 574.425781 339.113281 572.707031 C 342.472656 570.738281 345.921875 568.929688 349.300781 566.992188 C 353.636719 564.511719 358.484375 563.609375 363.261719 562.574219 C 365.117188 562.210938 366.964844 562.230469 368.8125 562.628906 C 372.84375 563.445312 376.871094 563.417969 380.890625 562.546875 C 382.214844 562.277344 383.566406 562.144531 384.914062 561.96875 C 385.863281 561.835938 386.480469 562.4375 386.46875 563.363281 C 386.457031 564.414062 386.285156 565.441406 385.605469 566.226562 C 382.613281 569.679688 379.996094 573.464844 376.445312 576.433594 C 373.167969 579.183594 369.519531 581.28125 365.496094 582.726562 C 360.710938 584.453125 355.785156 585.578125 350.722656 586.09375 C 346.046875 586.589844 341.292969 586.535156 336.667969 587.8125 C 332.828125 588.875 329.519531 590.820312 326.433594 593.207031 C 324.066406 595.046875 322.804688 597.707031 322.203125 600.542969 C 320.03125 610.796875 316.894531 620.808594 313.992188 630.871094 C 312.628906 635.582031 311.1875 640.296875 308.503906 644.492188 C 308.234375 644.902344 307.613281 645.554688 307.46875 645.476562 C 306.957031 645.207031 307.121094 644.636719 307.3125 644.152344 C 307.375 643.996094 307.472656 643.851562 307.519531 643.691406 C 309.828125 636.265625 312.203125 628.867188 314.417969 621.414062 C 316.570312 614.128906 318.507812 606.765625 320.019531 599.308594 C 320.761719 595.664062 321.390625 591.980469 322.445312 588.421875 C 323.164062 585.996094 322.609375 584.160156 321.199219 582.289062 C 318.929688 579.277344 316.097656 576.878906 313.089844 574.664062 C 311.863281 573.765625 310.535156 572.996094 309.316406 572.085938 C 306.875 570.261719 304.351562 568.539062 302.3125 566.21875 C 301.753906 565.585938 301.203125 564.828125 300.476562 564.472656 C 296.828125 562.660156 294.949219 559.078125 292.222656 556.347656 C 291.597656 555.757812 291.105469 555.074219 290.753906 554.292969 C 288.996094 549.9375 286.953125 545.6875 286.273438 540.882812 C 285.746094 537.171875 285.347656 533.511719 285.464844 529.78125 C 285.464844 529.179688 285.597656 528.609375 285.851562 528.066406 C 286.109375 527.523438 286.46875 527.0625 286.929688 526.683594 C 288.441406 525.363281 289.0625 525.257812 290.257812 526.703125 C 292.195312 529.0625 294.089844 531.449219 295.941406 533.863281 C 300.6875 540.054688 305.867188 545.855469 311.488281 551.265625 C 314.203125 553.886719 316.085938 557.140625 318.023438 560.300781 C 320.414062 564.203125 322.449219 568.316406 323.257812 572.910156 C 323.46875 574.230469 324.007812 575.398438 324.875 576.417969 C 325.636719 572.097656 326.492188 568.023438 327.03125 563.921875 C 327.570312 559.898438 328.109375 555.882812 328.363281 551.8125 C 328.703125 546.601562 329.730469 541.429688 330.617188 536.261719 C 330.839844 534.929688 330.976562 533.589844 331.027344 532.238281 C 331.136719 529.867188 331.269531 527.523438 331.886719 525.191406 C 332.664062 522.242188 332.460938 519.144531 332.964844 516.121094 C 333.53125 512.632812 333.503906 509.050781 334.21875 505.558594 C 334.53125 504.046875 334.113281 502.613281 333.699219 501.101562 C 332.449219 496.539062 329.710938 492.929688 326.886719 489.332031 C 326.050781 488.265625 325.15625 487.242188 324.261719 486.230469 C 320.367188 481.832031 318.195312 476.652344 316.570312 471.03125 C 314.957031 465.484375 314.136719 459.824219 314.109375 454.050781 C 314.082031 447.574219 315.230469 441.261719 317.09375 435.070312 C 317.238281 434.585938 317.492188 434.128906 318.074219 434.078125 C 318.246094 434.058594 318.410156 434.074219 318.574219 434.121094 C 318.742188 434.167969 318.890625 434.242188 319.027344 434.34375 C 319.164062 434.445312 319.273438 434.570312 319.363281 434.71875 C 319.453125 434.863281 319.511719 435.019531 319.539062 435.1875 C 321.074219 441.871094 324.777344 447.617188 327.417969 453.808594 C 329.675781 459.113281 332.386719 464.1875 334.691406 469.457031 C 336.542969 473.703125 337.039062 478.25 337.421875 482.804688 C 337.550781 484.3125 337.546875 485.835938 337.628906 488.140625 C 338.253906 486.523438 338.707031 485.691406 338.910156 484.800781 C 340.183594 479.355469 342.34375 474.183594 343.863281 468.832031 C 345.996094 461.308594 349.367188 454.292969 352.246094 447.089844 C 354.054688 442.558594 356.726562 438.371094 359.058594 434.054688 C 359.867188 432.554688 360.625 431.105469 360.730469 429.324219 C 360.859375 427.210938 360.648438 425.304688 359.246094 423.59375 C 357.964844 422.019531 356.910156 420.265625 355.609375 418.714844 C 352.457031 414.953125 349.28125 411.210938 346 407.5625 C 342.882812 404.128906 340.648438 400.191406 339.289062 395.757812 C 336.957031 388.238281 335.996094 380.550781 336.40625 372.691406 C 336.535156 369.992188 337.109375 367.332031 337.535156 364.660156 C 337.613281 364.1875 337.949219 363.742188 338.210938 363.3125 C 338.734375 362.464844 340.285156 362.324219 340.847656 363.132812 C 341.523438 364.09375 342.085938 365.136719 342.683594 366.15625 C 344.984375 370.105469 347.113281 374.164062 349.609375 377.984375 C 353.46875 383.820312 356.207031 390.144531 357.828125 396.957031 C 358.40625 399.414062 359.359375 401.792969 360.25 404.164062 C 360.910156 405.90625 361.519531 407.652344 362.082031 409.429688 C 363.320312 413.339844 364.1875 417.253906 364.011719 421.382812 C 363.996094 421.699219 364.191406 422.023438 364.28125 422.34375 C 364.710938 422.132812 365.148438 421.941406 365.5625 421.703125 C 365.695312 421.628906 365.773438 421.433594 365.867188 421.300781 C 369.253906 416.445312 372.636719 411.578125 376.019531 406.707031 C 376.503906 406.011719 376.847656 405.183594 377.445312 404.609375 C 379.714844 402.414062 380.304688 399.65625 380.15625 396.6875 C 379.933594 392.300781 380.617188 387.84375 379.21875 383.542969 C 379.582031 379.941406 378.027344 376.558594 378.023438 373.003906 C 378.023438 371.371094 377.527344 369.617188 379.382812 368.453125 C 379.78125 368.203125 379.835938 367.21875 379.851562 366.5625 C 380.078125 356.851562 383.019531 347.960938 387.90625 339.644531 C 388.035156 339.421875 387.878906 339.03125 387.855469 338.71875 C 387.585938 338.746094 387.234375 338.671875 387.082031 338.816406 C 386.460938 339.390625 385.921875 340.054688 385.320312 340.644531 C 385.128906 340.832031 384.765625 341.046875 384.574219 340.980469 C 384.203125 340.847656 384.164062 340.460938 384.390625 340.109375 C 386.582031 336.796875 389.679688 334.445312 392.859375 332.203125 C 393.152344 332 393.953125 332.449219 394.066406 332.824219 C 394.621094 334.671875 394.425781 336.566406 394.023438 338.355469 C 393.566406 340.378906 393.574219 342.386719 393.542969 344.417969 C 393.472656 349.164062 393.417969 353.917969 393.378906 358.667969 C 393.351562 362.417969 392.488281 366.046875 391.847656 369.703125 C 390.738281 376.039062 388.394531 382.054688 386.746094 388.253906 C 386.519531 389.242188 386.355469 390.238281 386.253906 391.246094 C 386.234375 391.386719 386.382812 391.667969 386.464844 391.675781 C 386.734375 391.675781 387.101562 391.699219 387.238281 391.542969 C 389.359375 389.113281 391.5625 386.761719 393.507812 384.199219 C 395.558594 381.492188 397.835938 378.996094 400.339844 376.703125 C 401.464844 375.671875 402.40625 374.4375 403.574219 373.464844 C 405.191406 372.09375 405.789062 370.558594 404.9375 368.535156 C 404.523438 367.53125 404.792969 366.570312 405.175781 365.585938 C 405.902344 363.742188 405.851562 361.539062 407.734375 360.25 C 407.605469 361.597656 407.433594 362.914062 406.835938 364.171875 C 406.582031 364.714844 406.535156 365.890625 406.785156 366.019531 C 407.699219 366.484375 407.570312 365.375 407.820312 364.957031 C 408.511719 363.804688 409.054688 362.558594 409.652344 361.347656 C 410.460938 359.691406 411.128906 357.921875 412.144531 356.398438 C 415.601562 351.199219 419.148438 346.074219 424.175781 342.160156 C 426.160156 340.613281 427.945312 338.796875 430.070312 337.421875 C 430.445312 337.179688 430.609375 336.628906 430.878906 336.222656 C 433.109375 336.070312 434.738281 334.601562 436.738281 333.765625 C 436.617188 333.621094 436.476562 333.507812 436.316406 333.417969 C 436.15625 333.328125 435.980469 333.269531 435.800781 333.246094 C 435.617188 333.21875 435.433594 333.222656 435.253906 333.265625 C 435.074219 333.304688 434.90625 333.375 434.75 333.476562 C 433.382812 334.261719 431.5625 334.496094 430.980469 336.332031 C 430.359375 336.464844 429.734375 336.582031 429.121094 336.734375 C 428.34375 336.925781 427.574219 337.144531 426.800781 337.351562 C 426.847656 336.574219 427.421875 336.21875 427.988281 335.84375 C 431.378906 333.597656 434.921875 331.621094 438.609375 329.90625 C 442.75 327.976562 446.808594 325.886719 450.410156 323.015625 C 450.964844 322.625 451.558594 322.308594 452.191406 322.0625 C 452.820312 321.792969 453.167969 322.292969 453.34375 322.71875 C 453.785156 323.800781 454.085938 324.808594 453.472656 326.066406 C 451.203125 330.625 448.628906 335.003906 445.75 339.203125 C 443.863281 342.011719 442.066406 344.90625 439.941406 347.53125 C 437.515625 350.542969 434.84375 353.378906 432.128906 356.144531 C 426.28125 362.128906 419.636719 367.03125 412.195312 370.847656 C 405.828125 374.125 400.539062 378.867188 396.15625 384.589844 C 394.09375 387.269531 391.816406 389.78125 389.691406 392.414062 C 388.316406 394.128906 387.058594 395.941406 385.761719 397.71875 C 385.714844 397.78125 385.796875 398.007812 385.886719 398.082031 C 385.976562 398.15625 386.21875 398.269531 386.296875 398.21875 C 388.410156 396.820312 390.734375 395.851562 393.003906 394.75 C 397.484375 392.574219 402.316406 391.78125 407.042969 390.574219 C 408.660156 390.160156 410.398438 390.144531 412.082031 390.140625 C 418.6875 390.140625 425.285156 390.21875 431.898438 390.265625 C 432.234375 390.265625 432.574219 390.285156 432.910156 390.308594 C 433.621094 390.367188 434.203125 391.046875 434.019531 391.65625 C 433.535156 393.277344 433.074219 394.894531 432.492188 396.496094 C 431.761719 398.488281 430.308594 399.917969 428.519531 400.96875 C 427.0625 401.824219 425.574219 402.683594 423.996094 403.261719 C 420.347656 404.613281 416.703125 406.015625 412.953125 406.957031 C 408.910156 407.972656 404.890625 408.847656 400.5 407.847656 C 395.09375 406.613281 389.496094 405.957031 383.886719 406.800781 C 383.054688 406.925781 382.195312 406.894531 381.363281 407.015625 C 380.347656 407.136719 379.402344 407.464844 378.53125 408.007812 C 377.65625 408.546875 376.941406 409.246094 376.378906 410.101562 C 371.414062 417.371094 366.21875 424.488281 362.460938 432.519531 C 361.171875 435.273438 359.539062 437.867188 358.089844 440.550781 C 357.953125 440.804688 357.886719 441.269531 358.023438 441.46875 C 358.519531 442.179688 358.871094 441.453125 359.148438 441.199219 C 363.695312 437.011719 368.914062 433.976562 374.800781 432.097656 C 379.667969 430.570312 384.652344 429.800781 389.75 429.789062 C 392.96875 429.777344 396.1875 429.789062 399.40625 429.769531 C 401.941406 429.769531 404.453125 429.804688 406.96875 429.160156 C 408.402344 428.792969 410 429.003906 411.519531 429.039062 C 412.597656 429.0625 413.183594 430.351562 412.566406 431.3125 C 410.914062 433.882812 409.132812 436.296875 406.398438 437.898438 C 403.320312 439.714844 400.386719 441.738281 397.378906 443.625 C 396.519531 444.167969 395.644531 444.796875 394.683594 445.035156 C 392.351562 445.613281 390.316406 446.832031 388.140625 447.753906 C 385.816406 448.734375 383.449219 449.492188 380.816406 449.515625 C 378.308594 449.539062 375.816406 450.222656 373.300781 450.40625 C 370.785156 450.589844 368.203125 450.328125 365.6875 450.589844 C 361.285156 451.042969 357.085938 452.273438 353.242188 454.574219 C 352.1875 455.207031 351.308594 455.980469 350.773438 457.058594 C 349.996094 458.5625 349.320312 460.113281 348.742188 461.703125 C 345.460938 471.300781 342.179688 480.910156 339.828125 490.789062 C 338.304688 497.199219 337.058594 503.679688 335.722656 510.132812 C 335.585938 510.96875 335.523438 511.8125 335.53125 512.660156 C 335.363281 518.09375 334.628906 523.453125 333.644531 528.785156 C 333.375 530.273438 333.410156 531.828125 333.375 533.351562 C 333.347656 534.71875 333.246094 536.050781 332.730469 537.34375 C 332.5625 537.761719 332.5 538.4375 333.046875 538.496094 C 333.34375 538.53125 333.871094 537.910156 334.027344 537.492188 C 334.546875 536.066406 334.996094 534.617188 335.375 533.144531 C 336.78125 527.53125 338.914062 522.210938 341.777344 517.179688 C 342.195312 516.449219 342.667969 515.734375 343.558594 515.476562 C 343.859375 516.285156 343.085938 517.328125 344 518.027344 C 345.097656 516.675781 346.15625 515.410156 347.195312 514.117188 C 347.617188 513.597656 347.585938 512.757812 347.179688 512.835938 C 346.882812 512.859375 346.613281 512.957031 346.371094 513.128906 C 345.460938 514.050781 344.953125 515.425781 343.421875 515.609375 Z M 329.304688 477.910156 C 329.144531 477.863281 328.90625 477.871094 328.828125 477.761719 C 327.082031 475.234375 326.285156 472.296875 325.328125 469.433594 C 324.941406 468.300781 324.75 467.007812 325.269531 465.941406 C 325.960938 464.519531 325.597656 463.371094 324.929688 462.164062 C 324.503906 461.429688 324.125 460.671875 323.792969 459.890625 C 321.683594 454.566406 318.945312 449.425781 318.839844 443.484375 C 318.839844 443.1875 318.589844 442.867188 318.402344 442.597656 C 318.332031 442.503906 318.097656 442.484375 317.945312 442.5 C 317.796875 442.515625 317.601562 442.617188 317.585938 442.707031 C 317.148438 445.359375 316.71875 448.011719 316.320312 450.667969 C 316.269531 451.011719 316.308594 451.34375 316.433594 451.667969 C 317.421875 454.007812 317.335938 456.652344 318.609375 458.953125 C 319.339844 460.257812 319.738281 461.78125 320.070312 463.253906 C 321.015625 467.394531 322.5625 471.320312 324.191406 475.214844 C 325.140625 477.398438 326.398438 479.382812 327.964844 481.175781 C 328.167969 481.410156 328.539062 481.503906 328.828125 481.660156 C 328.976562 481.390625 329.246094 481.117188 329.253906 480.824219 C 329.28125 479.808594 329.222656 478.789062 329.195312 477.777344 C 329.464844 477.964844 329.910156 478.125 329.945312 478.34375 C 330.1875 480.011719 331.261719 481.394531 331.363281 483.140625 C 331.4375 484.453125 332.007812 485.738281 332.414062 487.015625 C 332.484375 487.246094 332.8125 487.398438 333.023438 487.582031 C 333.199219 487.3125 333.328125 487.019531 333.417969 486.707031 C 333.472656 486.203125 333.472656 485.699219 333.417969 485.191406 C 332.800781 478.308594 330.480469 472.035156 326.296875 465.640625 C 326.457031 468.21875 327.191406 469.90625 327.691406 471.65625 C 328.269531 473.714844 329.414062 475.652344 329.304688 477.910156 Z M 362.84375 445.316406 L 362.734375 445.191406 C 363.082031 445.53125 363.402344 446.117188 363.777344 446.15625 C 364.621094 446.253906 365.453125 446.179688 366.265625 445.9375 C 369.75 444.824219 373.273438 444.933594 376.757812 445.667969 C 380.289062 446.445312 383.777344 446.285156 387.21875 445.179688 C 392.605469 443.46875 397.335938 440.605469 401.617188 436.964844 C 402.113281 436.542969 402.460938 435.929688 402.820312 435.367188 C 402.960938 435.140625 403.089844 434.648438 402.972656 434.558594 C 402.703125 434.34375 402.398438 434.261719 402.058594 434.308594 C 399.757812 434.878906 397.421875 435.175781 395.050781 435.207031 C 391.011719 435.261719 386.996094 435.53125 382.957031 435.902344 C 377.839844 436.378906 373.082031 437.964844 368.34375 439.648438 C 365.585938 440.636719 363.21875 442.207031 361.238281 444.363281 C 360.640625 445.007812 361.414062 445.140625 361.832031 445.261719 C 362.164062 445.320312 362.503906 445.339844 362.84375 445.316406 Z M 316.027344 571.558594 C 316.195312 571.546875 316.363281 571.554688 316.53125 571.582031 C 316.945312 571.707031 317.339844 571.855469 317.753906 572.007812 C 317.777344 571.691406 317.914062 571.332031 317.804688 571.070312 C 315.523438 565.40625 312.480469 560.183594 308.679688 555.40625 C 306.125 552.269531 303.757812 548.996094 301.578125 545.582031 C 299.710938 542.570312 297.605469 539.742188 295.257812 537.089844 C 294.023438 535.710938 292.691406 534.417969 291.363281 533.128906 C 291.078125 532.9375 290.773438 532.90625 290.453125 533.027344 C 290.152344 533.195312 289.984375 533.453125 289.949219 533.796875 C 290.339844 536.628906 290.710938 539.464844 291.234375 542.273438 C 291.519531 543.765625 291.957031 545.210938 292.550781 546.609375 C 294.402344 550.964844 296.53125 555.179688 299.226562 559.082031 C 300.449219 560.90625 301.886719 562.542969 303.535156 563.992188 C 306.867188 566.867188 310.5625 569.21875 314.023438 571.902344 C 314.285156 572.117188 314.585938 572.253906 314.917969 572.316406 C 315.476562 572.394531 315.828125 572.035156 316.046875 571.546875 Z M 351.65625 531.875 L 351.578125 531.785156 C 350.953125 533.214844 349.480469 533.289062 348.296875 533.703125 C 347.113281 534.117188 345.84375 534.363281 344.871094 535.707031 C 348.445312 535.785156 351.8125 535.9375 355.171875 535.898438 C 357.234375 535.875 359.148438 536.097656 361.066406 536.976562 C 364.332031 538.476562 367.757812 539.269531 371.347656 539.363281 C 375.839844 539.460938 380.382812 538.855469 384.703125 537.160156 C 388.359375 535.722656 391.726562 533.925781 394.480469 531.070312 C 394.6875 530.855469 394.75 530.496094 394.871094 530.207031 C 394.570312 530.09375 394.203125 529.804688 393.984375 529.894531 C 390.585938 531.273438 386.980469 530.730469 383.480469 530.953125 C 382.339844 531.023438 381.136719 530.703125 380.019531 530.367188 C 377.9375 529.734375 375.871094 529.082031 373.824219 528.285156 C 368.585938 526.238281 363.046875 525.757812 357.445312 525.914062 C 354.714844 525.957031 352.125 526.585938 349.679688 527.804688 C 346.492188 529.40625 343.464844 531.226562 340.980469 533.828125 C 340.1875 534.652344 339.035156 535.175781 338.722656 536.417969 C 340.246094 537.152344 341.167969 535.785156 342.335938 535.335938 C 343.109375 535.042969 343.730469 534.367188 344.492188 534.03125 C 346.796875 533.023438 348.980469 531.617188 351.65625 531.875 Z M 383.714844 493.757812 C 383.605469 493.625 383.480469 493.511719 383.339844 493.421875 C 383.183594 493.339844 383.027344 493.328125 382.863281 493.386719 C 380.914062 494.765625 378.660156 495.488281 376.492188 496.402344 C 368.359375 499.832031 360.816406 504.253906 354.046875 509.945312 C 353 510.808594 352.03125 511.75 351.136719 512.769531 C 349.8125 514.300781 348.582031 515.910156 347.367188 517.527344 C 347.078125 517.90625 346.703125 518.632812 346.859375 518.875 C 347.84375 520.316406 346.753906 520.976562 345.945312 521.8125 C 344.539062 523.269531 343.164062 524.753906 341.820312 526.273438 C 341.65625 526.457031 341.675781 526.890625 341.75 527.171875 C 341.871094 527.609375 342.15625 527.582031 342.558594 527.332031 C 347.753906 524.046875 353.308594 521.695312 359.457031 520.910156 C 360.128906 520.835938 360.792969 520.71875 361.449219 520.558594 C 361.949219 520.445312 362.40625 520.246094 362.828125 519.957031 C 366.058594 517.511719 369.359375 515.113281 371.839844 511.828125 C 372.863281 510.480469 373.996094 509.191406 374.820312 507.726562 C 376.019531 505.566406 378.007812 504.339844 379.832031 502.890625 C 380.011719 500.289062 381.128906 498.089844 382.664062 496.035156 C 383.128906 495.367188 383.355469 494.519531 383.703125 493.757812 Z M 381.578125 567.007812 C 381.347656 566.820312 381.101562 566.441406 380.898438 566.46875 C 378.558594 566.753906 376.234375 567.277344 373.894531 567.402344 C 367.996094 567.753906 362.179688 568.671875 356.332031 569.445312 C 349.472656 570.355469 343.230469 572.578125 337.742188 576.800781 C 337.050781 577.34375 335.976562 577.519531 335.875 578.84375 C 335.777344 580.167969 334.222656 580.261719 333.410156 581.027344 C 332.679688 581.71875 331.757812 582.203125 330.988281 582.863281 C 330.484375 583.320312 330.046875 583.832031 329.671875 584.398438 C 329.488281 584.667969 329.441406 584.957031 329.542969 585.265625 C 329.753906 585.523438 330.023438 585.636719 330.351562 585.601562 C 332.414062 584.863281 334.445312 584.042969 336.5 583.289062 C 339.824219 582.066406 343.179688 580.910156 346.714844 580.507812 C 352.578125 579.832031 358.453125 579.289062 364.324219 578.664062 C 371.082031 577.945312 376.597656 575.140625 380.199219 569.125 C 380.542969 568.546875 381.007812 568.046875 381.390625 567.484375 C 381.46875 567.332031 381.527344 567.171875 381.566406 567.007812 Z M 448.421875 329.460938 C 444.125 332.429688 439.644531 334.765625 435.199219 337.144531 C 428.253906 340.863281 422.335938 345.710938 417.75 352.191406 C 415.109375 355.929688 412.902344 359.910156 410.808594 363.953125 C 410.683594 364.277344 410.632812 364.605469 410.65625 364.949219 C 410.65625 365.09375 410.773438 365.34375 410.875 365.367188 C 411.144531 365.421875 411.570312 365.496094 411.683594 365.367188 C 412.535156 364.332031 413.332031 363.25 414.140625 362.183594 C 415.609375 364.410156 416.6875 362.210938 417.71875 361.714844 C 420.300781 360.464844 422.792969 359.050781 425.191406 357.476562 C 426.871094 356.371094 428.265625 354.84375 429.871094 353.621094 C 433.253906 351.058594 436.421875 348.226562 438.921875 344.820312 C 442.472656 339.960938 446.007812 335.070312 448.421875 329.460938 Z M 385.296875 403.339844 C 388.765625 403.339844 391.632812 403.339844 394.503906 403.339844 C 397.195312 403.359375 399.851562 403.339844 402.507812 404.222656 C 404.71875 404.953125 407.214844 404.328125 409.496094 405.144531 C 409.765625 405.242188 410.144531 405.058594 410.472656 404.988281 C 417.445312 403.535156 423.320312 400.078125 428.378906 395.140625 C 428.605469 394.878906 428.703125 394.578125 428.664062 394.230469 C 428.574219 393.652344 428.046875 393.5625 427.546875 393.523438 C 421.621094 393.058594 415.78125 393.695312 409.992188 394.996094 C 405.726562 395.949219 401.425781 396.761719 397.152344 397.695312 C 395.179688 398.121094 393.238281 398.691406 391.617188 400.015625 C 392.40625 400.554688 393.234375 400.355469 394.023438 400.078125 C 395.554688 399.546875 397.132812 399.253906 398.75 399.199219 C 400.371094 399.144531 401.964844 399.332031 403.527344 399.753906 C 407.242188 400.753906 410.53125 399.738281 413.886719 398.675781 C 415.164062 398.269531 416.355469 397.582031 417.582031 397.019531 C 418.121094 396.769531 418.78125 397 418.660156 397.398438 C 418.589844 397.722656 418.460938 398.023438 418.273438 398.296875 C 417.222656 399.492188 415.738281 399.949219 414.316406 400.441406 C 410.054688 401.910156 405.710938 401.867188 401.332031 401 C 400.351562 400.808594 399.199219 400.394531 398.367188 400.730469 C 395.894531 401.707031 393.375 401.359375 390.863281 401.488281 C 389.023438 401.558594 387.121094 401.570312 385.296875 403.339844 Z M 338.664062 374.167969 C 338.605469 376.851562 338.765625 378.84375 339.4375 380.800781 C 341.371094 386.414062 343.835938 391.75 347.351562 396.554688 C 347.535156 396.804688 347.890625 396.925781 348.175781 397.09375 C 348.308594 396.808594 348.53125 396.527344 348.550781 396.230469 C 348.554688 395.722656 348.523438 395.21875 348.453125 394.71875 C 348.421875 394.199219 348.582031 393.714844 349.101562 393.609375 C 349.320312 393.566406 349.746094 393.878906 349.859375 394.148438 C 351.882812 398.589844 353.855469 403.050781 355.867188 407.492188 C 356.277344 408.394531 356.800781 409.246094 357.269531 410.125 C 358.371094 409.1875 357.671875 407.996094 357.65625 406.945312 C 357.640625 405.15625 357.328125 403.421875 356.722656 401.742188 C 356.121094 400.058594 355.253906 398.523438 354.132812 397.136719 C 352.976562 395.6875 351.734375 394.265625 350.796875 392.679688 C 348.230469 388.324219 345.796875 383.890625 343.316406 379.484375 C 342.40625 377.863281 341.632812 376.210938 341.257812 374.355469 C 341.035156 373.238281 340.351562 372.214844 339.851562 371.160156 C 339.816406 371.089844 339.558594 371.089844 339.417969 371.125 C 339.261719 371.15625 339.132812 371.234375 339.03125 371.359375 C 338.363281 372.441406 338.699219 373.652344 338.664062 374.167969 Z M 384.535156 376.351562 C 387.1875 367.675781 388.96875 358.953125 389.277344 349.976562 C 389.269531 349.292969 389.371094 348.625 389.582031 347.976562 C 390.289062 346.171875 389.925781 344.28125 390.121094 342.4375 C 390.140625 342.253906 389.851562 342.007812 389.648438 341.847656 C 389.601562 341.808594 389.328125 341.960938 389.234375 342.082031 C 387.761719 343.988281 387.152344 346.320312 386.164062 348.464844 C 382.394531 356.636719 381.410156 365.375 381.335938 374.207031 C 381.300781 378.332031 382.144531 382.460938 382.570312 386.589844 C 383.027344 383.738281 383.21875 380.867188 383.144531 377.980469 C 382.894531 371.535156 384.480469 365.207031 384.222656 358.773438 C 384.25 358.609375 384.320312 358.460938 384.433594 358.335938 C 384.527344 358.207031 384.628906 358.089844 384.738281 357.976562 C 384.847656 358.105469 385.042969 358.226562 385.050781 358.363281 C 385.320312 362.070312 385.410156 365.820312 384.671875 369.441406 C 384.175781 371.824219 384.246094 374.078125 384.535156 376.351562 Z M 340.640625 389.597656 C 340.597656 390.359375 340.460938 390.875 340.554688 391.34375 C 341.449219 395.699219 343.046875 399.773438 345.902344 403.214844 C 347 404.535156 347.671875 406.09375 348.652344 407.433594 C 349.632812 408.777344 351.09375 409.660156 352.246094 410.847656 C 353.296875 411.925781 354.214844 413.148438 355.207031 414.289062 C 355.335938 414.410156 355.488281 414.464844 355.667969 414.441406 C 356.054688 414.363281 356.207031 414.101562 356.035156 413.78125 C 353.824219 409.414062 351.484375 405.128906 348.636719 401.132812 C 345.996094 397.4375 343.449219 393.664062 340.640625 389.597656 Z M 379.679688 491.796875 C 379.644531 491.683594 379.648438 491.527344 379.574219 491.476562 C 379.453125 491.378906 379.253906 491.265625 379.140625 491.308594 C 377.589844 491.929688 376.085938 492.710938 374.492188 493.199219 C 368.460938 495.011719 363.050781 498.007812 357.867188 501.527344 C 354.765625 503.636719 352.226562 506.277344 349.875 509.140625 C 349.738281 509.304688 349.914062 509.71875 349.941406 510.011719 C 350.210938 509.9375 350.542969 509.945312 350.71875 509.78125 C 356.167969 504.6875 362.234375 500.480469 368.910156 497.164062 C 371.3125 495.972656 373.820312 495.003906 376.261719 493.890625 C 377.480469 493.324219 378.792969 492.90625 379.679688 491.796875 Z M 317.6875 461.808594 C 316.945312 462.488281 317.011719 463.160156 317.105469 463.761719 C 317.605469 466.902344 318.207031 470.023438 319.261719 473.035156 C 321.535156 479.5625 326.152344 484.511719 330.492188 489.644531 C 330.601562 489.71875 330.714844 489.730469 330.835938 489.679688 C 330.953125 489.574219 331.105469 489.375 331.070312 489.261719 C 330.566406 487.441406 329.496094 485.960938 328.332031 484.496094 C 325.183594 480.523438 322.496094 476.300781 321.03125 471.351562 C 320.082031 468.15625 318.839844 465.054688 317.6875 461.808594 Z M 342.953125 370.253906 C 342.371094 371.292969 342.769531 372.058594 343.074219 372.847656 C 345.0625 378.066406 347.796875 382.90625 350.640625 387.6875 C 351.839844 389.710938 353.25 391.605469 354.582031 393.550781 C 354.839844 393.917969 355.148438 393.945312 355.339844 393.679688 C 355.425781 393.558594 355.527344 393.351562 355.480469 393.238281 C 354.492188 390.742188 353.675781 388.148438 352.4375 385.78125 C 349.644531 380.429688 346.253906 375.425781 342.953125 370.253906 Z M 334.109375 480.203125 C 334.296875 477.941406 334.464844 476.640625 334.003906 475.316406 C 332.507812 471.023438 331.042969 466.726562 328.886719 462.699219 C 328.328125 461.660156 327.539062 460.667969 327.269531 459.554688 C 326.476562 456.195312 324.445312 453.4375 323.054688 450.378906 C 322.949219 450.148438 322.628906 450.011719 322.410156 449.839844 C 322.289062 450.144531 322.023438 450.46875 322.070312 450.738281 C 322.597656 453.566406 323.519531 456.257812 324.835938 458.816406 C 326.597656 462.269531 328.339844 465.742188 330.167969 469.15625 C 331.71875 471.984375 332.796875 474.980469 333.402344 478.144531 C 333.476562 478.53125 333.65625 478.910156 334.109375 480.203125 Z M 386.457031 380.667969 C 390.007812 372.410156 392.558594 357.875 390.449219 351.933594 C 390.546875 357.8125 389.371094 363.050781 388.136719 368.285156 C 387.527344 370.898438 386.84375 373.5 386.390625 376.136719 C 386.148438 377.582031 385.84375 379.109375 386.457031 380.667969 Z M 337.96875 584.527344 C 340.3125 584.527344 341.519531 584.722656 342.636719 584.492188 C 346.121094 583.757812 349.640625 583.855469 353.167969 583.667969 C 356.691406 583.476562 360.007812 582.445312 363.507812 581.238281 C 362.128906 580.589844 360.941406 580.726562 359.78125 580.832031 C 352.785156 581.472656 345.792969 582.191406 337.96875 584.527344 Z M 355.90625 566.203125 C 360.433594 566.867188 364.300781 565.347656 368.28125 564.898438 C 364.148438 563.992188 360.167969 564.449219 355.894531 566.203125 Z M 359.949219 411.386719 C 359.546875 415.066406 359.789062 417.742188 361.613281 420.5625 C 362.03125 417.414062 361.5 414.839844 359.929688 411.386719 Z M 317.425781 564.011719 C 317.339844 564.316406 317.09375 564.683594 317.1875 564.914062 C 317.917969 566.699219 318.324219 568.65625 319.75 570.097656 C 320.632812 567.824219 318.601562 566.476562 318.007812 564.671875 C 317.921875 564.417969 317.628906 564.238281 317.425781 564.011719 Z M 317.425781 564.011719 " fill-opacity="1" fill-rule="nonzero"/></g><path fill="#000000" d="M 426.953125 337.246094 C 426.753906 338.144531 426.019531 338.59375 425.335938 338.992188 C 422.222656 340.867188 419.304688 342.980469 416.785156 345.621094 C 416.199219 346.238281 415.496094 346.636719 414.601562 346.535156 C 415.480469 344.242188 417.398438 342.777344 419.253906 341.519531 C 421.65625 339.878906 423.78125 337.5625 426.953125 337.246094 Z M 426.953125 337.246094 " fill-opacity="1" fill-rule="nonzero"/><path fill="#000000" d="M 414.746094 346.394531 C 414.027344 349.035156 412.386719 351.082031 410.554688 353.015625 C 411.269531 349.40625 411.867188 348.457031 414.746094 346.394531 Z M 414.746094 346.394531 " fill-opacity="1" fill-rule="nonzero"/><path fill="#000000" d="M 355.714844 513.511719 C 355.835938 513.21875 355.871094 512.773438 356.089844 512.648438 C 360.757812 509.980469 365.441406 507.34375 370.128906 504.734375 C 370.222656 504.683594 370.574219 505.019531 370.738281 505.226562 C 370.796875 505.304688 370.695312 505.5625 370.609375 505.695312 C 370.421875 505.964844 370.246094 506.320312 369.972656 506.46875 C 365.546875 508.832031 361.109375 511.171875 356.664062 513.484375 C 356.40625 513.617188 356.007812 513.472656 355.671875 513.453125 Z M 355.714844 513.511719 " fill-opacity="1" fill-rule="nonzero"/><path fill="#000000" d="M 355.671875 513.476562 C 354.800781 515.742188 352.609375 516.367188 350.761719 517.402344 C 350.597656 517.496094 350.222656 517.1875 349.929688 517.066406 C 349.996094 516.914062 350.085938 516.773438 350.199219 516.648438 C 351.546875 515.644531 352.855469 514.613281 354.253906 513.695312 C 354.617188 513.453125 355.21875 513.570312 355.707031 513.523438 Z M 355.671875 513.476562 " fill-opacity="1" fill-rule="nonzero"/><path fill="#000000" d="M 351.65625 531.875 C 351.832031 531.601562 351.96875 531.160156 352.195312 531.113281 C 354.164062 530.703125 356.144531 530.355469 358.121094 530.035156 C 358.625 529.941406 359.128906 529.929688 359.636719 530.003906 C 365.238281 530.972656 370.839844 531.960938 376.433594 532.972656 C 376.5625 532.996094 376.769531 533.308594 376.753906 533.328125 C 376.554688 533.558594 376.320312 533.945312 376.097656 533.941406 C 374.417969 533.914062 372.59375 534.191406 371.085938 533.648438 C 365.367188 531.605469 359.5 531.703125 353.59375 531.867188 C 352.921875 531.886719 352.246094 531.824219 351.570312 531.800781 Z M 351.65625 531.875 " fill-opacity="1" fill-rule="nonzero"/><path fill="#000000" d="M 340.988281 577.21875 C 342.683594 576.25 344.550781 575.847656 346.523438 575.527344 C 350.363281 574.898438 354.234375 574.679688 358.078125 574.199219 C 360.164062 573.929688 362.027344 574.46875 363.976562 574.777344 C 364.105469 574.800781 364.203125 575.015625 364.316406 575.144531 C 364.191406 575.253906 364.078125 575.414062 363.933594 575.464844 C 363.457031 575.609375 362.960938 575.832031 362.488281 575.804688 C 355.699219 575.441406 349.019531 576.199219 342.378906 577.570312 C 341.910156 577.664062 341.347656 577.746094 340.988281 577.21875 Z M 340.988281 577.21875 " fill-opacity="1" fill-rule="nonzero"/><path fill="#000000" d="M 424.695312 348.5 C 424.433594 349.078125 424.128906 349.628906 423.785156 350.15625 C 422.78125 351.484375 421.710938 352.757812 420.671875 354.058594 C 420.359375 354.445312 420.105469 354.429688 419.921875 353.980469 C 419.863281 353.839844 419.789062 353.632812 419.847656 353.539062 C 421.078125 351.589844 422.066406 349.457031 423.929688 347.976562 C 424.0625 347.90625 424.191406 347.90625 424.324219 347.976562 C 424.445312 348.054688 424.515625 348.230469 424.695312 348.5 Z M 424.695312 348.5 " fill-opacity="1" fill-rule="nonzero"/><path fill="#000000" d="M 316.042969 571.546875 C 314.605469 571.25 313.941406 569.972656 313.019531 569.0625 C 310.988281 567.0625 309.074219 564.953125 306.738281 563.277344 C 304.933594 561.980469 303.792969 560.117188 302.875 558.128906 C 302.839844 558.046875 302.996094 557.839844 303.101562 557.738281 C 303.203125 557.640625 303.320312 557.597656 303.460938 557.613281 C 303.628906 557.65625 303.769531 557.746094 303.878906 557.882812 C 306.859375 561.757812 310.910156 564.578125 314.128906 568.21875 C 314.992188 569.195312 316.242188 569.96875 316.027344 571.566406 Z M 316.042969 571.546875 " fill-opacity="1" fill-rule="nonzero"/><path fill="#000000" d="M 300.738281 553.148438 C 300.660156 553.371094 300.558594 553.585938 300.4375 553.785156 C 300.359375 553.875 300.144531 553.980469 300.09375 553.941406 C 298.433594 552.675781 297.289062 551.078125 296.910156 548.984375 C 296.890625 548.871094 297.082031 548.667969 297.21875 548.605469 C 297.375 548.582031 297.503906 548.628906 297.609375 548.746094 C 298.6875 550.242188 299.746094 551.75 300.738281 553.148438 Z M 300.738281 553.148438 " fill-opacity="1" fill-rule="nonzero"/><path fill="#000000" d="M 362.84375 445.316406 C 364.949219 443.3125 367.597656 442.246094 370.214844 441.191406 C 373.332031 439.933594 376.484375 438.878906 379.988281 438.921875 C 382.113281 438.949219 384.253906 438.09375 386.378906 437.609375 C 388.507812 437.125 390.617188 436.628906 393.316406 437.527344 C 389.375 439.167969 385.699219 439.601562 382.066406 440.0625 C 377.03125 440.695312 372.125 441.667969 367.515625 443.875 C 366.027344 444.585938 364.554688 445.589844 362.742188 445.191406 Z M 362.84375 445.316406 " fill-opacity="1" fill-rule="nonzero"/></svg>