<svg xmlns="http://www.w3.org/2000/svg" xmlns:xlink="http://www.w3.org/1999/xlink" width="1080" zoomAndPan="magnify" viewBox="0 0 810 809.999993" height="1080" preserveAspectRatio="xMidYMid meet" version="1.0"><defs><clipPath id="5fe0e3109e"><path d="M 285.355469 277.011719 L 454.105469 277.011719 L 454.105469 601 L 285.355469 601 Z M 285.355469 277.011719 " clip-rule="nonzero"/></clipPath></defs><g clip-path="url(#5fe0e3109e)"><path fill="#ffffff" d="M 343.515625 470.9375 C 343.710938 470.300781 343.761719 469.570312 344.121094 469.050781 C 347.402344 464.257812 351.292969 460.03125 355.800781 456.367188 C 359.847656 453.042969 364.5625 450.59375 369.425781 448.542969 C 370.195312 448.1875 370.988281 447.890625 371.800781 447.65625 C 377.480469 446.210938 382.496094 443.394531 387.15625 439.96875 C 388.582031 438.917969 389.664062 440.296875 390.933594 439.875 C 391.328125 439.742188 391.578125 440.492188 391.570312 441.003906 C 391.539062 442.1875 391.421875 443.3125 390.8125 444.421875 C 386.910156 451.542969 383.507812 458.949219 378.726562 465.570312 C 378.035156 466.53125 377.339844 467.535156 376.453125 468.300781 C 373.378906 470.953125 371.109375 474.429688 367.730469 476.773438 C 367.15625 477.175781 367.316406 478.050781 368.023438 478.390625 C 369.082031 478.914062 370.15625 479.722656 371.261719 479.78125 C 374.816406 479.972656 378.214844 481.242188 381.832031 481.050781 C 384.871094 480.886719 387.929688 481.128906 390.984375 481.148438 C 393.695312 481.164062 396.402344 481.148438 399.003906 480.144531 C 399.351562 480.011719 400.050781 480.265625 400.3125 480.578125 C 400.589844 481.003906 400.667969 481.464844 400.539062 481.960938 C 400.058594 483.621094 399.214844 485.070312 398.003906 486.304688 C 393.238281 491.433594 387.292969 494.691406 380.589844 496.238281 C 373.113281 497.960938 365.515625 497.855469 357.886719 496.710938 C 354.058594 496.128906 350.253906 495.316406 346.328125 495.222656 C 341.964844 495.117188 337.964844 496.152344 334.046875 497.917969 C 333.492188 498.144531 333.019531 498.488281 332.632812 498.945312 C 332.246094 499.40625 331.988281 499.929688 331.863281 500.515625 C 331.640625 501.335938 331.503906 502.171875 331.453125 503.023438 C 331.300781 508.457031 330.316406 513.789062 329.535156 519.152344 C 328.703125 524.84375 327.917969 530.535156 326.453125 536.109375 C 326.363281 536.4375 326.324219 536.773438 326.34375 537.113281 C 326.375 537.601562 326.328125 538.253906 326.613281 538.527344 C 327.011719 538.910156 327.472656 538.414062 327.789062 538.085938 C 328.96875 536.867188 330.144531 535.65625 331.292969 534.390625 C 333.609375 531.875 336.246094 529.757812 339.199219 528.039062 C 342.566406 526.070312 346.019531 524.261719 349.402344 522.324219 C 353.746094 519.84375 358.601562 518.941406 363.386719 517.90625 C 365.242188 517.542969 367.097656 517.5625 368.945312 517.960938 C 372.984375 518.777344 377.015625 518.75 381.042969 517.878906 C 382.367188 517.609375 383.726562 517.476562 385.070312 517.296875 C 386.023438 517.167969 386.640625 517.769531 386.632812 518.695312 C 386.617188 519.746094 386.449219 520.769531 385.765625 521.558594 C 382.765625 525.011719 380.148438 528.796875 376.589844 531.765625 C 373.308594 534.515625 369.652344 536.613281 365.625 538.058594 C 360.832031 539.785156 355.898438 540.910156 350.828125 541.425781 C 346.144531 541.921875 341.382812 541.867188 336.75 543.140625 C 332.902344 544.207031 329.589844 546.152344 326.496094 548.539062 C 324.128906 550.375 322.863281 553.039062 322.265625 555.875 C 320.085938 566.128906 316.945312 576.140625 314.035156 586.199219 C 312.675781 590.914062 311.226562 595.628906 308.539062 599.820312 C 308.269531 600.230469 307.648438 600.886719 307.503906 600.808594 C 306.992188 600.539062 307.15625 599.96875 307.347656 599.484375 C 307.410156 599.328125 307.507812 599.183594 307.554688 599.019531 C 309.867188 591.597656 312.246094 584.195312 314.464844 576.742188 C 316.621094 569.457031 318.558594 562.097656 320.074219 554.640625 C 320.816406 550.996094 321.445312 547.3125 322.503906 543.753906 C 323.222656 541.328125 322.667969 539.492188 321.257812 537.621094 C 318.984375 534.609375 316.148438 532.207031 313.132812 529.996094 C 311.90625 529.09375 310.574219 528.328125 309.355469 527.417969 C 306.910156 525.59375 304.382812 523.867188 302.339844 521.550781 C 301.78125 520.917969 301.226562 520.160156 300.503906 519.804688 C 296.847656 517.992188 294.964844 514.410156 292.230469 511.675781 C 291.605469 511.089844 291.117188 510.40625 290.761719 509.625 C 289.003906 505.269531 286.957031 501.019531 286.273438 496.214844 C 285.75 492.503906 285.347656 488.84375 285.464844 485.109375 C 285.46875 484.511719 285.597656 483.941406 285.851562 483.398438 C 286.109375 482.855469 286.46875 482.394531 286.933594 482.011719 C 288.445312 480.695312 289.070312 480.589844 290.265625 482.035156 C 292.207031 484.394531 294.105469 486.777344 295.957031 489.191406 C 300.710938 495.386719 305.902344 501.1875 311.53125 506.597656 C 314.25 509.21875 316.136719 512.472656 318.074219 515.632812 C 320.46875 519.53125 322.507812 523.648438 323.320312 528.238281 C 323.527344 529.5625 324.066406 530.730469 324.9375 531.746094 C 325.703125 527.429688 326.558594 523.351562 327.097656 519.25 C 327.636719 515.230469 328.175781 511.214844 328.433594 507.144531 C 328.773438 501.933594 329.804688 496.757812 330.691406 491.59375 C 330.914062 490.261719 331.050781 488.917969 331.101562 487.570312 C 331.207031 485.199219 331.34375 482.855469 331.960938 480.519531 C 332.742188 477.574219 332.535156 474.476562 333.039062 471.453125 C 333.605469 467.964844 333.582031 464.382812 334.296875 460.886719 C 334.609375 459.378906 334.191406 457.945312 333.773438 456.433594 C 332.523438 451.871094 329.78125 448.261719 326.953125 444.664062 C 326.117188 443.597656 325.222656 442.574219 324.324219 441.558594 C 320.421875 437.164062 318.246094 431.980469 316.621094 426.359375 C 315.003906 420.816406 314.183594 415.15625 314.15625 409.382812 C 314.128906 402.90625 315.277344 396.589844 317.140625 390.402344 C 317.289062 389.917969 317.542969 389.460938 318.128906 389.410156 C 318.296875 389.390625 318.464844 389.40625 318.628906 389.449219 C 318.792969 389.496094 318.945312 389.570312 319.082031 389.675781 C 319.214844 389.777344 319.328125 389.902344 319.417969 390.046875 C 319.507812 390.195312 319.566406 390.351562 319.59375 390.519531 C 321.128906 397.203125 324.839844 402.949219 327.484375 409.136719 C 329.746094 414.441406 332.460938 419.519531 334.769531 424.789062 C 336.625 429.03125 337.121094 433.582031 337.507812 438.136719 C 337.636719 439.644531 337.628906 441.167969 337.714844 443.472656 C 338.339844 441.855469 338.792969 441.023438 338.996094 440.128906 C 340.269531 434.683594 342.433594 429.515625 343.957031 424.160156 C 346.09375 416.640625 349.46875 409.625 352.351562 402.417969 C 354.164062 397.890625 356.84375 393.703125 359.175781 389.386719 C 359.984375 387.886719 360.746094 386.4375 360.851562 384.65625 C 360.980469 382.542969 360.769531 380.636719 359.363281 378.921875 C 358.082031 377.351562 357.023438 375.597656 355.722656 374.046875 C 352.5625 370.285156 349.382812 366.539062 346.09375 362.894531 C 342.976562 359.460938 340.734375 355.523438 339.375 351.085938 C 337.039062 343.570312 336.078125 335.882812 336.488281 328.023438 C 336.617188 325.324219 337.191406 322.660156 337.621094 319.992188 C 337.695312 319.519531 338.03125 319.074219 338.296875 318.644531 C 338.816406 317.796875 340.371094 317.65625 340.9375 318.460938 C 341.613281 319.425781 342.175781 320.46875 342.773438 321.488281 C 345.078125 325.433594 347.210938 329.492188 349.710938 333.3125 C 353.574219 339.152344 356.320312 345.476562 357.941406 352.289062 C 358.523438 354.746094 359.476562 357.125 360.371094 359.496094 C 361.03125 361.234375 361.640625 362.980469 362.203125 364.757812 C 363.445312 368.667969 364.3125 372.585938 364.136719 376.714844 C 364.121094 377.03125 364.320312 377.355469 364.40625 377.675781 C 364.835938 377.464844 365.273438 377.273438 365.691406 377.035156 C 365.824219 376.957031 365.898438 376.765625 365.996094 376.632812 C 369.386719 371.773438 372.777344 366.910156 376.164062 362.039062 C 376.648438 361.34375 376.996094 360.515625 377.59375 359.941406 C 379.867188 357.746094 380.457031 354.988281 380.304688 352.019531 C 380.085938 347.632812 380.769531 343.175781 379.371094 338.875 C 379.730469 335.273438 378.175781 331.890625 378.171875 328.332031 C 378.171875 326.699219 377.675781 324.949219 379.535156 323.785156 C 379.933594 323.53125 379.988281 322.546875 380 321.894531 C 380.230469 312.179688 383.175781 303.289062 388.070312 294.972656 C 388.199219 294.753906 388.042969 294.363281 388.019531 294.050781 C 387.75 294.074219 387.398438 294.003906 387.242188 294.144531 C 386.621094 294.722656 386.082031 295.382812 385.480469 295.976562 C 385.289062 296.160156 384.921875 296.378906 384.734375 296.308594 C 384.363281 296.179688 384.320312 295.792969 384.550781 295.441406 C 386.746094 292.128906 389.847656 289.773438 393.03125 287.535156 C 393.324219 287.332031 394.125 287.78125 394.238281 288.15625 C 394.796875 290.003906 394.601562 291.898438 394.195312 293.683594 C 393.742188 295.707031 393.746094 297.71875 393.714844 299.746094 C 393.648438 304.496094 393.589844 309.246094 393.550781 314 C 393.523438 317.746094 392.660156 321.378906 392.019531 325.035156 C 390.90625 331.371094 388.558594 337.386719 386.910156 343.582031 C 386.683594 344.570312 386.519531 345.570312 386.414062 346.578125 C 386.394531 346.714844 386.542969 347 386.625 347.003906 C 386.894531 347.003906 387.265625 347.03125 387.398438 346.871094 C 389.523438 344.445312 391.734375 342.089844 393.679688 339.53125 C 395.734375 336.824219 398.015625 334.324219 400.523438 332.03125 C 401.648438 331 402.589844 329.769531 403.761719 328.792969 C 405.382812 327.421875 405.980469 325.886719 405.128906 323.863281 C 404.710938 322.863281 404.980469 321.898438 405.367188 320.917969 C 406.097656 319.074219 406.042969 316.871094 407.929688 315.582031 C 407.800781 316.929688 407.628906 318.246094 407.03125 319.503906 C 406.777344 320.042969 406.730469 321.222656 406.980469 321.351562 C 407.894531 321.816406 407.765625 320.703125 408.015625 320.289062 C 408.707031 319.132812 409.25 317.886719 409.851562 316.679688 C 410.660156 315.023438 411.328125 313.253906 412.34375 311.726562 C 415.808594 306.527344 419.359375 301.40625 424.394531 297.492188 C 426.382812 295.945312 428.171875 294.128906 430.300781 292.753906 C 430.675781 292.511719 430.84375 291.960938 431.113281 291.554688 C 433.347656 291.402344 434.976562 289.933594 436.980469 289.09375 C 436.859375 288.953125 436.71875 288.839844 436.558594 288.75 C 436.394531 288.660156 436.222656 288.601562 436.039062 288.574219 C 435.855469 288.546875 435.675781 288.554688 435.492188 288.59375 C 435.3125 288.636719 435.144531 288.707031 434.988281 288.804688 C 433.617188 289.589844 431.792969 289.824219 431.210938 291.664062 C 430.589844 291.796875 429.964844 291.910156 429.351562 292.066406 C 428.574219 292.257812 427.800781 292.476562 427.027344 292.683594 C 427.074219 291.902344 427.648438 291.550781 428.214844 291.175781 C 431.613281 288.929688 435.160156 286.949219 438.855469 285.238281 C 443.003906 283.308594 447.066406 281.21875 450.675781 278.347656 C 451.230469 277.957031 451.824219 277.636719 452.457031 277.394531 C 453.085938 277.125 453.4375 277.625 453.613281 278.050781 C 454.054688 279.128906 454.355469 280.140625 453.738281 281.398438 C 451.46875 285.957031 448.890625 290.335938 446.007812 294.535156 C 444.117188 297.34375 442.316406 300.238281 440.1875 302.863281 C 437.761719 305.875 435.082031 308.707031 432.363281 311.476562 C 426.507812 317.460938 419.851562 322.363281 412.398438 326.179688 C 406.019531 329.457031 400.722656 334.199219 396.332031 339.917969 C 394.265625 342.597656 391.988281 345.113281 389.859375 347.746094 C 388.480469 349.460938 387.21875 351.269531 385.921875 353.050781 C 385.875 353.113281 385.960938 353.339844 386.046875 353.414062 C 386.136719 353.488281 386.378906 353.601562 386.457031 353.550781 C 388.578125 352.152344 390.902344 351.183594 393.175781 350.082031 C 397.664062 347.902344 402.503906 347.113281 407.238281 345.902344 C 408.855469 345.492188 410.601562 345.476562 412.285156 345.472656 C 418.898438 345.472656 425.507812 345.546875 432.132812 345.597656 C 432.46875 345.597656 432.808594 345.617188 433.144531 345.640625 C 433.855469 345.695312 434.441406 346.378906 434.253906 346.988281 C 433.773438 348.609375 433.3125 350.226562 432.726562 351.828125 C 431.996094 353.816406 430.539062 355.25 428.75 356.300781 C 427.289062 357.15625 425.796875 358.015625 424.21875 358.59375 C 420.5625 359.941406 416.910156 361.347656 413.15625 362.289062 C 409.109375 363.300781 405.082031 364.175781 400.683594 363.179688 C 395.269531 361.945312 389.664062 361.289062 384.042969 362.132812 C 383.210938 362.253906 382.351562 362.226562 381.519531 362.347656 C 380.5 362.46875 379.550781 362.796875 378.679688 363.335938 C 377.804688 363.878906 377.085938 364.574219 376.523438 365.433594 C 371.550781 372.703125 366.347656 379.820312 362.585938 387.851562 C 361.292969 390.605469 359.65625 393.199219 358.207031 395.882812 C 358.070312 396.136719 358.003906 396.597656 358.140625 396.800781 C 358.636719 397.511719 358.988281 396.785156 359.265625 396.527344 C 363.820312 392.339844 369.046875 389.308594 374.941406 387.429688 C 379.816406 385.902344 384.808594 385.132812 389.917969 385.121094 C 393.140625 385.105469 396.363281 385.121094 399.589844 385.097656 C 402.128906 385.097656 404.644531 385.136719 407.164062 384.488281 C 408.601562 384.121094 410.199219 384.335938 411.722656 384.371094 C 412.800781 384.394531 413.386719 385.683594 412.769531 386.644531 C 411.113281 389.214844 409.332031 391.625 406.589844 393.230469 C 403.507812 395.046875 400.570312 397.070312 397.554688 398.957031 C 396.695312 399.496094 395.820312 400.128906 394.859375 400.367188 C 392.519531 400.945312 390.484375 402.164062 388.304688 403.082031 C 385.976562 404.066406 383.605469 404.824219 380.96875 404.847656 C 378.457031 404.871094 375.960938 405.554688 373.441406 405.738281 C 370.921875 405.921875 368.335938 405.660156 365.8125 405.917969 C 361.40625 406.371094 357.199219 407.605469 353.351562 409.90625 C 352.292969 410.539062 351.414062 411.3125 350.878906 412.390625 C 350.101562 413.894531 349.421875 415.445312 348.84375 417.035156 C 345.554688 426.632812 342.269531 436.238281 339.914062 446.121094 C 338.386719 452.53125 337.140625 459.011719 335.804688 465.464844 C 335.667969 466.300781 335.601562 467.144531 335.609375 467.992188 C 335.441406 473.425781 334.707031 478.785156 333.71875 484.117188 C 333.449219 485.605469 333.484375 487.160156 333.449219 488.683594 C 333.425781 490.050781 333.324219 491.382812 332.804688 492.671875 C 332.636719 493.09375 332.578125 493.769531 333.121094 493.828125 C 333.421875 493.859375 333.949219 493.242188 334.105469 492.820312 C 334.625 491.394531 335.078125 489.945312 335.453125 488.476562 C 336.863281 482.863281 339 477.539062 341.867188 472.511719 C 342.289062 471.777344 342.761719 471.066406 343.648438 470.808594 C 343.953125 471.617188 343.179688 472.65625 344.09375 473.355469 C 345.195312 472.007812 346.253906 470.742188 347.296875 469.449219 C 347.714844 468.929688 347.683594 468.085938 347.28125 468.167969 C 346.980469 468.1875 346.710938 468.285156 346.46875 468.460938 C 345.558594 469.382812 345.046875 470.753906 343.515625 470.9375 Z M 329.375 433.242188 C 329.214844 433.195312 328.972656 433.203125 328.898438 433.09375 C 327.148438 430.566406 326.347656 427.625 325.390625 424.765625 C 325.003906 423.628906 324.8125 422.339844 325.335938 421.273438 C 326.023438 419.851562 325.664062 418.699219 324.992188 417.496094 C 324.566406 416.761719 324.1875 416.003906 323.855469 415.222656 C 321.742188 409.894531 319 404.757812 318.894531 398.816406 C 318.894531 398.519531 318.644531 398.199219 318.453125 397.929688 C 318.386719 397.835938 318.148438 397.816406 317.996094 397.832031 C 317.847656 397.847656 317.652344 397.949219 317.636719 398.039062 C 317.199219 400.691406 316.769531 403.34375 316.371094 405.996094 C 316.320312 406.339844 316.355469 406.675781 316.484375 407 C 317.472656 409.339844 317.386719 411.984375 318.664062 414.285156 C 319.394531 415.585938 319.792969 417.113281 320.125 418.585938 C 321.074219 422.722656 322.621094 426.652344 324.253906 430.546875 C 325.207031 432.726562 326.464844 434.714844 328.03125 436.507812 C 328.234375 436.742188 328.609375 436.832031 328.898438 436.988281 C 329.046875 436.71875 329.316406 436.449219 329.324219 436.15625 C 329.351562 435.136719 329.292969 434.121094 329.265625 433.105469 C 329.535156 433.296875 329.980469 433.453125 330.015625 433.675781 C 330.257812 435.339844 331.335938 436.726562 331.433594 438.472656 C 331.511719 439.78125 332.082031 441.070312 332.488281 442.347656 C 332.558594 442.578125 332.890625 442.730469 333.101562 442.914062 C 333.273438 442.640625 333.40625 442.347656 333.492188 442.039062 C 333.546875 441.535156 333.546875 441.027344 333.492188 440.523438 C 332.875 433.636719 330.554688 427.367188 326.363281 420.972656 C 326.523438 423.550781 327.257812 425.234375 327.757812 426.988281 C 328.335938 429.046875 329.484375 430.984375 329.375 433.242188 Z M 362.96875 400.648438 L 362.855469 400.523438 C 363.203125 400.863281 363.527344 401.449219 363.902344 401.488281 C 364.746094 401.585938 365.578125 401.511719 366.398438 401.269531 C 369.882812 400.15625 373.414062 400.261719 376.902344 401 C 380.441406 401.777344 383.933594 401.613281 387.382812 400.507812 C 392.777344 398.800781 397.515625 395.9375 401.804688 392.296875 C 402.300781 391.875 402.648438 391.261719 403.007812 390.699219 C 403.148438 390.472656 403.277344 389.976562 403.160156 389.886719 C 402.890625 389.671875 402.585938 389.589844 402.242188 389.640625 C 399.9375 390.207031 397.601562 390.507812 395.226562 390.535156 C 391.179688 390.59375 387.160156 390.863281 383.113281 391.230469 C 377.984375 391.710938 373.222656 393.296875 368.472656 394.980469 C 365.714844 395.96875 363.34375 397.539062 361.359375 399.695312 C 360.761719 400.339844 361.539062 400.472656 361.953125 400.59375 C 362.289062 400.652344 362.625 400.671875 362.96875 400.648438 Z M 316.078125 526.890625 C 316.246094 526.878906 316.414062 526.886719 316.582031 526.914062 C 316.992188 527.039062 317.390625 527.183594 317.804688 527.339844 C 317.828125 527.023438 317.964844 526.664062 317.859375 526.402344 C 315.570312 520.738281 312.523438 515.515625 308.71875 510.738281 C 306.15625 507.601562 303.785156 504.328125 301.601562 500.914062 C 299.734375 497.902344 297.625 495.070312 295.273438 492.421875 C 294.039062 491.042969 292.703125 489.75 291.375 488.460938 C 291.085938 488.269531 290.78125 488.234375 290.460938 488.355469 C 290.160156 488.527344 289.992188 488.785156 289.957031 489.128906 C 290.347656 491.957031 290.71875 494.792969 291.246094 497.605469 C 291.527344 499.097656 291.96875 500.542969 292.5625 501.941406 C 294.414062 506.292969 296.550781 510.511719 299.246094 514.414062 C 300.472656 516.238281 301.914062 517.871094 303.566406 519.320312 C 306.902344 522.199219 310.605469 524.546875 314.070312 527.234375 C 314.332031 527.445312 314.632812 527.585938 314.964844 527.648438 C 315.527344 527.722656 315.878906 527.367188 316.09375 526.878906 Z M 351.761719 487.203125 L 351.683594 487.117188 C 351.058594 488.546875 349.582031 488.617188 348.398438 489.035156 C 347.210938 489.449219 345.941406 489.695312 344.964844 491.039062 C 348.546875 491.117188 351.917969 491.269531 355.285156 491.230469 C 357.347656 491.207031 359.269531 491.429688 361.1875 492.308594 C 364.457031 493.804688 367.890625 494.601562 371.484375 494.695312 C 375.984375 494.792969 380.53125 494.1875 384.859375 492.492188 C 388.523438 491.054688 391.898438 489.253906 394.65625 486.398438 C 394.863281 486.1875 394.925781 485.828125 395.042969 485.535156 C 394.746094 485.421875 394.378906 485.136719 394.160156 485.226562 C 390.753906 486.601562 387.144531 486.0625 383.636719 486.285156 C 382.496094 486.355469 381.289062 486.035156 380.171875 485.699219 C 378.085938 485.066406 376.015625 484.414062 373.964844 483.617188 C 368.71875 481.570312 363.171875 481.089844 357.558594 481.246094 C 354.824219 481.289062 352.230469 481.917969 349.78125 483.136719 C 346.589844 484.734375 343.558594 486.558594 341.066406 489.15625 C 340.273438 489.984375 339.121094 490.507812 338.808594 491.75 C 340.335938 492.484375 341.257812 491.117188 342.429688 490.667969 C 343.203125 490.371094 343.824219 489.699219 344.585938 489.363281 C 346.894531 488.355469 349.082031 486.949219 351.761719 487.203125 Z M 383.871094 449.089844 C 383.761719 448.957031 383.636719 448.84375 383.496094 448.75 C 383.339844 448.667969 383.183594 448.65625 383.019531 448.714844 C 381.066406 450.09375 378.808594 450.820312 376.640625 451.734375 C 368.492188 455.164062 360.9375 459.585938 354.15625 465.277344 C 353.109375 466.140625 352.140625 467.082031 351.242188 468.101562 C 349.914062 469.628906 348.683594 471.242188 347.464844 472.859375 C 347.175781 473.234375 346.800781 473.964844 346.957031 474.207031 C 347.941406 475.648438 346.851562 476.304688 346.042969 477.140625 C 344.636719 478.597656 343.257812 480.085938 341.910156 481.601562 C 341.746094 481.785156 341.765625 482.222656 341.839844 482.503906 C 341.960938 482.941406 342.246094 482.914062 342.648438 482.664062 C 347.855469 479.375 353.417969 477.027344 359.574219 476.242188 C 360.25 476.167969 360.914062 476.050781 361.570312 475.886719 C 362.070312 475.777344 362.53125 475.574219 362.949219 475.285156 C 366.1875 472.839844 369.496094 470.445312 371.980469 467.160156 C 373.003906 465.808594 374.136719 464.523438 374.964844 463.058594 C 376.164062 460.898438 378.15625 459.671875 379.984375 458.222656 C 380.164062 455.621094 381.28125 453.417969 382.820312 451.367188 C 383.285156 450.699219 383.511719 449.847656 383.859375 449.089844 Z M 381.730469 522.339844 C 381.5 522.148438 381.253906 521.773438 381.050781 521.800781 C 378.707031 522.085938 376.378906 522.609375 374.035156 522.734375 C 368.128906 523.085938 362.300781 524.003906 356.445312 524.777344 C 349.574219 525.6875 343.324219 527.910156 337.828125 532.132812 C 337.132812 532.671875 336.058594 532.851562 335.957031 534.175781 C 335.859375 535.5 334.300781 535.59375 333.488281 536.359375 C 332.753906 537.050781 331.832031 537.535156 331.058594 538.195312 C 330.558594 538.652344 330.117188 539.164062 329.742188 539.730469 C 329.558594 539.996094 329.515625 540.285156 329.613281 540.597656 C 329.824219 540.855469 330.09375 540.96875 330.421875 540.933594 C 332.488281 540.195312 334.523438 539.375 336.582031 538.621094 C 339.910156 537.398438 343.273438 536.242188 346.8125 535.839844 C 352.683594 535.164062 358.570312 534.621094 364.453125 533.996094 C 371.21875 533.277344 376.746094 530.472656 380.347656 524.457031 C 380.695312 523.878906 381.160156 523.378906 381.542969 522.816406 C 381.621094 522.664062 381.679688 522.503906 381.71875 522.339844 Z M 448.679688 284.792969 C 444.378906 287.757812 439.890625 290.097656 435.4375 292.476562 C 428.480469 296.195312 422.554688 301.039062 417.964844 307.519531 C 415.316406 311.261719 413.105469 315.242188 411.007812 319.285156 C 410.882812 319.605469 410.832031 319.9375 410.855469 320.28125 C 410.855469 320.425781 410.972656 320.675781 411.074219 320.695312 C 411.34375 320.753906 411.769531 320.828125 411.882812 320.695312 C 412.738281 319.664062 413.535156 318.582031 414.347656 317.511719 C 415.816406 319.742188 416.898438 317.542969 417.929688 317.046875 C 420.515625 315.796875 423.011719 314.382812 425.414062 312.808594 C 427.097656 311.703125 428.492188 310.175781 430.101562 308.953125 C 433.488281 306.386719 436.664062 303.558594 439.167969 300.152344 C 442.726562 295.292969 446.265625 290.402344 448.679688 284.792969 Z M 385.457031 358.671875 C 388.929688 358.671875 391.804688 358.671875 394.675781 358.671875 C 397.375 358.6875 400.035156 358.671875 402.695312 359.554688 C 404.910156 360.285156 407.410156 359.65625 409.691406 360.476562 C 409.964844 360.570312 410.34375 360.386719 410.671875 360.316406 C 417.65625 358.867188 423.539062 355.40625 428.609375 350.472656 C 428.835938 350.210938 428.929688 349.90625 428.894531 349.5625 C 428.800781 348.984375 428.277344 348.894531 427.773438 348.855469 C 421.839844 348.390625 415.992188 349.027344 410.191406 350.328125 C 405.917969 351.28125 401.613281 352.09375 397.332031 353.023438 C 395.355469 353.453125 393.410156 354.023438 391.789062 355.34375 C 392.578125 355.886719 393.40625 355.6875 394.195312 355.410156 C 395.730469 354.878906 397.308594 354.585938 398.933594 354.53125 C 400.554688 354.476562 402.148438 354.660156 403.714844 355.085938 C 407.4375 356.085938 410.730469 355.066406 414.09375 354.007812 C 415.371094 353.601562 416.5625 352.910156 417.792969 352.351562 C 418.332031 352.101562 418.992188 352.332031 418.871094 352.726562 C 418.800781 353.054688 418.671875 353.351562 418.488281 353.628906 C 417.433594 354.820312 415.945312 355.28125 414.523438 355.773438 C 410.253906 357.242188 405.902344 357.195312 401.515625 356.332031 C 400.535156 356.140625 399.378906 355.726562 398.550781 356.0625 C 396.070312 357.039062 393.546875 356.691406 391.03125 356.820312 C 389.1875 356.890625 387.285156 356.898438 385.457031 358.671875 Z M 338.75 329.5 C 338.691406 332.179688 338.851562 334.175781 339.523438 336.132812 C 341.460938 341.746094 343.929688 347.082031 347.453125 351.886719 C 347.636719 352.136719 347.992188 352.257812 348.277344 352.425781 C 348.410156 352.140625 348.632812 351.855469 348.652344 351.5625 C 348.65625 351.054688 348.621094 350.550781 348.554688 350.046875 C 348.519531 349.53125 348.683594 349.046875 349.203125 348.941406 C 349.421875 348.898438 349.847656 349.210938 349.964844 349.480469 C 351.988281 353.921875 353.964844 358.382812 355.980469 362.824219 C 356.390625 363.726562 356.914062 364.578125 357.382812 365.457031 C 358.488281 364.519531 357.785156 363.328125 357.769531 362.273438 C 357.753906 360.488281 357.445312 358.753906 356.839844 357.070312 C 356.234375 355.390625 355.367188 353.855469 354.242188 352.46875 C 353.082031 351.015625 351.84375 349.597656 350.902344 348.007812 C 348.332031 343.65625 345.894531 339.21875 343.410156 334.8125 C 342.5 333.195312 341.722656 331.542969 341.347656 329.6875 C 341.125 328.570312 340.4375 327.546875 339.9375 326.492188 C 339.90625 326.421875 339.644531 326.421875 339.503906 326.453125 C 339.347656 326.488281 339.21875 326.566406 339.117188 326.691406 C 338.449219 327.773438 338.785156 328.984375 338.75 329.5 Z M 384.695312 331.679688 C 387.347656 323.007812 389.136719 314.28125 389.441406 305.304688 C 389.433594 304.621094 389.539062 303.957031 389.75 303.304688 C 390.457031 301.5 390.09375 299.613281 390.289062 297.769531 C 390.308594 297.582031 390.019531 297.339844 389.816406 297.179688 C 389.769531 297.140625 389.492188 297.292969 389.398438 297.414062 C 387.921875 299.320312 387.316406 301.652344 386.324219 303.796875 C 382.546875 311.96875 381.5625 320.707031 381.488281 329.535156 C 381.453125 333.664062 382.296875 337.792969 382.726562 341.921875 C 383.179688 339.070312 383.375 336.199219 383.300781 333.3125 C 383.050781 326.863281 384.636719 320.539062 384.378906 314.105469 C 384.410156 313.9375 384.480469 313.792969 384.589844 313.664062 C 384.683594 313.539062 384.785156 313.417969 384.894531 313.304688 C 385.007812 313.4375 385.199219 313.558594 385.210938 313.695312 C 385.480469 317.402344 385.570312 321.152344 384.828125 324.773438 C 384.335938 327.15625 384.402344 329.410156 384.695312 331.679688 Z M 340.726562 344.929688 C 340.683594 345.691406 340.550781 346.207031 340.644531 346.671875 C 341.539062 351.03125 343.136719 355.105469 346 358.546875 C 347.097656 359.867188 347.769531 361.425781 348.753906 362.765625 C 349.734375 364.105469 351.199219 364.992188 352.351562 366.179688 C 353.40625 367.257812 354.324219 368.476562 355.320312 369.621094 C 355.449219 369.742188 355.601562 369.792969 355.777344 369.773438 C 356.167969 369.695312 356.320312 369.433594 356.148438 369.113281 C 353.933594 364.746094 351.589844 360.460938 348.738281 356.464844 C 346.09375 352.769531 343.542969 348.996094 340.726562 344.929688 Z M 379.828125 447.128906 C 379.796875 447.015625 379.800781 446.859375 379.726562 446.804688 C 379.605469 446.710938 379.402344 446.597656 379.292969 446.640625 C 377.738281 447.261719 376.230469 448.042969 374.632812 448.53125 C 368.59375 450.34375 363.175781 453.339844 357.984375 456.859375 C 354.875 458.96875 352.332031 461.609375 349.976562 464.472656 C 349.84375 464.636719 350.015625 465.050781 350.046875 465.34375 C 350.316406 465.269531 350.648438 465.277344 350.824219 465.109375 C 356.28125 460.015625 362.355469 455.8125 369.042969 452.492188 C 371.449219 451.304688 373.960938 450.335938 376.40625 449.222656 C 377.625 448.65625 378.945312 448.234375 379.828125 447.128906 Z M 317.738281 417.140625 C 316.996094 417.820312 317.0625 418.492188 317.15625 419.09375 C 317.65625 422.234375 318.257812 425.355469 319.316406 428.367188 C 321.59375 434.894531 326.214844 439.839844 330.5625 444.972656 C 330.671875 445.050781 330.789062 445.0625 330.910156 445.007812 C 331.023438 444.90625 331.179688 444.707031 331.144531 444.59375 C 330.640625 442.773438 329.566406 441.292969 328.402344 439.824219 C 325.25 435.855469 322.554688 431.632812 321.089844 426.683594 C 320.136719 423.488281 318.894531 420.382812 317.738281 417.140625 Z M 343.046875 325.582031 C 342.464844 326.625 342.863281 327.390625 343.164062 328.179688 C 345.15625 333.398438 347.898438 338.238281 350.742188 343.019531 C 351.945312 345.039062 353.359375 346.9375 354.695312 348.878906 C 354.949219 349.25 355.257812 349.277344 355.453125 349.011719 C 355.539062 348.886719 355.640625 348.683594 355.59375 348.570312 C 354.601562 346.070312 353.785156 343.480469 352.546875 341.113281 C 349.746094 335.761719 346.351562 330.757812 343.046875 325.582031 Z M 334.1875 435.53125 C 334.375 433.273438 334.542969 431.972656 334.082031 430.648438 C 332.585938 426.355469 331.113281 422.058594 328.957031 418.03125 C 328.398438 416.988281 327.605469 416 327.335938 414.886719 C 326.539062 411.527344 324.507812 408.769531 323.113281 405.710938 C 323.007812 405.480469 322.691406 405.34375 322.46875 405.171875 C 322.347656 405.472656 322.082031 405.800781 322.128906 406.070312 C 322.65625 408.898438 323.582031 411.589844 324.898438 414.144531 C 326.664062 417.601562 328.40625 421.074219 330.238281 424.488281 C 331.792969 427.3125 332.871094 430.308594 333.476562 433.476562 C 333.554688 433.863281 333.734375 434.238281 334.1875 435.53125 Z M 386.621094 336 C 390.175781 327.742188 392.730469 313.207031 390.617188 307.265625 C 390.714844 313.144531 389.535156 318.382812 388.300781 323.617188 C 387.6875 326.226562 387.007812 328.828125 386.554688 331.46875 C 386.308594 332.910156 386.003906 334.441406 386.621094 336 Z M 338.050781 539.859375 C 340.402344 539.859375 341.609375 540.054688 342.726562 539.824219 C 346.214844 539.089844 349.742188 539.1875 353.273438 538.996094 C 356.808594 538.808594 360.125 537.777344 363.632812 536.570312 C 362.253906 535.921875 361.0625 536.054688 359.898438 536.164062 C 352.890625 536.804688 345.890625 537.523438 338.050781 539.859375 Z M 356.019531 521.535156 C 360.550781 522.199219 364.425781 520.679688 368.414062 520.226562 C 364.273438 519.324219 360.289062 519.78125 356.007812 521.535156 Z M 360.066406 366.71875 C 359.667969 370.398438 359.90625 373.074219 361.738281 375.894531 C 362.152344 372.746094 361.625 370.167969 360.050781 366.71875 Z M 317.476562 519.34375 C 317.390625 519.648438 317.144531 520.015625 317.238281 520.246094 C 317.96875 522.03125 318.375 523.988281 319.804688 525.429688 C 320.691406 523.152344 318.652344 521.808594 318.058594 520 C 317.972656 519.75 317.679688 519.570312 317.476562 519.34375 Z M 317.476562 519.34375 " fill-opacity="1" fill-rule="nonzero"/></g><path fill="#ffffff" d="M 427.179688 292.574219 C 426.980469 293.476562 426.246094 293.925781 425.558594 294.324219 C 422.441406 296.195312 419.515625 298.3125 416.996094 300.953125 C 416.410156 301.570312 415.703125 301.96875 414.804688 301.867188 C 415.6875 299.574219 417.609375 298.109375 419.464844 296.851562 C 421.875 295.210938 424.003906 292.894531 427.179688 292.574219 Z M 427.179688 292.574219 " fill-opacity="1" fill-rule="nonzero"/><path fill="#ffffff" d="M 414.953125 301.726562 C 414.234375 304.363281 412.589844 306.414062 410.757812 308.347656 C 411.472656 304.738281 412.070312 303.785156 414.953125 301.726562 Z M 414.953125 301.726562 " fill-opacity="1" fill-rule="nonzero"/><path fill="#ffffff" d="M 355.828125 468.84375 C 355.949219 468.546875 355.984375 468.101562 356.203125 467.980469 C 360.878906 465.3125 365.566406 462.671875 370.265625 460.066406 C 370.359375 460.015625 370.710938 460.351562 370.875 460.558594 C 370.933594 460.636719 370.832031 460.894531 370.742188 461.027344 C 370.558594 461.296875 370.382812 461.652344 370.109375 461.800781 C 365.675781 464.164062 361.230469 466.503906 356.777344 468.816406 C 356.519531 468.949219 356.117188 468.800781 355.785156 468.785156 Z M 355.828125 468.84375 " fill-opacity="1" fill-rule="nonzero"/><path fill="#ffffff" d="M 355.785156 468.808594 C 354.914062 471.070312 352.714844 471.699219 350.867188 472.734375 C 350.703125 472.824219 350.324219 472.519531 350.03125 472.398438 C 350.097656 472.242188 350.1875 472.101562 350.300781 471.976562 C 351.652344 470.976562 352.964844 469.945312 354.363281 469.027344 C 354.726562 468.785156 355.328125 468.902344 355.820312 468.851562 Z M 355.785156 468.808594 " fill-opacity="1" fill-rule="nonzero"/><path fill="#ffffff" d="M 351.761719 487.203125 C 351.9375 486.933594 352.074219 486.492188 352.300781 486.445312 C 354.273438 486.035156 356.257812 485.683594 358.238281 485.367188 C 358.742188 485.269531 359.25 485.261719 359.757812 485.335938 C 365.367188 486.300781 370.976562 487.292969 376.578125 488.300781 C 376.710938 488.328125 376.914062 488.640625 376.902344 488.660156 C 376.703125 488.886719 376.464844 489.277344 376.242188 489.273438 C 374.558594 489.246094 372.734375 489.523438 371.222656 488.980469 C 365.496094 486.9375 359.617188 487.035156 353.703125 487.199219 C 353.03125 487.21875 352.351562 487.15625 351.675781 487.132812 Z M 351.761719 487.203125 " fill-opacity="1" fill-rule="nonzero"/><path fill="#ffffff" d="M 341.074219 532.550781 C 342.773438 531.582031 344.644531 531.179688 346.621094 530.855469 C 350.46875 530.230469 354.34375 530.007812 358.195312 529.53125 C 360.285156 529.257812 362.148438 529.800781 364.101562 530.109375 C 364.234375 530.132812 364.328125 530.347656 364.441406 530.472656 C 364.316406 530.585938 364.207031 530.742188 364.058594 530.796875 C 363.582031 530.941406 363.085938 531.160156 362.609375 531.136719 C 355.8125 530.769531 349.121094 531.53125 342.472656 532.902344 C 342 532.996094 341.4375 533.078125 341.074219 532.550781 Z M 341.074219 532.550781 " fill-opacity="1" fill-rule="nonzero"/><path fill="#ffffff" d="M 424.917969 303.832031 C 424.65625 304.40625 424.351562 304.960938 424.003906 305.488281 C 423 306.8125 421.925781 308.089844 420.886719 309.386719 C 420.574219 309.777344 420.320312 309.761719 420.136719 309.308594 C 420.078125 309.171875 420.003906 308.964844 420.0625 308.871094 C 421.292969 306.917969 422.285156 304.789062 424.152344 303.304688 C 424.28125 303.234375 424.414062 303.234375 424.546875 303.304688 C 424.664062 303.386719 424.734375 303.558594 424.917969 303.832031 Z M 424.917969 303.832031 " fill-opacity="1" fill-rule="nonzero"/><path fill="#ffffff" d="M 316.09375 526.878906 C 314.652344 526.582031 313.988281 525.304688 313.0625 524.394531 C 311.03125 522.390625 309.113281 520.28125 306.773438 518.605469 C 304.964844 517.3125 303.824219 515.449219 302.902344 513.457031 C 302.867188 513.378906 303.023438 513.171875 303.128906 513.070312 C 303.230469 512.972656 303.351562 512.929688 303.488281 512.941406 C 303.660156 512.988281 303.796875 513.078125 303.90625 513.214844 C 306.894531 517.089844 310.953125 519.90625 314.175781 523.550781 C 315.039062 524.527344 316.292969 525.296875 316.078125 526.894531 Z M 316.09375 526.878906 " fill-opacity="1" fill-rule="nonzero"/><path fill="#ffffff" d="M 300.761719 508.480469 C 300.683594 508.703125 300.585938 508.914062 300.460938 509.117188 C 300.382812 509.207031 300.167969 509.3125 300.117188 509.273438 C 298.453125 508.007812 297.308594 506.410156 296.929688 504.3125 C 296.910156 504.203125 297.101562 504 297.238281 503.9375 C 297.394531 503.914062 297.523438 503.960938 297.628906 504.078125 C 298.707031 505.570312 299.769531 507.078125 300.761719 508.480469 Z M 300.761719 508.480469 " fill-opacity="1" fill-rule="nonzero"/><path fill="#ffffff" d="M 362.96875 400.648438 C 365.074219 398.644531 367.730469 397.574219 370.351562 396.519531 C 373.472656 395.261719 376.628906 394.210938 380.140625 394.253906 C 382.269531 394.28125 384.410156 393.421875 386.542969 392.941406 C 388.671875 392.457031 390.785156 391.957031 393.488281 392.859375 C 389.542969 394.5 385.859375 394.933594 382.21875 395.394531 C 377.175781 396.027344 372.261719 397 367.648438 399.207031 C 366.15625 399.914062 364.679688 400.921875 362.867188 400.523438 Z M 362.96875 400.648438 " fill-opacity="1" fill-rule="nonzero"/></svg>