<svg xmlns="http://www.w3.org/2000/svg" xmlns:xlink="http://www.w3.org/1999/xlink" width="1080" zoomAndPan="magnify" viewBox="0 0 810 809.999993" height="1080" preserveAspectRatio="xMidYMid meet" version="1.0"><defs><clipPath id="d6a47d6e6f"><path d="M 303.382812 247.023438 L 513.382812 247.023438 L 513.382812 571 L 303.382812 571 Z M 303.382812 247.023438 " clip-rule="nonzero"/></clipPath></defs><g clip-path="url(#d6a47d6e6f)"><path fill="#ffffff" d="M 509.019531 481.203125 C 509.019531 482.777344 508.398438 484.050781 507.328125 485.191406 C 499.488281 493.558594 491.683594 501.921875 482.226562 508.578125 C 476.472656 512.621094 471.652344 517.714844 467.050781 523.011719 C 466.222656 523.964844 465.664062 525.148438 464.882812 526.148438 C 463.640625 527.738281 463.949219 529.21875 464.832031 530.863281 C 466.335938 533.683594 468.554688 536.058594 470.023438 538.820312 C 471.734375 542 473.640625 545.054688 475.742188 547.988281 C 479.878906 553.890625 484.035156 559.792969 488.980469 565.066406 C 490.324219 566.457031 491.332031 568.058594 492.007812 569.867188 C 492.066406 569.964844 492.097656 570.070312 492.101562 570.183594 C 492.105469 570.296875 492.082031 570.40625 492.035156 570.507812 C 491.984375 570.609375 491.914062 570.695312 491.824219 570.761719 C 491.734375 570.828125 491.632812 570.867188 491.519531 570.882812 C 491.164062 570.964844 490.578125 570.984375 490.402344 570.777344 C 486.71875 566.398438 483.039062 562.015625 479.441406 557.578125 C 475.554688 552.792969 471.960938 547.800781 468.660156 542.59375 C 467.644531 541.003906 466.96875 540.941406 464.875 541.578125 C 462.628906 542.253906 460.503906 543.191406 458.492188 544.394531 C 451.34375 548.609375 443.960938 552.265625 435.683594 553.808594 C 432.777344 554.351562 429.980469 555.503906 427.074219 556.027344 C 421.015625 557.148438 414.972656 557.574219 408.753906 556.550781 C 405.007812 555.9375 401.234375 555.292969 397.457031 554.753906 C 396.183594 554.578125 394.976562 554.191406 393.835938 553.597656 C 392.695312 553.003906 391.683594 552.234375 390.808594 551.292969 C 390.195312 550.652344 390.308594 549.527344 391.148438 549.234375 C 399.914062 546.226562 407.074219 540.433594 414.820312 535.652344 C 418.953125 533.101562 422.847656 530.109375 427.648438 528.707031 C 429.296875 528.226562 430.902344 527.710938 432.609375 527.714844 C 437.480469 527.714844 442.347656 527.601562 447.128906 529.039062 C 450.761719 530.136719 454.507812 530.875 458.214844 531.726562 C 458.632812 531.8125 459.023438 531.738281 459.378906 531.496094 C 460.085938 530.925781 459.480469 530.421875 459.121094 529.976562 C 455.125 524.988281 450.605469 520.5 446.015625 516.066406 C 442.808594 512.976562 439.433594 510.0625 436.253906 506.949219 C 431.242188 501.988281 425.566406 497.859375 419.828125 493.828125 C 416.519531 491.507812 413.230469 489.1875 410.128906 486.59375 C 408.777344 485.46875 407.273438 485.578125 406.15625 486.863281 C 405.144531 487.953125 404.253906 489.136719 403.488281 490.414062 C 401.511719 493.925781 399.539062 497.449219 397.792969 501.078125 C 395.253906 506.355469 391.777344 510.792969 386.992188 514.195312 C 384.226562 516.164062 382.082031 518.933594 378.910156 520.375 C 375.433594 521.953125 372.054688 523.785156 368.496094 525.113281 C 361.546875 527.742188 354.316406 529.402344 347.0625 530.988281 C 344.601562 531.523438 342.53125 530.6875 340.425781 529.75 C 340.289062 529.691406 340.375 529.023438 340.441406 528.652344 C 340.515625 528.4375 340.652344 528.28125 340.859375 528.1875 C 344.765625 526.496094 348.242188 524.101562 351.613281 521.527344 C 351.882812 521.316406 352.425781 521.464844 352.847656 521.445312 L 352.929688 521.539062 C 352.628906 522.054688 352.433594 522.683594 352.011719 523.0625 C 350.613281 524.324219 349.136719 525.5 347.679688 526.695312 C 347.191406 527.09375 347.152344 527.40625 347.660156 527.542969 C 348.042969 527.644531 348.5625 527.777344 348.859375 527.609375 C 353.441406 525.019531 357.585938 521.902344 360.574219 517.472656 C 360.761719 517.09375 360.894531 516.699219 360.980469 516.285156 L 363.148438 512.792969 C 363.039062 511.535156 362.730469 510.246094 363.695312 509.148438 C 368.710938 503.394531 373.347656 497.300781 378.988281 492.054688 C 382.929688 488.378906 387.472656 485.730469 392.613281 484.113281 C 395.394531 483.214844 398.183594 482.335938 401.359375 481.324219 C 397.160156 477.765625 392.796875 475.1875 388.292969 472.816406 C 385.300781 471.234375 382.480469 469.285156 379.003906 468.753906 C 377.964844 468.601562 377.027344 468.3125 375.910156 468.523438 C 371.054688 469.511719 366.210938 469.464844 361.375 468.375 C 360.753906 468.222656 360.125 468.140625 359.484375 468.128906 C 352.828125 468.109375 347.230469 465.289062 341.792969 461.78125 C 336.003906 458.078125 331.082031 453.453125 327.023438 447.90625 C 323.882812 443.613281 320.652344 439.398438 318.0625 434.75 C 315.160156 429.519531 311 425.203125 307.414062 420.464844 C 306.777344 419.617188 305.929688 418.917969 305.347656 418.039062 C 304.644531 416.988281 304.058594 415.875 303.585938 414.699219 C 303.371094 414.160156 306.171875 413.773438 307.761719 414.253906 C 308.371094 414.433594 308.960938 414.660156 309.539062 414.929688 C 322.027344 420.816406 334.808594 426.128906 346.765625 433.03125 C 353.917969 437.152344 360.851562 441.742188 366.25 448.261719 C 369.230469 451.855469 372.441406 455.253906 375.507812 458.78125 C 379.074219 462.878906 383.097656 466.546875 388.183594 469.148438 C 397.851562 474.109375 406.960938 479.945312 415.507812 486.660156 C 417.847656 488.496094 420.144531 490.40625 422.613281 492.074219 C 433.601562 499.492188 442.992188 508.742188 452.398438 517.964844 C 453 518.550781 453.644531 519.09375 454.261719 519.65625 C 454.9375 519.03125 454.625 518.441406 454.335938 517.871094 C 452.394531 514.09375 450.535156 510.265625 448.464844 506.558594 C 446.507812 503.027344 444.75 499.402344 443.191406 495.679688 C 441.042969 490.601562 438.59375 485.648438 436.363281 480.59375 C 434.136719 475.542969 431.917969 470.480469 430.519531 465.105469 C 430.207031 463.90625 429.472656 462.648438 427.753906 463.535156 C 424.261719 462.703125 420.792969 461.75 417.265625 461.066406 C 407.699219 459.210938 399.097656 455.125 391.433594 449.304688 C 385.617188 444.859375 380.824219 439.496094 377.054688 433.21875 C 375.734375 431.039062 374.515625 428.820312 373.265625 426.582031 C 372.53125 425.289062 371.621094 424.050781 371.136719 422.667969 C 368.792969 416.054688 365.804688 409.742188 362.519531 403.558594 C 361.984375 402.542969 362.859375 401.445312 363.976562 401.460938 C 365.96875 401.503906 367.742188 402.144531 369.292969 403.390625 C 375.046875 407.859375 381.515625 411.035156 387.933594 414.339844 C 391.949219 416.402344 395.113281 419.617188 398.496094 422.492188 C 406.535156 429.332031 412.433594 437.875 417.367188 447.128906 C 418.761719 449.742188 420.410156 452.207031 421.847656 454.8125 C 422.695312 456.355469 423.90625 457.5 425.25 458.554688 C 426.59375 459.609375 427.726562 459.949219 427.914062 459.355469 C 428.207031 458.441406 427.601562 457.773438 427.378906 456.988281 C 424.945312 448.433594 422.496094 439.878906 420.109375 431.308594 C 418.417969 425.171875 417.007812 418.972656 416.40625 412.605469 C 416.191406 410.292969 415.613281 408.015625 415.195312 405.726562 C 414.136719 399.886719 412.996094 394.054688 412.847656 388.09375 C 412.824219 387.25 412.796875 386.332031 412.464844 385.585938 C 411.390625 383.148438 411.511719 380.609375 411.53125 378.058594 C 411.550781 376.027344 411.511719 376.046875 408.957031 375.484375 C 408.351562 375.3125 407.753906 375.109375 407.164062 374.875 C 404.316406 373.921875 401.546875 373.8125 398.460938 374.199219 C 393.609375 374.808594 388.796875 375.390625 384.082031 376.75 C 382.882812 377.085938 381.5625 377.085938 380.292969 377.136719 C 376.039062 377.25 371.78125 377.214844 367.53125 377.398438 C 365.292969 377.492188 363.082031 377.289062 360.898438 376.785156 C 358.71875 376.28125 356.640625 375.496094 354.671875 374.429688 C 351.484375 372.757812 348.167969 371.332031 344.898438 369.828125 C 340.496094 367.796875 338.71875 363.570312 336.457031 359.78125 C 336.035156 359.078125 336.757812 358.199219 337.425781 357.609375 C 338.28125 356.851562 339.3125 356.738281 340.390625 356.699219 C 350.4375 356.378906 360.167969 354.242188 369.730469 351.359375 C 375.199219 349.710938 380.503906 349.585938 385.992188 351.207031 C 389.25 352.167969 392.605469 352.847656 395.652344 354.382812 C 400.277344 356.695312 404.253906 359.832031 407.582031 363.792969 C 408.269531 364.582031 409.019531 365.304688 409.835938 365.964844 C 410.105469 366.1875 410.582031 366.195312 410.972656 366.214844 C 411.054688 366.214844 411.210938 365.875 411.238281 365.664062 C 411.3125 365.246094 411.339844 364.828125 411.3125 364.402344 C 410.570312 356.164062 409.769531 347.929688 409.085938 339.699219 C 408.917969 337.710938 408.179688 336 407.246094 334.324219 C 406.109375 332.292969 405.007812 330.214844 403.765625 328.230469 C 400.246094 322.652344 399.027344 316.449219 398.9375 310.007812 C 398.851562 304.488281 398.683594 298.945312 399.835938 293.480469 C 399.996094 292.425781 400.046875 291.367188 399.984375 290.304688 C 399.925781 281.574219 402.5625 273.550781 406.726562 266.046875 C 409.3125 261.386719 411.820312 256.757812 413.085938 251.539062 C 413.378906 250.511719 413.792969 249.535156 414.320312 248.609375 C 414.585938 248.097656 414.996094 247.488281 415.492188 247.296875 C 416.167969 247.042969 416.605469 247.671875 416.84375 248.269531 C 418.019531 251.226562 419.320312 254.148438 420.292969 257.175781 C 421.265625 260.199219 421.894531 263.324219 422.660156 266.40625 C 423.808594 270.949219 424.667969 275.515625 424.527344 280.246094 C 424.402344 284.28125 424.652344 288.332031 424.464844 292.363281 C 424.128906 299.625 422.773438 306.640625 419.328125 313.1875 C 416.65625 318.246094 414.117188 323.378906 412.519531 328.9375 C 411.980469 330.808594 411.449219 332.625 411.53125 334.535156 C 411.785156 340.628906 411.492188 346.765625 412.742188 352.8125 C 413.125 354.667969 413.035156 356.621094 413.195312 358.53125 C 413.269531 359.585938 413.410156 360.632812 413.613281 361.667969 C 413.753906 362.085938 414.03125 362.375 414.4375 362.539062 C 414.824219 362.566406 415.128906 362.421875 415.355469 362.109375 C 417.773438 356.964844 422.074219 353.382812 425.902344 349.421875 C 427.398438 347.875 429.214844 346.785156 431.070312 345.726562 C 439.371094 340.988281 447.648438 336.222656 455.90625 331.425781 C 459.230469 329.480469 462.253906 327.148438 464.976562 324.425781 C 465.835938 323.566406 467.007812 324.023438 467.242188 325.316406 C 467.441406 326.332031 467.757812 327.46875 467.539062 328.441406 C 466.328125 333.804688 465.292969 339.238281 461.640625 343.695312 C 460.578125 344.984375 459.800781 346.550781 459.089844 348.09375 C 456.605469 353.441406 452.84375 357.621094 448.03125 360.984375 C 442.277344 365.011719 436.203125 368.496094 430.09375 371.917969 C 427.503906 373.371094 424.878906 374.765625 422.253906 376.15625 C 419.527344 377.59375 418.84375 380.949219 416.230469 382.515625 C 415.484375 382.964844 415.292969 383.871094 415.367188 384.78125 C 415.644531 388.164062 415.488281 391.5 416.328125 394.894531 C 417.398438 399.195312 417.503906 403.722656 418.222656 408.121094 C 419.484375 415.847656 420.703125 423.589844 423.082031 431.082031 C 423.136719 431.25 423.359375 431.382812 423.527344 431.492188 C 423.867188 431.722656 424.140625 431.539062 424.300781 430.976562 C 424.359375 430.773438 424.34375 430.554688 424.382812 430.347656 C 425.449219 424.0625 427.058594 417.921875 429.210938 411.917969 C 430.671875 407.835938 433.046875 404.367188 435.203125 400.730469 C 435.777344 399.816406 436.5 399.039062 437.371094 398.402344 C 444.058594 393.390625 449.773438 387.429688 454.796875 380.769531 C 455.46875 379.953125 456.242188 379.242188 457.113281 378.636719 C 457.3125 378.484375 458.015625 378.636719 458.214844 378.898438 C 459.300781 380.230469 460.101562 381.746094 460.167969 383.496094 C 460.328125 387.953125 460.753906 392.421875 460.183594 396.875 C 459.632812 401.148438 457.601562 404.933594 455.863281 408.773438 C 454.550781 411.691406 452.972656 414.457031 451.125 417.066406 C 446.917969 422.9375 442.871094 428.910156 438.203125 434.46875 C 433.464844 440.101562 430.46875 446.636719 430.835938 454.316406 C 430.929688 456.21875 431.269531 458.082031 431.851562 459.898438 C 434.058594 466.980469 436.480469 473.980469 439.199219 480.882812 C 439.921875 482.878906 440.847656 484.777344 441.972656 486.578125 C 443.128906 488.367188 444.054688 490.273438 444.746094 492.289062 C 446.097656 496.132812 447.96875 499.691406 449.910156 503.238281 C 451.847656 506.785156 453.683594 510.367188 455.664062 513.878906 C 456.480469 515.339844 456.765625 517.242188 458.640625 517.941406 C 459.296875 516.109375 458.019531 514.675781 457.589844 513.085938 C 456.082031 507.539062 454.839844 501.96875 454.933594 496.164062 C 454.992188 492.546875 454.789062 488.914062 455.023438 485.316406 C 455.359375 480.023438 455.945312 474.746094 456.539062 469.476562 C 456.679688 468.238281 457.214844 467.019531 457.667969 465.839844 C 460.632812 458.351562 463.613281 450.871094 466.617188 443.398438 C 467.882812 440.242188 469.203125 437.113281 470.582031 434.019531 C 470.871094 433.445312 471.324219 433.054688 471.933594 432.855469 C 472.765625 432.621094 472.910156 433.46875 472.949219 434.027344 C 473.269531 439.371094 474.925781 444.386719 476.527344 449.449219 C 478.191406 454.703125 479.46875 460.082031 479.296875 465.691406 C 479.253906 466.964844 479.296875 468.277344 478.988281 469.496094 C 478.199219 472.636719 478.238281 475.828125 478.234375 479.011719 C 478.234375 480.347656 477.296875 482.246094 479.09375 482.914062 C 480.363281 483.386719 481.214844 481.757812 482.261719 481.085938 C 483.304688 480.410156 484.453125 479.75 485.378906 478.898438 C 488.085938 476.414062 491.261719 474.734375 494.519531 473.144531 C 498.34375 471.292969 502.300781 469.640625 505.410156 466.636719 C 507.132812 464.972656 509.402344 465.402344 511.3125 464.566406 C 512.441406 464.070312 512.730469 465.082031 513.214844 465.703125 C 513.351562 465.875 513.429688 466.070312 513.449219 466.289062 C 513.617188 471.199219 513.382812 476.007812 509.824219 479.925781 C 510.109375 478.503906 510.28125 477.050781 510.707031 475.667969 C 511.433594 473.324219 511.722656 471.03125 510.613281 467.710938 C 509.667969 471.894531 509.0625 475.15625 507.71875 478.199219 C 507.425781 479.003906 507.371094 479.824219 507.558594 480.660156 C 507.660156 481.316406 508.363281 481.484375 509.019531 481.203125 Z M 401.503906 437.28125 C 399.066406 436.507812 398.09375 434.203125 396.671875 432.453125 C 393.859375 429 391.398438 425.273438 388.613281 421.808594 C 386.601562 419.332031 384.324219 417.121094 381.789062 415.183594 C 379.253906 413.242188 376.527344 411.628906 373.609375 410.335938 C 372.542969 409.851562 371.15625 408.605469 370.128906 409.597656 C 368.636719 411.042969 370.601562 412.207031 371.171875 413.351562 C 372.785156 416.570312 374.8125 419.582031 376.398438 422.804688 C 379.78125 429.695312 384.488281 435.710938 388.992188 441.847656 C 390.609375 444.113281 392.578125 446.027344 394.890625 447.578125 C 400.402344 451.109375 405.929688 454.6875 412.238281 456.761719 C 414.042969 457.351562 415.847656 457.941406 417.675781 458.453125 C 418.015625 458.550781 418.460938 458.3125 419.160156 458.164062 C 418.234375 457.148438 417.441406 456.242188 416.582031 455.390625 C 413.265625 452.105469 409.792969 448.960938 406.648438 445.527344 C 404.402344 443.078125 402.078125 440.546875 401.335938 437.09375 C 402.296875 437.050781 402.863281 437.671875 403.410156 438.328125 C 406.539062 442.050781 409.484375 445.960938 413.183594 449.179688 C 414.429688 450.265625 415.214844 451.933594 417.039062 452.308594 C 417.71875 450.214844 416.160156 448.820312 415.316406 447.316406 C 411.894531 441.222656 408.417969 435.152344 403.191406 430.328125 C 402.269531 429.46875 401.613281 428.332031 400.773438 427.378906 C 397.667969 423.863281 393.875 421.160156 390.09375 418.449219 C 390 418.382812 389.699219 418.507812 389.5625 418.625 C 389.441406 418.753906 389.402344 418.90625 389.449219 419.078125 C 389.757812 419.632812 390.09375 420.171875 390.464844 420.691406 C 393.1875 424.476562 395.820312 428.328125 399.078125 431.703125 C 400.542969 433.21875 402.0625 434.832031 401.503906 437.28125 Z M 463.898438 462.132812 C 463.898438 460.441406 464.371094 458.671875 463.3125 456.3125 C 460.601562 462.230469 458.988281 468.4375 458.46875 474.925781 C 458.46875 475.054688 458.804688 475.351562 458.878906 475.320312 C 459.238281 475.195312 459.792969 475.035156 459.859375 474.777344 C 460.042969 473.976562 460.144531 473.167969 460.164062 472.351562 C 460.285156 469.742188 461.082031 467.441406 463.117188 465.6875 C 462.730469 467.976562 462.578125 470.273438 461.917969 472.554688 C 461.085938 475.609375 460.570312 478.71875 460.375 481.875 C 459.65625 490.984375 460.253906 500.085938 460.507812 509.359375 C 461.691406 508.34375 462.179688 507.253906 462.566406 506.050781 C 463.011719 504.644531 463.53125 503.269531 464.125 501.921875 C 466.394531 496.824219 469.507812 492.3125 473.46875 488.382812 C 474.007812 487.875 474.433594 487.28125 474.746094 486.605469 C 475.058594 485.929688 475.234375 485.222656 475.273438 484.480469 C 476.011719 474.910156 475.441406 465.417969 473.566406 456.007812 C 472.832031 452.285156 472.210938 448.515625 471.535156 444.773438 C 471.460938 444.359375 471.488281 443.890625 471.300781 443.539062 C 471.117188 443.167969 470.828125 442.933594 470.429688 442.828125 C 470.152344 442.8125 469.589844 443.242188 469.585938 443.472656 C 469.558594 446.308594 468.339844 448.824219 467.554688 451.441406 C 466.628906 454.488281 465.414062 457.40625 464.925781 460.578125 C 464.808594 461.113281 464.246094 461.609375 463.898438 462.132812 Z M 344.898438 361.035156 C 347.328125 363.316406 349.050781 365.210938 351.046875 366.753906 C 357.425781 371.679688 364.605469 374.71875 372.761719 374.253906 C 377.1875 374 381.585938 373.203125 386.050781 373.238281 C 386.6875 373.21875 387.308594 373.105469 387.914062 372.902344 C 393.636719 371.109375 399.492188 370.351562 405.480469 370.632812 C 405.90625 370.675781 406.324219 370.632812 406.730469 370.503906 C 407.121094 370.382812 407.410156 370.140625 407.59375 369.773438 C 407.691406 369.347656 407.605469 368.964844 407.332031 368.625 C 400.144531 361.40625 392.1875 355.671875 381.492188 355.171875 C 380.234375 355.113281 378.992188 354.765625 377.742188 354.566406 C 374.570312 354.058594 371.441406 353.996094 368.285156 354.859375 C 360.75 356.894531 353.183594 358.847656 344.898438 361.035156 Z M 375.699219 463.738281 C 375.042969 462.96875 374.71875 462.382812 374.226562 462.042969 C 368.371094 458.121094 363.324219 453.34375 359.082031 447.71875 C 358.191406 446.539062 357.203125 445.453125 356.113281 444.457031 C 350.441406 439.34375 344.464844 434.679688 337.632812 431.117188 C 335.550781 430.035156 333.234375 429.609375 331.269531 428.347656 C 327.820312 426.128906 323.769531 425.640625 319.96875 424.425781 C 319.539062 424.378906 319.175781 424.511719 318.882812 424.824219 C 318.65625 425.066406 318.636719 425.539062 318.617188 425.921875 C 318.644531 426.140625 318.738281 426.320312 318.902344 426.46875 C 324.246094 431.972656 327.246094 439.160156 332.296875 444.933594 C 335.214844 448.265625 337.964844 451.574219 341.414062 454.46875 C 348.421875 460.359375 356.804688 462.253906 365.335938 463.789062 C 368.601562 464.378906 372.042969 464.242188 375.699219 463.738281 Z M 417.191406 554.378906 C 419.164062 554.378906 420.03125 554.5 420.859375 554.378906 C 429.234375 552.972656 437.441406 551.054688 444.832031 546.59375 C 447.730469 544.84375 450.734375 543.246094 453.539062 541.359375 C 455.296875 540.101562 457.257812 539.414062 459.414062 539.292969 C 460.65625 539.226562 462.011719 539.292969 463.023438 538.34375 C 463.222656 538.15625 463.285156 537.414062 463.171875 537.347656 C 461.703125 536.527344 460.21875 535.722656 458.683594 535.023438 C 454.960938 533.332031 451.082031 532.253906 446.957031 533.042969 C 444.058594 533.601562 441.132812 534.179688 438.339844 535.105469 C 425.683594 539.285156 413.488281 544.710938 400.980469 549.300781 C 400.015625 549.660156 398.953125 549.855469 398.375 550.921875 C 398.039062 551.554688 398.039062 551.296875 401.308594 552.390625 C 406.875 554.265625 412.742188 552.945312 417.191406 554.378906 Z M 415.472656 372.945312 C 415.433594 373.652344 415.433594 374.363281 415.472656 375.070312 C 415.5 375.496094 415.644531 375.875 415.902344 376.210938 C 416.082031 376.382812 416.683594 376.347656 416.917969 376.167969 C 418.800781 374.792969 420.765625 373.496094 422.457031 371.910156 C 424.304688 370.152344 426.3125 368.59375 428.472656 367.242188 C 434.414062 363.574219 440.265625 359.75 446.25 356.148438 C 454.792969 351.003906 459.789062 343.53125 461.363281 333.746094 C 461.453125 333.183594 461.117188 332.550781 460.984375 331.949219 C 460.445312 332.152344 459.839844 332.257812 459.375 332.574219 C 454.277344 336.039062 448.84375 338.917969 443.519531 342.007812 C 437.667969 345.394531 431.628906 348.566406 426.453125 353.046875 C 420.117188 358.558594 416.351562 365.394531 415.472656 372.945312 Z M 430.132812 442.359375 C 431.667969 438.714844 433.386719 435.546875 435.789062 432.976562 C 439.867188 428.605469 443.292969 423.746094 447.003906 419.101562 C 452.859375 411.773438 456.246094 403.417969 457.453125 394.191406 C 457.832031 391.265625 457.53125 388.25 457.492188 385.269531 C 457.492188 384.894531 457.15625 384.523438 456.992188 384.152344 C 456.46875 384.457031 455.792969 384.65625 455.449219 385.105469 C 454.945312 385.761719 454.722656 386.628906 454.292969 387.355469 C 451.265625 392.492188 448.039062 397.433594 442.871094 400.796875 C 441.5 401.691406 440.5 403.199219 439.453125 404.519531 C 438.285156 406.023438 437.511719 407.90625 436.140625 409.167969 C 432.488281 412.496094 430.671875 416.613281 429.988281 421.386719 C 429.925781 422.023438 429.796875 422.648438 429.601562 423.257812 C 427.984375 427.5625 428.203125 432.03125 428.335938 436.5 C 428.367188 438.625 428.96875 440.578125 430.132812 442.359375 Z M 463.109375 521.0625 C 463.847656 520.488281 464.460938 520.203125 464.800781 519.730469 C 467.644531 515.746094 471.035156 512.289062 474.964844 509.367188 C 478.175781 506.945312 481.453125 504.628906 484.617188 502.148438 C 487.621094 499.808594 490.542969 497.453125 493.839844 495.480469 C 497.136719 493.507812 499.554688 490.597656 501.546875 487.199219 C 503.917969 483.140625 505.222656 478.65625 507.148438 474.433594 C 507.304688 474.027344 507.347656 473.613281 507.277344 473.183594 C 507.183594 472.800781 507.015625 472.453125 506.78125 472.140625 C 506.566406 472.148438 506.378906 472.214844 506.210938 472.34375 C 501.601562 476.402344 497.074219 480.601562 491.320312 483.011719 C 481.40625 487.167969 474.023438 494.347656 467.835938 502.820312 C 463.972656 508.074219 462.542969 514.207031 463.109375 521.058594 Z M 357.714844 525.210938 C 357.921875 525.253906 358.128906 525.265625 358.335938 525.25 C 365.222656 523.785156 371.742188 521.34375 377.898438 517.929688 C 383.949219 514.546875 388.050781 509.71875 389.742188 502.964844 C 391.070312 497.683594 394.304688 493.46875 397.261719 489.089844 C 398.078125 487.878906 399.683594 487.296875 399.941406 485.664062 C 398.328125 484.863281 396.597656 485.492188 395.234375 485.957031 C 391.050781 487.402344 386.792969 488.914062 383.367188 491.875 C 377.71875 496.753906 372.445312 501.949219 369.449219 509.027344 C 368.460938 511.367188 366.9375 513.382812 365.121094 515.257812 C 362.335938 518.128906 359.851562 521.292969 357.253906 524.34375 C 357.140625 524.503906 357.121094 524.675781 357.1875 524.859375 C 357.296875 525.023438 357.539062 525.101562 357.714844 525.210938 Z M 407.441406 327.628906 C 408.078125 320.414062 409.96875 314.363281 412.136719 308.390625 C 414.589844 301.625 417.117188 294.878906 419.71875 288.15625 C 421.117188 284.546875 422.144531 280.914062 421.867188 276.988281 C 421.378906 270.09375 418.90625 263.828125 415.671875 257.808594 C 415.527344 257.632812 415.34375 257.5625 415.117188 257.597656 C 414.824219 257.757812 414.414062 258 414.359375 258.273438 C 413.746094 261.390625 413.390625 264.574219 412.5625 267.628906 C 411.074219 273.140625 409.988281 278.761719 408.59375 284.308594 C 407.597656 288.253906 408.203125 292.375 406.640625 296.191406 C 405.078125 300.007812 405.285156 304.132812 405.21875 308.128906 C 405.09375 314.390625 405.046875 320.714844 407.441406 327.628906 Z M 444.265625 531 C 443.292969 530.046875 442.125 529.523438 440.765625 529.421875 C 435.625 528.921875 430.714844 529.367188 425.875 531.617188 C 419.242188 534.691406 413.605469 539.234375 407.511719 543.097656 C 407.335938 543.222656 407.195312 543.378906 407.089844 543.570312 C 407.019531 543.691406 406.96875 543.90625 407.035156 544.007812 C 407.15625 544.167969 407.414062 544.394531 407.535156 544.34375 C 410.550781 543.328125 413.695312 542.582031 416.535156 541.210938 C 425.355469 536.964844 434.902344 534.78125 444.265625 531 Z M 403.601562 318.21875 C 403.972656 314.402344 403.261719 311.234375 403.496094 308.167969 C 403.914062 302.933594 403.957031 297.679688 405.1875 292.449219 C 407 284.664062 407.753906 276.640625 410.035156 268.933594 C 410.132812 268.597656 409.867188 268.160156 409.765625 267.765625 C 409.445312 267.96875 409.003906 268.105469 408.832031 268.382812 C 407.011719 271.363281 405.578125 274.519531 404.519531 277.847656 C 403.464844 281.175781 402.816406 284.578125 402.582031 288.0625 C 402.5 289.328125 402.699219 290.648438 402.417969 291.859375 C 400.703125 299.203125 401.601562 306.601562 401.792969 313.988281 C 401.796875 315.296875 402.328125 316.425781 403.601562 318.21875 Z M 410.804688 325.378906 C 412.667969 323.6875 413.246094 321.441406 414.214844 319.4375 C 415.039062 317.730469 415.566406 315.824219 416.605469 314.277344 C 420.558594 308.476562 421.101562 301.59375 422.824219 295.097656 C 423.269531 293.40625 423.261719 291.414062 422.359375 289.089844 C 421.808594 289.863281 421.324219 290.328125 421.09375 290.894531 C 417.242188 300.277344 413.773438 309.789062 411.050781 319.570312 C 410.476562 321.484375 410.394531 323.421875 410.804688 325.378906 Z M 400.609375 491.023438 C 400.949219 490.625 400.949219 490.175781 400.496094 490.007812 C 400.105469 489.914062 399.753906 489.996094 399.449219 490.257812 C 398.238281 491.726562 397.019531 493.207031 395.9375 494.78125 C 394.007812 497.601562 392.78125 500.769531 391.75 504.011719 C 391.554688 504.617188 391.359375 505.265625 391.96875 505.707031 C 392.074219 505.777344 392.695312 505.300781 392.933594 504.972656 C 396.085938 500.664062 398.257812 495.832031 400.609375 491.023438 Z M 484 483.171875 C 490.375 481.570312 494.632812 478.566406 498.925781 475.644531 C 499.097656 475.507812 499.210938 475.332031 499.265625 475.121094 C 499.308594 474.949219 499.277344 474.792969 499.179688 474.644531 C 499.066406 474.496094 498.796875 474.28125 498.703125 474.324219 C 495.492188 475.886719 492.234375 477.371094 489.117188 479.097656 C 487.578125 479.949219 486.316406 481.292969 484 483.171875 Z M 458.589844 478.144531 C 456.65625 482.3125 455.792969 486.0625 457.300781 491.421875 C 457.300781 486.242188 458.910156 482.585938 458.589844 478.144531 Z M 347.53125 367.5625 C 347.144531 366.417969 344.460938 364.074219 342.542969 363.253906 C 342.433594 363.207031 342.183594 363.375 342.058594 363.5 C 341.933594 363.625 341.8125 363.867188 341.867188 363.960938 C 342.953125 365.789062 344.476562 367.117188 346.441406 367.941406 C 346.636719 367.996094 346.828125 367.988281 347.015625 367.90625 C 347.199219 367.8125 347.371094 367.699219 347.53125 367.5625 Z M 347.53125 367.5625 " fill-opacity="1" fill-rule="nonzero"/></g><path fill="#ffffff" d="M 363.148438 512.800781 L 360.980469 516.296875 C 358.949219 516.601562 357.996094 518.394531 356.605469 519.574219 C 355.519531 520.496094 354.625 521.765625 352.929688 521.550781 L 352.847656 521.457031 C 354.96875 518.175781 357.972656 515.75 360.828125 513.179688 C 361.523438 512.554688 362.335938 512.699219 363.148438 512.800781 Z M 363.148438 512.800781 " fill-opacity="1" fill-rule="nonzero"/></svg>