<svg xmlns="http://www.w3.org/2000/svg" xmlns:xlink="http://www.w3.org/1999/xlink" width="1080" zoomAndPan="magnify" viewBox="0 0 810 809.999993" height="1080" preserveAspectRatio="xMidYMid meet" version="1.0"><defs><clipPath id="267d179bb1"><path d="M 243 248.332031 L 567 248.332031 L 567 561.832031 L 243 561.832031 Z M 243 248.332031 " clip-rule="nonzero"/></clipPath></defs><g clip-path="url(#267d179bb1)"><path fill="#000000" d="M 411.03125 264.375 C 418.335938 270.191406 423.695312 276.925781 427.523438 285.285156 C 434.160156 269.683594 443.359375 256.625 458.660156 248.4375 C 459.683594 250.203125 459.765625 251.933594 459.816406 253.609375 C 460.03125 260.683594 459.757812 267.703125 457.6875 274.574219 C 454.058594 286.59375 450.085938 298.46875 443.289062 309.148438 C 440.1875 314.015625 436.625 318.554688 432.328125 322.421875 C 430.488281 324.074219 429.207031 326.085938 428.484375 328.449219 C 426.695312 333.804688 426.097656 339.363281 424.871094 345.847656 C 434.359375 337.734375 443.558594 330.808594 455.65625 328.589844 C 456.726562 333.574219 456.050781 338.207031 454.851562 342.792969 C 449.34375 363.796875 436.261719 378.804688 417.777344 389.453125 C 415.234375 390.917969 413.707031 392.707031 412.777344 395.5 C 410.347656 402.835938 407.617188 410.078125 404.78125 418 C 408.984375 415.332031 412.546875 412.828125 416.324219 410.726562 C 420.835938 408.207031 425.511719 405.921875 430.65625 404.929688 C 433.234375 404.441406 435.613281 403.460938 437.789062 401.992188 C 442.457031 398.859375 447.027344 395.609375 451.242188 391.863281 C 452.6875 390.574219 453.238281 389.257812 453.113281 387.355469 C 452.242188 374.503906 458.34375 364.570312 466.894531 355.949219 C 472.558594 350.234375 478.597656 344.796875 486.714844 342.53125 C 489.082031 341.863281 491.382812 341.171875 493.816406 341.753906 C 495.082031 343.964844 493.515625 345.789062 493.292969 347.699219 C 491.425781 363.625 482.597656 375.328125 470.261719 384.75 C 467.039062 387.214844 463.226562 388.8125 459.34375 389.835938 C 455.828125 390.757812 453.207031 392.757812 450.648438 395.074219 C 449.707031 395.921875 448.730469 396.742188 447.226562 398.039062 C 451.773438 397.8125 455.261719 395.988281 458.972656 395.183594 C 463.472656 394.210938 467.933594 393.085938 472.519531 392.652344 C 474.179688 392.480469 475.773438 392.054688 477.300781 391.378906 C 478.828125 390.707031 480.214844 389.8125 481.460938 388.703125 C 489.929688 381.433594 499.9375 379.078125 510.71875 378.988281 C 512.585938 378.972656 513.855469 378.363281 515.199219 376.988281 C 524.195312 367.847656 534.859375 361.574219 547.523438 358.945312 C 553.914062 357.609375 560.316406 357.417969 567.015625 359.101562 C 565.382812 374.609375 553.960938 382.09375 542.566406 389.96875 C 544.457031 392.570312 547.351562 394.144531 549.15625 397.015625 C 547.066406 401.449219 542.824219 403.382812 538.652344 405.1875 C 527.761719 409.910156 516.492188 410.308594 504.816406 408.519531 C 495.257812 407.0625 487.621094 402.230469 480.316406 396.582031 C 477.929688 394.734375 475.753906 394.304688 472.847656 394.578125 C 464.058594 395.460938 455.691406 398.015625 447.316406 400.582031 C 445.027344 401.277344 442.714844 402.132812 440.316406 404.210938 C 445.945312 404.699219 450.511719 407.046875 455.871094 406.835938 C 458.71875 406.707031 461.558594 406.800781 464.390625 407.117188 C 467.222656 407.4375 470.011719 407.972656 472.761719 408.726562 C 475.507812 409.484375 478.179688 410.449219 480.777344 411.621094 C 483.375 412.796875 485.863281 414.164062 488.246094 415.730469 C 498.199219 422.234375 505.492188 431.261719 509.828125 442.488281 C 510.023438 443.03125 510.167969 443.585938 510.265625 444.152344 C 510.292969 444.441406 510.292969 444.726562 510.265625 445.015625 C 509.84375 446.015625 508.960938 446.523438 508.019531 446.878906 C 499.515625 450.054688 491.070312 449.765625 482.820312 446.085938 C 472.824219 441.617188 464.140625 435.359375 457.425781 426.585938 C 453.988281 422.097656 451.046875 417.300781 449.628906 411.792969 C 448.960938 409.164062 447.527344 408.035156 445 407.492188 C 436.960938 405.753906 429.335938 406.605469 421.964844 410.355469 C 417.339844 412.6875 412.820312 415.121094 408.703125 418.335938 C 404.652344 421.457031 401.53125 425.335938 399.347656 429.960938 C 392.347656 444.703125 383.246094 458.164062 374.199219 471.644531 C 369.421875 478.773438 363.558594 485.097656 357.871094 491.628906 C 358.976562 492.019531 359.714844 491.496094 360.496094 491.1875 C 369.3125 487.683594 378.050781 483.988281 387.269531 481.554688 C 391.074219 480.554688 394.140625 478.011719 397.019531 475.367188 C 398.046875 474.421875 398.261719 473.132812 398.503906 471.855469 C 400.628906 460.660156 406.640625 452.074219 415.996094 445.71875 C 422.941406 440.996094 430.15625 436.898438 438.488281 435.101562 C 442.71875 434.191406 446.941406 433.507812 451.488281 433.890625 C 451.945312 436.78125 450.613281 439.117188 449.445312 441.277344 C 440.359375 458.046875 426.5625 469.132812 408.582031 475.132812 C 406.109375 475.957031 403.582031 476.570312 400.972656 476.546875 C 399.023438 476.523438 397.695312 477.324219 396.226562 478.96875 C 399.769531 479.675781 403.011719 478.910156 406.128906 478.539062 C 414.460938 477.539062 422.761719 477.1875 431.097656 477.96875 C 432.105469 478.074219 433.097656 478.003906 434.078125 477.757812 C 435.058594 477.511719 435.96875 477.105469 436.804688 476.535156 C 446.75 470.007812 457.753906 469.707031 468.847656 471.734375 C 479.796875 473.734375 489.535156 478.734375 497.988281 486.023438 C 501.695312 489.222656 504.765625 493.027344 507.433594 496.824219 C 507.152344 498.390625 506.097656 498.640625 505.230469 499.078125 C 499.871094 501.746094 494.207031 503.242188 488.234375 503.570312 C 480.042969 504.039062 471.808594 503.804688 463.859375 501.316406 C 452.84375 497.871094 442.894531 492.671875 435.773438 483.183594 C 434.367188 481.308594 432.773438 480.394531 430.398438 480.183594 C 418.113281 479.101562 406.03125 480.367188 393.957031 482.585938 C 380.226562 485.109375 367.449219 490.339844 355.179688 496.667969 C 349.285156 499.710938 343.402344 503.195312 337.820312 508.339844 C 344.203125 508.242188 349.792969 509.808594 355.414062 506.535156 C 366.816406 499.890625 379.410156 499.199219 391.863281 501.972656 C 404.390625 504.757812 415.488281 510.867188 424.230469 520.84375 C 423.167969 523.695312 420.832031 525.113281 418.367188 526.234375 C 410.269531 529.976562 401.796875 532.433594 392.949219 533.597656 C 393.085938 535.464844 394.761719 536.421875 395.492188 538.148438 C 394.957031 540.148438 393.492188 541.6875 391.683594 542.914062 C 379.96875 550.769531 367.125 552.960938 353.355469 550.671875 C 344.601562 549.214844 337.191406 544.867188 329.957031 540.097656 C 327.921875 538.765625 325.699219 537.667969 324.101562 535.730469 C 322.5 533.792969 320.542969 533.730469 318.230469 534.25 C 310.96875 535.855469 304.417969 539.015625 298.113281 542.855469 C 293.390625 545.726562 289.492188 549.542969 285.574219 553.347656 C 282.621094 556.214844 279.832031 559.25 276.261719 561.710938 C 276.015625 559.9375 277.125 559.132812 277.984375 558.246094 C 281.296875 554.847656 284.613281 551.441406 288.007812 548.125 C 290.117188 546.066406 291.734375 543.757812 292.546875 540.910156 C 293.011719 539.273438 293.046875 537.660156 291.546875 536.574219 C 286.460938 532.882812 283.933594 527.253906 280.707031 522.203125 C 272.570312 509.492188 271.917969 496.03125 277.425781 482.148438 C 278.871094 478.515625 281.425781 475.519531 283.15625 472.25 C 285.15625 471.6875 285.933594 473.210938 287.015625 474.039062 C 297.535156 482.105469 302.65625 492.886719 303.144531 506.050781 C 303.332031 511.105469 303.246094 516.089844 302.144531 521.054688 C 301.277344 525.027344 299.761719 528.734375 297.59375 532.175781 C 296.078125 534.574219 294.59375 537.03125 295.277344 540.601562 C 297.941406 539.046875 299.609375 536.933594 301.382812 534.996094 C 302.550781 533.722656 303.550781 532.246094 304.894531 531.199219 C 311.917969 525.722656 313.496094 517.769531 314.367188 509.71875 C 315.082031 503.152344 315.074219 496.496094 315.160156 489.875 C 315.320312 477.164062 312.914062 464.984375 307.238281 453.507812 C 306.023438 451.054688 304.765625 449.082031 301.667969 449.027344 C 300.707031 449.027344 299.699219 448.542969 298.820312 448.074219 C 297.21875 447.226562 295.753906 447.269531 293.921875 447.566406 C 286.859375 448.703125 279.730469 448.230469 273.015625 445.898438 C 262.445312 442.214844 252.703125 437.035156 245.835938 427.679688 C 244.722656 426.160156 243.648438 424.675781 243.003906 422.488281 C 252.550781 417.539062 262.710938 417.171875 273.503906 418.203125 C 272.835938 414.933594 272.289062 411.777344 271.503906 408.679688 C 269.902344 402.382812 269.777344 396.179688 272.078125 390.007812 C 273.167969 387.082031 273.519531 386.308594 276.351562 383.1875 C 277.714844 382.917969 278.886719 383.617188 280.019531 384.1875 C 290.796875 389.570312 300.089844 396.832031 306.105469 407.382812 C 309.84375 413.9375 311.398438 421.390625 310.914062 429.027344 C 310.578125 434.488281 309.789062 439.929688 307.765625 445.066406 C 307.070312 446.835938 307.304688 448.230469 308.046875 449.960938 C 311.847656 458.835938 315.316406 467.8125 316.476562 477.527344 C 316.972656 481.664062 316.886719 485.828125 317.273438 490.4375 C 319.65625 488.316406 321.113281 486.265625 321.328125 483.382812 C 321.753906 477.425781 323.21875 471.734375 325.714844 466.3125 C 326.757812 464.203125 327.15625 461.980469 326.917969 459.644531 C 325.355469 444.925781 329.824219 431.835938 337.835938 419.707031 C 341.347656 414.394531 345.078125 409.316406 350.242188 405.441406 C 351.628906 404.308594 353.195312 403.53125 354.9375 403.105469 C 357.269531 414.828125 356.382812 426.46875 354.738281 438.453125 C 360.25 437.226562 365.453125 436.398438 370.699219 437.074219 C 371.796875 438.519531 371.210938 439.949219 370.863281 441.300781 C 367.367188 454.90625 360.902344 466.414062 349.457031 475.261719 C 341.621094 481.324219 333.292969 485.535156 323.738281 487.664062 C 319.742188 488.554688 318.8125 492.183594 317.628906 495.296875 C 316.5 498.257812 316.316406 501.492188 316.5 504.675781 C 316.789062 509.789062 315.773438 514.703125 314.441406 519.589844 C 314.191406 520.507812 313.488281 521.394531 314.015625 522.484375 C 315.21875 522.84375 315.863281 521.890625 316.542969 521.269531 C 322.714844 515.601562 329.613281 510.914062 336.402344 506.050781 C 340.496094 503.113281 345.007812 500.714844 348.8125 497.507812 C 353.066406 493.90625 356.6875 489.507812 360.453125 485.363281 C 371.039062 473.671875 378.984375 460.097656 387.5 446.933594 C 389.605469 443.679688 391.332031 440.171875 393.144531 436.738281 C 395.96875 431.402344 396.144531 427.851562 394.003906 421.65625 C 382.269531 420.792969 375.007812 413.433594 369.007812 404.136719 C 364.515625 397.160156 361.164062 389.722656 359.597656 381.570312 C 358.53125 375.875 358.277344 370.140625 358.839844 364.367188 C 359.113281 361.222656 360.023438 358.273438 361.5625 355.515625 C 366.769531 356.429688 371.449219 358.523438 375.601562 361.792969 C 388.558594 372.007812 396.933594 385.035156 397.976562 402.003906 C 398.214844 405.921875 397.554688 409.816406 396.660156 413.554688 C 395.59375 418.003906 396.882812 421.960938 397.847656 426.863281 C 400.253906 423.101562 401.355469 419.527344 402.820312 416.195312 C 406.210938 408.398438 408.871094 400.332031 411.535156 392.261719 C 411.9375 391.046875 411.773438 390.0625 411.496094 388.925781 C 408.324219 376.175781 411.617188 364.683594 418.671875 354.089844 C 420.933594 350.699219 422.441406 347.003906 423.191406 342.996094 C 423.648438 340.597656 423.722656 338.101562 424.382812 335.769531 C 425.382812 332.300781 424.355469 329.882812 421.261719 328.253906 C 412.492188 323.621094 408.992188 315.25 406.003906 306.578125 C 401.855469 294.523438 403.171875 282.753906 408.054688 271.207031 C 408.941406 269.113281 409.433594 266.835938 411.03125 264.375 Z M 276.773438 385.253906 C 273.542969 390.054688 272.21875 395.207031 272.636719 400.589844 C 273.183594 407.632812 274.671875 414.5 277.777344 420.980469 C 281.039062 427.800781 284.925781 434.140625 290.390625 439.410156 C 293.585938 442.488281 297.117188 445.078125 302.28125 446.375 C 299.429688 437.902344 297.617188 429.796875 293.460938 422.507812 C 291.964844 419.882812 290.578125 417.191406 289.183594 414.503906 C 288.652344 413.480469 288.386719 412.425781 289.945312 411.375 C 292.699219 417.148438 296.238281 422.199219 298.613281 427.886719 C 300.945312 433.511719 302.179688 439.554688 304.96875 445.394531 C 315.507812 419.707031 303.550781 396.507812 276.773438 385.253906 Z M 325.667969 532.472656 C 325.410156 534.023438 326.4375 534.710938 327.226562 535.289062 C 330.011719 537.324219 332.816406 539.339844 335.742188 541.164062 C 340.761719 544.292969 346.050781 546.796875 351.890625 548.136719 C 361.726562 550.390625 371.347656 549.613281 380.753906 546.277344 C 385.183594 544.703125 389.398438 542.558594 392.453125 538.792969 C 377.886719 518.589844 341.515625 514.527344 326.132812 530.140625 C 330.574219 531.734375 335.085938 532.371094 339.542969 533.257812 C 347.460938 534.828125 355.558594 534.875 363.507812 536.136719 C 364.367188 536.273438 365.53125 535.988281 366.191406 537.914062 C 352.460938 537.757812 338.953125 535.941406 325.667969 532.472656 Z M 481.019531 393.777344 C 500.316406 414.09375 535.339844 409.113281 546.003906 397.585938 C 531.789062 379.058594 497.09375 375.136719 482.015625 391.707031 C 488.71875 394.039062 495.925781 392.789062 502.605469 394.871094 C 502.273438 395.621094 501.851562 395.722656 501.441406 395.71875 C 494.84375 395.675781 488.347656 394.652344 481.019531 393.777344 Z M 393.453125 416.492188 C 402.9375 390.621094 379.242188 359.847656 362.855469 358.636719 C 361.238281 362.105469 360.617188 368.078125 360.945312 373.8125 C 361.570312 384.917969 365.808594 394.753906 371.691406 403.914062 C 375.199219 409.382812 379.554688 414.214844 385.574219 417.148438 C 387.148438 417.917969 388.761719 418.953125 390.933594 418.265625 C 389.851562 415.183594 388.382812 412.300781 386.523438 409.617188 C 382 403.28125 378.308594 396.464844 375.023438 389.433594 C 372.832031 384.765625 370.761719 379.996094 369.734375 374.882812 C 369.507812 373.742188 369.277344 372.488281 371.398438 372.515625 C 375.121094 388.859375 384.789062 402.300781 393.453125 416.492188 Z M 472.484375 489.601562 C 472.441406 489.898438 472.402344 490.195312 472.367188 490.496094 C 469.542969 490.730469 466.773438 490.21875 464.035156 489.589844 C 455.875 487.730469 447.9375 485.234375 440.441406 481.449219 C 439.742188 481.097656 438.90625 480.542969 438.214844 481.550781 C 446.277344 498.566406 488.683594 508.359375 503.894531 496.695312 C 503.726562 496.300781 503.519531 495.925781 503.277344 495.570312 C 489.320312 479.011719 471.894531 470.832031 450.011719 473.835938 C 446.011719 474.386719 441.785156 474.933594 438.347656 478.449219 C 444.117188 480.753906 449.300781 483.558594 454.976562 485.136719 C 460.789062 486.742188 466.652344 488.121094 472.484375 489.601562 Z M 421.394531 521.453125 C 402.105469 500.234375 369.835938 498.15625 353.152344 510.570312 C 368.816406 516.699219 384.859375 518.722656 401.675781 517.207031 C 400.894531 519.058594 399.675781 518.875 398.609375 519.027344 C 385.382812 520.746094 372.519531 518.855469 359.847656 515.109375 C 358.386719 514.675781 357 513.917969 355.070312 514.417969 C 357.03125 516.324219 358.472656 518.632812 361.03125 518.886719 C 370.183594 519.796875 378.234375 523.433594 385.558594 528.695312 C 389.035156 531.199219 392.625 531.484375 396.554688 530.9375 C 403.160156 530.023438 409.449219 528.007812 415.550781 525.417969 C 417.628906 524.535156 419.785156 523.636719 421.394531 521.453125 Z M 453.753906 331.875 C 453.1875 331.710938 452.898438 331.539062 452.660156 331.578125 C 451.953125 331.710938 451.265625 331.894531 450.585938 332.132812 C 437.867188 336.6875 427.59375 344.457031 420.09375 355.722656 C 415.09375 363.207031 412.292969 371.394531 412.628906 380.503906 C 412.660156 381.449219 412.570312 382.417969 413.433594 383.234375 C 420.574219 370.132812 432.179688 354.320312 436.332031 352.007812 C 436.210938 353.777344 434.851562 354.757812 433.875 355.957031 C 427.964844 363.21875 422.507812 370.796875 418.035156 379.039062 C 416.625 381.636719 415.183594 384.285156 415.316406 387.460938 C 417.109375 387.957031 418.222656 386.910156 419.429688 386.230469 C 422.574219 384.453125 425.328125 382.15625 428.09375 379.867188 C 440.445312 369.691406 449.035156 357.101562 453 341.484375 C 453.863281 338.328125 454.113281 335.125 453.753906 331.875 Z M 493.144531 438.96875 C 492.066406 440.054688 491.347656 439.664062 490.761719 439.355469 C 482.382812 434.917969 473.964844 430.53125 466.84375 424.128906 C 462.667969 420.375 458.714844 416.371094 454.21875 412.980469 C 453.742188 412.621094 453.363281 411.671875 452.492188 412.574219 C 452.492188 414.507812 453.46875 416.105469 454.316406 417.765625 C 456.648438 422.3125 459.839844 426.222656 463.351562 429.835938 C 471.015625 437.703125 479.914062 443.636719 490.679688 446.425781 C 496.59375 447.957031 502.238281 446.84375 508.144531 444.800781 C 503.144531 431.90625 495.105469 421.953125 483.378906 415.527344 C 473.191406 409.945312 459.382812 407.730469 454.050781 410.117188 C 460.898438 414.914062 466.105469 421.148438 472.535156 425.96875 C 478.964844 430.785156 486.167969 434.660156 493.144531 438.96875 Z M 324.910156 484.652344 C 347 481.425781 368.855469 456.246094 368.175781 439.144531 C 346.046875 436.78125 322.445312 464.699219 324.238281 481.449219 C 328.382812 477.035156 331.382812 471.90625 335.695312 467.890625 C 340.007812 463.871094 343.53125 459.039062 349.164062 456.601562 C 340.894531 465.582031 331.53125 473.558594 324.910156 484.660156 Z M 288.34375 495.566406 C 288.675781 499.757812 289.285156 503.832031 289.921875 507.902344 C 290.589844 512.167969 291.277344 516.429688 292.046875 520.675781 C 292.757812 524.628906 292.277344 528.832031 294.238281 532.796875 C 307.191406 515.90625 301.695312 484.328125 284.4375 475.058594 C 284.105469 475.28125 283.640625 475.445312 283.4375 475.773438 C 274.914062 489.03125 273.582031 502.84375 280.699219 517.085938 C 282.9375 521.574219 285.792969 525.757812 288.425781 530.042969 C 288.910156 530.828125 289.425781 531.785156 291 531.773438 C 291.050781 527.4375 290.035156 523.265625 289.496094 519.066406 C 288.675781 512.652344 287.710938 506.253906 286.949219 499.832031 C 286.777344 498.414062 286.21875 496.703125 288.34375 495.566406 Z M 416.164062 294.675781 C 419.285156 298.410156 417.832031 302.234375 418.890625 305.445312 C 420 308.835938 420.152344 312.488281 421.835938 315.765625 C 423.425781 318.871094 424.078125 322.433594 426.417969 325.382812 C 434.875 308.234375 427 278.285156 411.773438 268.390625 C 411.441406 268.804688 410.914062 269.171875 410.738281 269.660156 C 409.914062 271.960938 409.203125 274.300781 408.40625 276.613281 C 403.300781 291.59375 406.03125 305.496094 414.058594 318.734375 C 416.222656 322.300781 419.582031 324.269531 423.78125 326.84375 C 421.546875 321.046875 419.34375 316.25 417.875 311.234375 C 416.40625 306.21875 415.820312 300.964844 416.164062 294.675781 Z M 448.738281 266.816406 C 449.789062 267.816406 449.574219 268.484375 449.355469 269.183594 C 446.125 279.238281 441.335938 288.554688 435.867188 297.546875 C 433.632812 301.214844 431.332031 304.710938 432.230469 309.492188 C 432.664062 311.789062 431.777344 314.328125 431.515625 316.757812 C 431.417969 317.679688 430.675781 318.671875 431.746094 319.5 C 443.359375 312.09375 462.355469 267.535156 456.96875 252.332031 C 455.382812 252.332031 454.402344 253.519531 453.273438 254.332031 C 443.503906 261.449219 436.695312 270.828125 431.457031 281.675781 C 428.519531 287.757812 429.6875 293.183594 431.769531 299.378906 C 436.226562 294.496094 438.074219 288.652344 441.132812 283.535156 C 444.265625 278.304688 445.285156 272.082031 448.738281 266.816406 Z M 448.59375 436.398438 C 444.929688 435.730469 441.46875 436.765625 438.078125 437.613281 C 428.28125 440.078125 419.933594 445.230469 412.292969 451.75 C 406.847656 456.402344 403.542969 462.285156 401.40625 468.953125 C 401.148438 469.761719 400.464844 470.804688 401.804688 471.785156 C 406.5625 466.78125 412.261719 462.84375 417.652344 458.558594 C 422.9375 454.363281 428.027344 449.8125 434.558594 446.257812 C 434.445312 448.34375 433.441406 448.90625 432.558594 449.558594 C 429.679688 451.699219 426.789062 453.832031 423.929688 456 C 418.4375 460.179688 413.476562 465.003906 407.851562 469.039062 C 406.214844 470.214844 404.421875 471.53125 403.765625 473.824219 C 422.328125 470.863281 443.515625 453.070312 448.59375 436.402344 Z M 475.507812 362.039062 C 470.988281 371.023438 463.769531 378.191406 458.6875 387.195312 C 472.929688 385.125 490.90625 364.65625 491.128906 344.160156 C 488.152344 344.785156 485.261719 345.121094 482.492188 346.585938 C 474.1875 350.984375 467.597656 357.257812 462.113281 364.746094 C 459.300781 368.585938 457.136719 372.839844 456.074219 377.53125 C 455.441406 380.351562 454.722656 383.238281 456.039062 386.511719 C 459.402344 382.058594 462.515625 377.96875 465.585938 373.84375 C 468.660156 369.714844 471.394531 365.324219 475.507812 362.042969 Z M 531.007812 383.292969 C 533.210938 384.460938 534.980469 385.144531 536.449219 386.238281 C 538.730469 387.929688 540.84375 387.667969 543.273438 386.609375 C 547.742188 384.667969 551.054688 381.230469 554.640625 378.152344 C 558.527344 374.820312 561.265625 370.625 563.332031 365.96875 C 564.023438 364.398438 564.574219 362.820312 564.167969 361.144531 C 548.050781 357.097656 523.527344 368.746094 516.84375 379.1875 C 519.644531 379.585938 522.359375 380.117188 524.765625 381.335938 C 527.285156 382.613281 529.097656 381.816406 531.015625 380.273438 C 536.746094 375.679688 543.015625 371.878906 549.195312 367.9375 C 550.246094 367.269531 551.238281 366.367188 553.546875 366.804688 C 549.363281 369.621094 545.671875 371.984375 542.113281 374.539062 C 538.449219 377.191406 534.363281 379.363281 531.007812 383.292969 Z M 340.640625 446.457031 C 343.914062 444.566406 346.433594 442.898438 349.136719 441.605469 C 351.640625 440.40625 352.652344 438.484375 353.054688 435.910156 C 354.476562 426.902344 354.726562 417.863281 353.804688 408.789062 C 353.71875 407.949219 353.746094 407.007812 352.652344 406.707031 C 337.378906 416.5625 324.917969 444.980469 329.382812 459.394531 C 332.066406 456.273438 334.691406 453.253906 337.257812 450.1875 C 337.609375 449.722656 337.792969 449.195312 337.8125 448.609375 C 337.980469 444.832031 339.285156 441.273438 340.078125 437.644531 C 341.199219 432.710938 342.808594 427.941406 344.90625 423.339844 C 345.4375 422.144531 345.835938 420.746094 348.359375 420.480469 C 344.203125 428.820312 342.332031 437.167969 340.640625 446.457031 Z M 283.058594 434.878906 C 280.492188 431.410156 278.320312 427.714844 276.539062 423.789062 C 275.511719 421.585938 273.695312 420.660156 271.472656 420.277344 C 263.804688 418.941406 256.308594 419.742188 248.917969 421.964844 C 247.855469 422.300781 246.617188 422.441406 246.09375 423.695312 C 254.378906 438.800781 279.417969 448.5 292.933594 445.234375 C 290.359375 442.8125 287.878906 440.492188 285.417969 438.144531 C 284.855469 437.609375 284.234375 437.542969 283.492188 437.476562 C 277.359375 436.855469 272.039062 433.953125 266.636719 431.308594 C 265.9375 430.976562 264.886719 430.691406 265.730469 428.957031 C 271.359375 430.3125 276.101562 434.746094 283.058594 434.878906 Z M 354.785156 518.324219 C 350.140625 511.386719 350.140625 511.390625 342.992188 510.691406 C 342.707031 510.664062 342.421875 510.59375 342.136719 510.585938 C 337.613281 510.492188 333.308594 511.089844 329.472656 513.851562 C 321.664062 519.46875 314.421875 525.78125 307.164062 532.066406 C 305.714844 533.320312 304.570312 534.929688 302.933594 536.765625 C 303.933594 536.605469 304.351562 536.617188 304.710938 536.464844 C 309.621094 534.402344 314.542969 532.398438 319.851562 531.566406 C 321.316406 531.285156 322.554688 530.59375 323.5625 529.496094 C 329.457031 523.53125 336.773438 520.539062 344.871094 519.042969 C 347.976562 518.472656 351.117188 518.621094 354.785156 518.324219 Z M 354.785156 518.324219 " fill-opacity="1" fill-rule="nonzero"/></g></svg>