<svg xmlns="http://www.w3.org/2000/svg" xmlns:xlink="http://www.w3.org/1999/xlink" width="1080" zoomAndPan="magnify" viewBox="0 0 810 809.999993" height="1080" preserveAspectRatio="xMidYMid meet" version="1.0"><defs><clipPath id="5b2711f4ad"><path d="M 303.382812 247.023438 L 513.382812 247.023438 L 513.382812 571 L 303.382812 571 Z M 303.382812 247.023438 " clip-rule="nonzero"/></clipPath></defs><g clip-path="url(#5b2711f4ad)"><path fill="#000000" d="M 508.789062 481.203125 C 508.789062 482.777344 508.167969 484.050781 507.101562 485.191406 C 499.269531 493.558594 491.472656 501.921875 482.027344 508.578125 C 476.28125 512.621094 471.464844 517.714844 466.867188 523.011719 C 466.039062 523.964844 465.480469 525.148438 464.703125 526.148438 C 463.460938 527.738281 463.773438 529.21875 464.652344 530.863281 C 466.15625 533.683594 468.371094 536.058594 469.835938 538.820312 C 471.546875 542 473.453125 545.054688 475.550781 547.988281 C 479.679688 553.890625 483.835938 559.792969 488.773438 565.066406 C 490.117188 566.457031 491.125 568.058594 491.796875 569.867188 C 491.855469 569.964844 491.886719 570.070312 491.890625 570.183594 C 491.894531 570.296875 491.875 570.40625 491.824219 570.507812 C 491.777344 570.609375 491.707031 570.695312 491.613281 570.761719 C 491.523438 570.828125 491.421875 570.867188 491.308594 570.882812 C 490.953125 570.964844 490.371094 570.984375 490.195312 570.777344 C 486.511719 566.398438 482.839844 562.015625 479.246094 557.578125 C 475.363281 552.792969 471.773438 547.800781 468.476562 542.59375 C 467.464844 541.003906 466.789062 540.941406 464.695312 541.578125 C 462.453125 542.253906 460.328125 543.191406 458.320312 544.394531 C 451.179688 548.609375 443.804688 552.265625 435.539062 553.808594 C 432.632812 554.351562 429.839844 555.503906 426.9375 556.027344 C 420.882812 557.148438 414.847656 557.574219 408.636719 556.550781 C 404.894531 555.9375 401.125 555.292969 397.355469 554.753906 C 396.082031 554.578125 394.875 554.191406 393.734375 553.597656 C 392.59375 553.003906 391.585938 552.234375 390.710938 551.292969 C 390.097656 550.652344 390.210938 549.53125 391.050781 549.234375 C 399.808594 546.226562 406.957031 540.4375 414.695312 535.652344 C 418.824219 533.101562 422.714844 530.109375 427.507812 528.707031 C 429.15625 528.226562 430.761719 527.710938 432.464844 527.714844 C 437.332031 527.714844 442.195312 527.601562 446.96875 529.039062 C 450.597656 530.136719 454.339844 530.875 458.042969 531.726562 C 458.460938 531.8125 458.847656 531.738281 459.203125 531.496094 C 459.910156 530.925781 459.304688 530.421875 458.949219 529.976562 C 454.957031 524.988281 450.441406 520.5 445.855469 516.066406 C 442.652344 512.980469 439.28125 510.0625 436.105469 506.949219 C 431.097656 501.988281 425.429688 497.859375 419.699219 493.828125 C 416.394531 491.507812 413.105469 489.1875 410.011719 486.59375 C 408.660156 485.46875 407.15625 485.578125 406.042969 486.863281 C 405.03125 487.953125 404.144531 489.136719 403.378906 490.414062 C 401.402344 493.925781 399.433594 497.453125 397.6875 501.078125 C 395.148438 506.355469 391.679688 510.792969 386.898438 514.195312 C 384.136719 516.164062 381.992188 518.933594 378.824219 520.375 C 375.351562 521.953125 371.980469 523.785156 368.421875 525.113281 C 361.484375 527.742188 354.257812 529.402344 347.015625 530.988281 C 344.554688 531.523438 342.488281 530.6875 340.386719 529.75 C 340.25 529.691406 340.335938 529.023438 340.402344 528.652344 C 340.472656 528.4375 340.609375 528.28125 340.816406 528.1875 C 344.71875 526.496094 348.195312 524.101562 351.558594 521.527344 C 351.828125 521.316406 352.371094 521.464844 352.792969 521.445312 L 352.875 521.539062 C 352.574219 522.054688 352.378906 522.683594 351.957031 523.0625 C 350.558594 524.324219 349.085938 525.5 347.628906 526.695312 C 347.144531 527.09375 347.101562 527.40625 347.609375 527.542969 C 347.996094 527.644531 348.511719 527.777344 348.808594 527.609375 C 353.386719 525.019531 357.523438 521.902344 360.507812 517.472656 C 360.695312 517.09375 360.832031 516.699219 360.914062 516.285156 L 363.082031 512.792969 C 362.972656 511.535156 362.667969 510.246094 363.625 509.148438 C 368.636719 503.394531 373.269531 497.300781 378.902344 492.058594 C 382.839844 488.378906 387.378906 485.734375 392.511719 484.113281 C 395.292969 483.21875 398.078125 482.335938 401.25 481.324219 C 397.054688 477.765625 392.695312 475.1875 388.199219 472.816406 C 385.207031 471.234375 382.390625 469.285156 378.917969 468.753906 C 377.882812 468.601562 376.945312 468.3125 375.828125 468.527344 C 370.980469 469.511719 366.140625 469.464844 361.308594 468.375 C 360.691406 468.222656 360.058594 468.140625 359.421875 468.128906 C 352.773438 468.109375 347.183594 465.289062 341.75 461.78125 C 335.96875 458.078125 331.050781 453.453125 326.996094 447.90625 C 323.859375 443.613281 320.632812 439.398438 318.046875 434.75 C 315.144531 429.519531 310.992188 425.203125 307.410156 420.464844 C 306.773438 419.617188 305.925781 418.917969 305.34375 418.039062 C 304.644531 416.988281 304.058594 415.875 303.585938 414.699219 C 303.371094 414.160156 306.167969 413.773438 307.753906 414.253906 C 308.363281 414.433594 308.957031 414.660156 309.53125 414.929688 C 322.003906 420.816406 334.773438 426.128906 346.714844 433.03125 C 353.863281 437.152344 360.785156 441.742188 366.179688 448.261719 C 369.15625 451.855469 372.363281 455.253906 375.425781 458.78125 C 378.992188 462.878906 383.007812 466.546875 388.085938 469.148438 C 397.746094 474.109375 406.84375 479.945312 415.382812 486.660156 C 417.722656 488.496094 420.015625 490.40625 422.480469 492.074219 C 433.457031 499.492188 442.835938 508.742188 452.230469 517.964844 C 452.832031 518.550781 453.476562 519.09375 454.09375 519.65625 C 454.769531 519.03125 454.457031 518.441406 454.167969 517.871094 C 452.226562 514.09375 450.371094 510.265625 448.300781 506.558594 C 446.347656 503.027344 444.589844 499.402344 443.035156 495.679688 C 440.890625 490.601562 438.441406 485.648438 436.214844 480.59375 C 433.992188 475.542969 431.773438 470.480469 430.378906 465.105469 C 430.0625 463.90625 429.335938 462.648438 427.617188 463.535156 C 424.128906 462.703125 420.664062 461.75 417.136719 461.066406 C 407.582031 459.210938 398.988281 455.125 391.335938 449.304688 C 385.527344 444.859375 380.738281 439.496094 376.972656 433.21875 C 375.652344 431.039062 374.4375 428.820312 373.1875 426.582031 C 372.453125 425.289062 371.546875 424.050781 371.058594 422.667969 C 368.71875 416.054688 365.734375 409.742188 362.453125 403.558594 C 361.917969 402.542969 362.792969 401.445312 363.910156 401.460938 C 365.898438 401.503906 367.667969 402.144531 369.222656 403.390625 C 374.96875 407.863281 381.429688 411.035156 387.839844 414.339844 C 391.851562 416.402344 395.011719 419.617188 398.386719 422.492188 C 406.421875 429.332031 412.3125 437.875 417.238281 447.128906 C 418.632812 449.742188 420.28125 452.207031 421.714844 454.8125 C 422.5625 456.355469 423.773438 457.5 425.113281 458.554688 C 426.457031 459.609375 427.585938 459.949219 427.777344 459.355469 C 428.070312 458.441406 427.464844 457.773438 427.242188 456.988281 C 424.8125 448.433594 422.363281 439.878906 419.980469 431.308594 C 418.289062 425.171875 416.878906 418.972656 416.28125 412.605469 C 416.066406 410.292969 415.488281 408.015625 415.070312 405.726562 C 414.011719 399.886719 412.875 394.058594 412.726562 388.09375 C 412.703125 387.25 412.675781 386.332031 412.34375 385.585938 C 411.269531 383.148438 411.390625 380.609375 411.410156 378.058594 C 411.429688 376.027344 411.390625 376.046875 408.839844 375.484375 C 408.234375 375.3125 407.636719 375.109375 407.050781 374.875 C 404.203125 373.921875 401.4375 373.8125 398.355469 374.199219 C 393.507812 374.808594 388.703125 375.390625 383.992188 376.75 C 382.792969 377.085938 381.476562 377.085938 380.207031 377.136719 C 375.957031 377.25 371.707031 377.214844 367.460938 377.398438 C 365.222656 377.492188 363.015625 377.289062 360.835938 376.785156 C 358.65625 376.28125 356.582031 375.496094 354.613281 374.429688 C 351.433594 372.757812 348.121094 371.332031 344.851562 369.828125 C 340.457031 367.796875 338.679688 363.570312 336.417969 359.78125 C 336 359.078125 336.71875 358.199219 337.386719 357.609375 C 338.242188 356.851562 339.273438 356.738281 340.351562 356.699219 C 350.382812 356.378906 360.105469 354.242188 369.65625 351.359375 C 375.121094 349.710938 380.417969 349.585938 385.902344 351.207031 C 389.15625 352.167969 392.507812 352.847656 395.546875 354.382812 C 400.171875 356.695312 404.144531 359.832031 407.464844 363.792969 C 408.152344 364.582031 408.902344 365.304688 409.714844 365.964844 C 409.988281 366.1875 410.464844 366.195312 410.851562 366.214844 C 410.933594 366.214844 411.089844 365.875 411.121094 365.664062 C 411.191406 365.246094 411.21875 364.828125 411.195312 364.402344 C 410.449219 356.164062 409.652344 347.929688 408.964844 339.699219 C 408.800781 337.710938 408.0625 336 407.128906 334.324219 C 405.996094 332.292969 404.894531 330.214844 403.652344 328.230469 C 400.140625 322.652344 398.917969 316.449219 398.832031 310.007812 C 398.742188 304.488281 398.578125 298.945312 399.726562 293.480469 C 399.890625 292.425781 399.9375 291.367188 399.875 290.304688 C 399.820312 281.574219 402.453125 273.550781 406.613281 266.046875 C 409.195312 261.386719 411.699219 256.757812 412.960938 251.539062 C 413.257812 250.511719 413.667969 249.535156 414.195312 248.609375 C 414.464844 248.097656 414.871094 247.488281 415.367188 247.296875 C 416.042969 247.042969 416.476562 247.671875 416.71875 248.269531 C 417.890625 251.226562 419.191406 254.148438 420.164062 257.175781 C 421.132812 260.199219 421.761719 263.324219 422.527344 266.40625 C 423.675781 270.949219 424.535156 275.515625 424.390625 280.246094 C 424.265625 284.28125 424.515625 288.332031 424.332031 292.363281 C 423.992188 299.625 422.640625 306.640625 419.199219 313.1875 C 416.53125 318.246094 413.992188 323.378906 412.398438 328.9375 C 411.859375 330.808594 411.328125 332.625 411.410156 334.535156 C 411.664062 340.628906 411.375 346.765625 412.621094 352.8125 C 413.003906 354.671875 412.914062 356.621094 413.074219 358.53125 C 413.148438 359.585938 413.285156 360.632812 413.488281 361.667969 C 413.632812 362.085938 413.90625 362.375 414.3125 362.539062 C 414.699219 362.566406 415.003906 362.421875 415.230469 362.109375 C 417.648438 356.964844 421.941406 353.382812 425.765625 349.421875 C 427.257812 347.875 429.074219 346.785156 430.929688 345.726562 C 439.21875 340.988281 447.488281 336.222656 455.734375 331.425781 C 459.054688 329.480469 462.074219 327.148438 464.796875 324.425781 C 465.65625 323.566406 466.824219 324.023438 467.0625 325.316406 C 467.261719 326.332031 467.574219 327.46875 467.355469 328.441406 C 466.148438 333.804688 465.113281 339.238281 461.460938 343.695312 C 460.40625 344.984375 459.628906 346.550781 458.917969 348.09375 C 456.4375 353.441406 452.675781 357.621094 447.871094 360.984375 C 442.121094 365.011719 436.054688 368.496094 429.953125 371.917969 C 427.367188 373.371094 424.742188 374.765625 422.121094 376.15625 C 419.398438 377.59375 418.714844 380.949219 416.105469 382.515625 C 415.359375 382.964844 415.167969 383.871094 415.242188 384.78125 C 415.519531 388.164062 415.363281 391.5 416.203125 394.894531 C 417.273438 399.195312 417.375 403.722656 418.09375 408.121094 C 419.355469 415.847656 420.570312 423.589844 422.949219 431.082031 C 423.003906 431.25 423.226562 431.382812 423.394531 431.496094 C 423.730469 431.722656 424.007812 431.539062 424.164062 430.976562 C 424.222656 430.773438 424.210938 430.554688 424.246094 430.347656 C 425.3125 424.0625 426.921875 417.921875 429.070312 411.917969 C 430.53125 407.835938 432.902344 404.367188 435.058594 400.730469 C 435.628906 399.816406 436.351562 399.039062 437.222656 398.402344 C 443.902344 393.390625 449.609375 387.429688 454.628906 380.769531 C 455.300781 379.953125 456.070312 379.242188 456.941406 378.636719 C 457.140625 378.484375 457.84375 378.636719 458.042969 378.898438 C 459.125 380.230469 459.929688 381.746094 459.992188 383.496094 C 460.15625 387.953125 460.582031 392.421875 460.007812 396.875 C 459.457031 401.148438 457.429688 404.933594 455.691406 408.773438 C 454.382812 411.691406 452.804688 414.457031 450.960938 417.066406 C 446.757812 422.9375 442.714844 428.910156 438.050781 434.46875 C 433.320312 440.101562 430.328125 446.636719 430.691406 454.316406 C 430.789062 456.21875 431.125 458.082031 431.707031 459.898438 C 433.914062 466.980469 436.332031 473.980469 439.050781 480.882812 C 439.769531 482.878906 440.691406 484.777344 441.816406 486.578125 C 442.976562 488.367188 443.898438 490.273438 444.585938 492.289062 C 445.9375 496.132812 447.808594 499.691406 449.746094 503.238281 C 451.683594 506.785156 453.515625 510.367188 455.492188 513.878906 C 456.3125 515.339844 456.59375 517.242188 458.46875 517.941406 C 459.125 516.109375 457.84375 514.675781 457.417969 513.085938 C 455.910156 507.539062 454.671875 501.96875 454.765625 496.164062 C 454.824219 492.546875 454.621094 488.917969 454.855469 485.316406 C 455.191406 480.023438 455.777344 474.746094 456.367188 469.476562 C 456.507812 468.238281 457.042969 467.019531 457.496094 465.839844 C 460.457031 458.351562 463.4375 450.871094 466.433594 443.398438 C 467.699219 440.242188 469.019531 437.113281 470.394531 434.019531 C 470.683594 433.445312 471.136719 433.058594 471.746094 432.855469 C 472.578125 432.621094 472.71875 433.46875 472.761719 434.027344 C 473.078125 439.371094 474.734375 444.386719 476.332031 449.449219 C 477.996094 454.703125 479.273438 460.082031 479.097656 465.691406 C 479.058594 466.964844 479.097656 468.277344 478.792969 469.496094 C 478.003906 472.636719 478.042969 475.828125 478.039062 479.011719 C 478.039062 480.347656 477.105469 482.246094 478.898438 482.914062 C 480.167969 483.386719 481.015625 481.757812 482.058594 481.085938 C 483.105469 480.410156 484.25 479.75 485.175781 478.898438 C 487.882812 476.414062 491.050781 474.734375 494.304688 473.144531 C 498.125 471.292969 502.082031 469.640625 505.1875 466.636719 C 506.902344 464.972656 509.171875 465.402344 511.078125 464.566406 C 512.207031 464.070312 512.496094 465.082031 512.980469 465.703125 C 513.117188 465.875 513.195312 466.070312 513.214844 466.289062 C 513.382812 471.199219 513.148438 476.007812 509.59375 479.925781 C 509.878906 478.503906 510.050781 477.050781 510.476562 475.667969 C 511.199219 473.324219 511.492188 471.035156 510.382812 467.710938 C 509.4375 471.894531 508.835938 475.15625 507.492188 478.203125 C 507.195312 479.003906 507.144531 479.824219 507.328125 480.660156 C 507.429688 481.316406 508.132812 481.484375 508.789062 481.203125 Z M 401.394531 437.28125 C 398.960938 436.507812 397.988281 434.203125 396.566406 432.453125 C 393.761719 429 391.300781 425.273438 388.515625 421.808594 C 386.507812 419.332031 384.234375 417.121094 381.703125 415.183594 C 379.171875 413.246094 376.445312 411.628906 373.53125 410.335938 C 372.464844 409.851562 371.082031 408.605469 370.054688 409.597656 C 368.566406 411.042969 370.527344 412.207031 371.097656 413.351562 C 372.707031 416.570312 374.730469 419.582031 376.316406 422.804688 C 379.699219 429.695312 384.398438 435.710938 388.894531 441.847656 C 390.511719 444.117188 392.476562 446.027344 394.789062 447.578125 C 400.296875 451.109375 405.816406 454.6875 412.117188 456.761719 C 413.917969 457.351562 415.722656 457.941406 417.550781 458.453125 C 417.886719 458.550781 418.332031 458.3125 419.03125 458.164062 C 418.105469 457.148438 417.316406 456.242188 416.457031 455.390625 C 413.144531 452.105469 409.675781 448.960938 406.53125 445.527344 C 404.289062 443.078125 401.96875 440.546875 401.226562 437.09375 C 402.1875 437.050781 402.753906 437.675781 403.300781 438.328125 C 406.425781 442.050781 409.363281 445.960938 413.058594 449.179688 C 414.304688 450.265625 415.089844 451.933594 416.914062 452.308594 C 417.589844 450.214844 416.035156 448.820312 415.191406 447.316406 C 411.777344 441.222656 408.300781 435.152344 403.082031 430.328125 C 402.15625 429.46875 401.5 428.332031 400.664062 427.378906 C 397.5625 423.863281 393.773438 421.160156 389.996094 418.449219 C 389.902344 418.382812 389.601562 418.507812 389.46875 418.625 C 389.34375 418.753906 389.304688 418.90625 389.351562 419.078125 C 389.660156 419.632812 390 420.171875 390.367188 420.691406 C 393.085938 424.476562 395.71875 428.328125 398.972656 431.703125 C 400.433594 433.21875 401.953125 434.832031 401.394531 437.28125 Z M 463.722656 462.132812 C 463.722656 460.441406 464.191406 458.671875 463.132812 456.3125 C 460.429688 462.230469 458.816406 468.4375 458.296875 474.925781 C 458.296875 475.054688 458.632812 475.351562 458.703125 475.320312 C 459.0625 475.195312 459.617188 475.035156 459.683594 474.777344 C 459.871094 473.976562 459.972656 473.167969 459.988281 472.351562 C 460.109375 469.742188 460.90625 467.441406 462.941406 465.6875 C 462.550781 467.976562 462.402344 470.273438 461.738281 472.554688 C 460.910156 475.609375 460.394531 478.71875 460.199219 481.875 C 459.480469 490.984375 460.082031 500.085938 460.332031 509.359375 C 461.515625 508.34375 462.003906 507.253906 462.390625 506.050781 C 462.832031 504.644531 463.351562 503.269531 463.949219 501.921875 C 466.210938 496.824219 469.324219 492.3125 473.277344 488.382812 C 473.816406 487.875 474.246094 487.28125 474.558594 486.605469 C 474.867188 485.929688 475.042969 485.222656 475.082031 484.480469 C 475.816406 474.910156 475.25 465.417969 473.375 456.007812 C 472.640625 452.285156 472.023438 448.515625 471.347656 444.773438 C 471.273438 444.359375 471.300781 443.890625 471.113281 443.539062 C 470.933594 443.167969 470.640625 442.933594 470.242188 442.828125 C 469.964844 442.8125 469.402344 443.242188 469.398438 443.476562 C 469.375 446.308594 468.15625 448.824219 467.371094 451.441406 C 466.445312 454.488281 465.230469 457.40625 464.746094 460.578125 C 464.628906 461.113281 464.066406 461.609375 463.722656 462.132812 Z M 344.855469 361.035156 C 347.277344 363.316406 349 365.210938 350.992188 366.753906 C 357.367188 371.679688 364.539062 374.71875 372.6875 374.253906 C 377.105469 374 381.5 373.203125 385.957031 373.238281 C 386.597656 373.21875 387.214844 373.105469 387.820312 372.902344 C 393.535156 371.109375 399.382812 370.351562 405.367188 370.632812 C 405.792969 370.675781 406.207031 370.632812 406.617188 370.503906 C 407.007812 370.382812 407.292969 370.140625 407.480469 369.773438 C 407.578125 369.347656 407.488281 368.964844 407.214844 368.625 C 400.039062 361.40625 392.085938 355.671875 381.40625 355.171875 C 380.148438 355.113281 378.910156 354.765625 377.660156 354.566406 C 374.492188 354.058594 371.363281 353.996094 368.214844 354.859375 C 360.683594 356.894531 353.128906 358.847656 344.855469 361.035156 Z M 375.617188 463.738281 C 374.960938 462.96875 374.640625 462.382812 374.144531 462.042969 C 368.300781 458.121094 363.257812 453.34375 359.019531 447.71875 C 358.128906 446.539062 357.140625 445.453125 356.054688 444.457031 C 350.386719 439.347656 344.417969 434.679688 337.597656 431.117188 C 335.511719 430.035156 333.203125 429.609375 331.238281 428.347656 C 327.792969 426.128906 323.746094 425.640625 319.949219 424.425781 C 319.523438 424.378906 319.160156 424.511719 318.863281 424.824219 C 318.640625 425.066406 318.621094 425.542969 318.601562 425.921875 C 318.625 426.140625 318.71875 426.320312 318.882812 426.46875 C 324.222656 431.976562 327.222656 439.160156 332.265625 444.933594 C 335.179688 448.265625 337.925781 451.574219 341.371094 454.46875 C 348.375 460.359375 356.746094 462.253906 365.265625 463.789062 C 368.527344 464.378906 371.964844 464.246094 375.621094 463.738281 Z M 417.066406 554.378906 C 419.035156 554.378906 419.902344 554.5 420.726562 554.378906 C 429.09375 552.972656 437.292969 551.054688 444.675781 546.59375 C 447.570312 544.84375 450.570312 543.246094 453.375 541.359375 C 455.128906 540.101562 457.085938 539.414062 459.242188 539.292969 C 460.480469 539.226562 461.835938 539.292969 462.84375 538.34375 C 463.042969 538.15625 463.105469 537.414062 462.996094 537.347656 C 461.527344 536.527344 460.042969 535.726562 458.511719 535.023438 C 454.792969 533.332031 450.917969 532.253906 446.796875 533.042969 C 443.902344 533.601562 440.980469 534.179688 438.1875 535.105469 C 425.546875 539.285156 413.363281 544.710938 400.875 549.300781 C 399.90625 549.660156 398.84375 549.855469 398.269531 550.921875 C 397.933594 551.554688 397.933594 551.296875 401.199219 552.390625 C 406.757812 554.265625 412.621094 552.945312 417.066406 554.378906 Z M 415.347656 372.945312 C 415.308594 373.652344 415.308594 374.363281 415.347656 375.070312 C 415.375 375.496094 415.519531 375.875 415.777344 376.210938 C 415.957031 376.382812 416.558594 376.347656 416.792969 376.167969 C 418.671875 374.792969 420.636719 373.496094 422.324219 371.910156 C 424.171875 370.152344 426.171875 368.59375 428.332031 367.242188 C 434.269531 363.574219 440.113281 359.75 446.089844 356.148438 C 454.625 351.003906 459.613281 343.53125 461.1875 333.746094 C 461.277344 333.183594 460.941406 332.550781 460.808594 331.949219 C 460.269531 332.152344 459.664062 332.257812 459.199219 332.574219 C 454.109375 336.039062 448.679688 338.917969 443.363281 342.007812 C 437.519531 345.394531 431.488281 348.566406 426.316406 353.050781 C 419.988281 358.558594 416.222656 365.394531 415.347656 372.945312 Z M 429.992188 442.359375 C 431.523438 438.714844 433.242188 435.546875 435.640625 432.976562 C 439.714844 428.605469 443.136719 423.746094 446.84375 419.101562 C 452.695312 411.773438 456.078125 403.417969 457.28125 394.191406 C 457.660156 391.265625 457.359375 388.25 457.320312 385.269531 C 457.320312 384.894531 456.984375 384.523438 456.820312 384.152344 C 456.296875 384.457031 455.625 384.65625 455.28125 385.105469 C 454.777344 385.761719 454.554688 386.628906 454.125 387.355469 C 451.101562 392.492188 447.878906 397.433594 442.714844 400.796875 C 441.34375 401.691406 440.347656 403.203125 439.304688 404.519531 C 438.132812 406.023438 437.363281 407.90625 435.992188 409.167969 C 432.347656 412.496094 430.53125 416.613281 429.847656 421.386719 C 429.785156 422.023438 429.65625 422.648438 429.460938 423.257812 C 427.847656 427.5625 428.0625 432.03125 428.195312 436.5 C 428.226562 438.625 428.828125 440.578125 429.992188 442.359375 Z M 462.929688 521.0625 C 463.671875 520.488281 464.28125 520.203125 464.621094 519.730469 C 467.464844 515.746094 470.847656 512.289062 474.773438 509.367188 C 477.980469 506.945312 481.257812 504.628906 484.414062 502.148438 C 487.414062 499.808594 490.335938 497.453125 493.628906 495.480469 C 496.921875 493.507812 499.335938 490.597656 501.328125 487.199219 C 503.691406 483.140625 504.996094 478.65625 506.921875 474.433594 C 507.078125 474.027344 507.121094 473.613281 507.050781 473.183594 C 506.953125 472.800781 506.789062 472.453125 506.550781 472.140625 C 506.339844 472.148438 506.152344 472.214844 505.984375 472.34375 C 501.378906 476.402344 496.855469 480.601562 491.109375 483.015625 C 481.207031 487.167969 473.832031 494.347656 467.652344 502.820312 C 463.792969 508.074219 462.367188 514.207031 462.929688 521.058594 Z M 357.65625 525.214844 C 357.859375 525.253906 358.066406 525.265625 358.273438 525.25 C 365.152344 523.785156 371.664062 521.34375 377.8125 517.929688 C 383.859375 514.546875 387.957031 509.71875 389.644531 502.964844 C 390.972656 497.683594 394.203125 493.46875 397.15625 489.089844 C 397.972656 487.878906 399.574219 487.296875 399.835938 485.664062 C 398.222656 484.863281 396.492188 485.492188 395.132812 485.957031 C 390.953125 487.402344 386.703125 488.914062 383.277344 491.875 C 377.636719 496.753906 372.367188 501.949219 369.375 509.027344 C 368.390625 511.367188 366.863281 513.382812 365.054688 515.257812 C 362.269531 518.128906 359.789062 521.292969 357.191406 524.34375 C 357.082031 524.503906 357.058594 524.675781 357.128906 524.859375 C 357.238281 525.023438 357.476562 525.101562 357.65625 525.210938 Z M 407.328125 327.628906 C 407.960938 320.414062 409.851562 314.363281 412.015625 308.394531 C 414.46875 301.625 416.992188 294.878906 419.585938 288.15625 C 420.984375 284.546875 422.011719 280.914062 421.734375 276.988281 C 421.246094 270.09375 418.777344 263.828125 415.546875 257.808594 C 415.402344 257.632812 415.21875 257.5625 414.992188 257.597656 C 414.699219 257.757812 414.289062 258 414.238281 258.273438 C 413.621094 261.390625 413.269531 264.574219 412.441406 267.628906 C 410.953125 273.140625 409.867188 278.761719 408.476562 284.308594 C 407.480469 288.253906 408.085938 292.375 406.527344 296.191406 C 404.964844 300.007812 405.171875 304.132812 405.105469 308.128906 C 404.980469 314.390625 404.933594 320.714844 407.328125 327.628906 Z M 444.109375 531 C 443.136719 530.046875 441.96875 529.523438 440.613281 529.421875 C 435.476562 528.921875 430.570312 529.367188 425.738281 531.617188 C 419.113281 534.691406 413.484375 539.234375 407.398438 543.097656 C 407.222656 543.222656 407.078125 543.378906 406.976562 543.570312 C 406.902344 543.691406 406.851562 543.90625 406.921875 544.007812 C 407.039062 544.167969 407.300781 544.394531 407.417969 544.34375 C 410.429688 543.328125 413.570312 542.582031 416.410156 541.210938 C 425.21875 536.964844 434.757812 534.78125 444.109375 531 Z M 403.488281 318.222656 C 403.863281 314.402344 403.152344 311.234375 403.386719 308.167969 C 403.800781 302.933594 403.84375 297.679688 405.074219 292.449219 C 406.882812 284.664062 407.636719 276.640625 409.917969 268.933594 C 410.015625 268.597656 409.746094 268.160156 409.644531 267.765625 C 409.328125 267.96875 408.886719 268.105469 408.710938 268.382812 C 406.898438 271.363281 405.460938 274.519531 404.40625 277.847656 C 403.351562 281.175781 402.707031 284.578125 402.472656 288.0625 C 402.386719 289.328125 402.589844 290.648438 402.304688 291.859375 C 400.597656 299.203125 401.492188 306.601562 401.683594 313.988281 C 401.6875 315.296875 402.21875 316.425781 403.488281 318.222656 Z M 410.683594 325.378906 C 412.546875 323.6875 413.125 321.441406 414.089844 319.4375 C 414.914062 317.730469 415.441406 315.824219 416.480469 314.277344 C 420.429688 308.476562 420.96875 301.59375 422.691406 295.097656 C 423.136719 293.40625 423.128906 291.414062 422.226562 289.09375 C 421.675781 289.863281 421.195312 290.328125 420.964844 290.894531 C 417.117188 300.277344 413.652344 309.789062 410.929688 319.570312 C 410.359375 321.484375 410.277344 323.421875 410.683594 325.378906 Z M 400.5 491.023438 C 400.839844 490.625 400.839844 490.175781 400.386719 490.007812 C 399.996094 489.914062 399.648438 489.996094 399.339844 490.257812 C 398.132812 491.726562 396.914062 493.207031 395.835938 494.78125 C 393.90625 497.605469 392.683594 500.769531 391.652344 504.011719 C 391.457031 504.617188 391.261719 505.265625 391.871094 505.707031 C 391.976562 505.777344 392.59375 505.300781 392.835938 504.972656 C 395.980469 500.664062 398.152344 495.832031 400.5 491.023438 Z M 483.796875 483.171875 C 490.167969 481.570312 494.417969 478.566406 498.710938 475.644531 C 498.878906 475.507812 498.992188 475.332031 499.046875 475.121094 C 499.089844 474.949219 499.058594 474.792969 498.964844 474.644531 C 498.847656 474.496094 498.578125 474.28125 498.488281 474.328125 C 495.277344 475.886719 492.023438 477.371094 488.910156 479.097656 C 487.371094 479.949219 486.113281 481.292969 483.796875 483.171875 Z M 458.417969 478.144531 C 456.488281 482.3125 455.625 486.0625 457.128906 491.421875 C 457.128906 486.242188 458.738281 482.585938 458.417969 478.144531 Z M 347.480469 367.5625 C 347.09375 366.417969 344.414062 364.074219 342.5 363.253906 C 342.390625 363.207031 342.140625 363.375 342.015625 363.5 C 341.890625 363.625 341.769531 363.867188 341.824219 363.960938 C 342.910156 365.789062 344.429688 367.117188 346.390625 367.941406 C 346.585938 367.996094 346.78125 367.988281 346.96875 367.90625 C 347.152344 367.8125 347.324219 367.699219 347.480469 367.5625 Z M 347.480469 367.5625 " fill-opacity="1" fill-rule="nonzero"/></g><path fill="#000000" d="M 363.082031 512.800781 L 360.914062 516.296875 C 358.886719 516.601562 357.9375 518.394531 356.546875 519.574219 C 355.460938 520.496094 354.570312 521.765625 352.875 521.550781 L 352.792969 521.457031 C 354.910156 518.175781 357.914062 515.75 360.761719 513.179688 C 361.460938 512.554688 362.269531 512.699219 363.082031 512.800781 Z M 363.082031 512.800781 " fill-opacity="1" fill-rule="nonzero"/></svg>