<svg width="84" height="25" viewBox="0 0 84 25" fill="none" xmlns="http://www.w3.org/2000/svg">
<path d="M9.944 24.384C8.792 24.384 7.736 24.2453 6.776 23.968C5.816 23.6907 5.00533 23.392 4.344 23.072C3.68267 22.7307 3.20267 22.496 2.904 22.368C2.62667 22.5813 2.38133 22.7733 2.168 22.944C1.976 23.1147 1.73067 23.3493 1.432 23.648C1.21867 23.8613 1.016 23.9253 0.824 23.84C0.632 23.7333 0.536 23.5627 0.536 23.328V17.088C0.536 16.832 0.674667 16.6827 0.952 16.64C1.25067 16.5973 1.432 16.672 1.496 16.864C1.90133 18.0587 2.52 19.1253 3.352 20.064C4.184 21.0027 5.176 21.7387 6.328 22.272C7.50133 22.784 8.76 23.04 10.104 23.04C11.2133 23.04 12.1093 22.816 12.792 22.368C13.496 21.92 14.0187 21.3547 14.36 20.672C14.7013 19.968 14.872 19.2747 14.872 18.592C14.872 17.6747 14.616 16.9387 14.104 16.384C13.592 15.808 12.92 15.3493 12.088 15.008C11.256 14.6453 10.328 14.336 9.304 14.08C8.30133 13.824 7.29867 13.5467 6.296 13.248C5.29333 12.9493 4.376 12.5653 3.544 12.096C2.712 11.6053 2.04 10.9653 1.528 10.176C1.016 9.36533 0.76 8.34133 0.76 7.104C0.76 5.632 1.112 4.40533 1.816 3.424C2.54133 2.42133 3.50133 1.664 4.696 1.152C5.89067 0.639999 7.18133 0.383999 8.568 0.383999C9.464 0.383999 10.3173 0.490665 11.128 0.703999C11.96 0.917332 12.7067 1.17333 13.368 1.472C14.0293 1.74933 14.5413 2.00533 14.904 2.24C15.16 2.00533 15.3733 1.81333 15.544 1.664C15.736 1.49333 15.8853 1.36533 15.992 1.28C16.2053 1.10933 16.3973 1.07733 16.568 1.184C16.7387 1.26933 16.824 1.45067 16.824 1.728V7.2C16.824 7.47733 16.6853 7.648 16.408 7.712C16.152 7.776 15.9707 7.66933 15.864 7.392C15.3947 6.34667 14.7973 5.376 14.072 4.48C13.368 3.584 12.5467 2.85867 11.608 2.304C10.6907 1.74933 9.67733 1.472 8.568 1.472C7.65067 1.472 6.84 1.67466 6.136 2.08C5.432 2.464 4.87733 2.976 4.472 3.616C4.06667 4.256 3.864 4.97066 3.864 5.76C3.864 6.656 4.12 7.37067 4.632 7.904C5.16533 8.43733 5.85867 8.864 6.712 9.184C7.56533 9.504 8.504 9.78133 9.528 10.016C10.5733 10.2507 11.608 10.5173 12.632 10.816C13.656 11.0933 14.5947 11.4773 15.448 11.968C16.3013 12.4587 16.984 13.12 17.496 13.952C18.0293 14.7627 18.296 15.8293 18.296 17.152C18.296 18.6667 17.9333 19.968 17.208 21.056C16.4827 22.144 15.4907 22.976 14.232 23.552C12.9733 24.1067 11.544 24.384 9.944 24.384ZM17.8345 24C17.5358 24 17.3865 23.8507 17.3865 23.552C17.3865 23.2533 17.5358 23.104 17.8345 23.104C18.9438 23.104 19.6905 22.944 20.0745 22.624C20.4585 22.2827 20.6505 21.792 20.6505 21.152V3.584C20.6505 2.944 20.4585 2.464 20.0745 2.144C19.7118 1.824 18.9438 1.664 17.7705 1.664C17.4932 1.664 17.3545 1.51467 17.3545 1.216C17.3545 0.917333 17.4932 0.768 17.7705 0.768C17.9625 0.768 18.5065 0.789333 19.4025 0.831999C20.3198 0.853332 21.3865 0.863998 22.6025 0.863998C24.8425 0.863998 26.6665 0.853332 28.0745 0.831999C29.4825 0.789333 30.4105 0.768 30.8585 0.768C32.1172 0.768 33.2052 0.991999 34.1225 1.44C35.0612 1.888 35.7865 2.50667 36.2985 3.296C36.8105 4.064 37.0665 4.94933 37.0665 5.952C37.0665 7.18933 36.7785 8.20267 36.2025 8.992C35.6478 9.76 34.9438 10.368 34.0905 10.816C33.2372 11.264 32.3945 11.616 31.5625 11.872C32.0958 11.872 32.7252 11.968 33.4505 12.16C34.1758 12.352 34.8905 12.6613 35.5945 13.088C36.2985 13.5147 36.8745 14.1013 37.3225 14.848C37.7918 15.5733 38.0265 16.4907 38.0265 17.6C38.0265 19.008 37.6745 20.192 36.9705 21.152C36.2665 22.0907 35.2852 22.8053 34.0265 23.296C32.7892 23.7653 31.3385 24 29.6745 24C29.4398 24 29.1838 24 28.9065 24C28.6292 23.9787 28.2452 23.968 27.7545 23.968C27.2852 23.968 26.6345 23.968 25.8025 23.968C24.9705 23.9467 23.8825 23.936 22.5385 23.936C21.3012 23.936 20.2558 23.9467 19.4025 23.968C18.5705 23.9893 18.0478 24 17.8345 24ZM25.2585 23.04H28.6185C30.3252 23.04 31.5732 22.528 32.3625 21.504C33.1732 20.48 33.5785 19.1787 33.5785 17.6C33.5785 16.128 33.1518 14.9013 32.2985 13.92C31.4665 12.9173 30.1438 12.416 28.3305 12.416H24.5545V22.368C24.5545 22.56 24.5972 22.72 24.6825 22.848C24.7892 22.976 24.9812 23.04 25.2585 23.04ZM24.5545 11.296H28.3945C31.3172 11.296 32.7785 9.55733 32.7785 6.08C32.7785 4.82133 32.4798 3.78667 31.8825 2.976C31.2852 2.16533 30.2398 1.76 28.7465 1.76H24.5545V11.296ZM37.7215 24C37.4442 24 37.3055 23.8293 37.3055 23.488C37.3055 23.2107 37.4442 23.072 37.7215 23.072C38.6175 23.072 39.3428 22.752 39.8975 22.112C40.4522 21.4507 40.7295 20.3413 40.7295 18.784V3.872C40.7295 3.104 40.5482 2.54933 40.1855 2.208C39.8442 1.84533 39.2362 1.664 38.3615 1.664C38.0842 1.664 37.9455 1.51467 37.9455 1.216C37.9455 0.917333 38.0842 0.768 38.3615 0.768C38.5535 0.768 39.2148 0.778666 40.3455 0.799999C41.4762 0.821332 42.8202 0.831999 44.3775 0.831999C45.1028 0.831999 45.5615 1.10933 45.7535 1.664C45.7962 1.77067 45.9135 2.112 46.1055 2.688C46.3188 3.264 46.5748 3.98933 46.8735 4.864C47.1935 5.73867 47.5348 6.69867 47.8975 7.744C48.2602 8.768 48.6228 9.792 48.9855 10.816C49.3695 11.84 49.7215 12.8 50.0415 13.696C50.3615 14.5707 50.6282 15.3067 50.8415 15.904C51.0548 16.5013 51.1828 16.864 51.2255 16.992C51.3108 16.8 51.4922 16.3307 51.7695 15.584C52.0468 14.816 52.3775 13.888 52.7615 12.8C53.1455 11.6907 53.5508 10.5387 53.9775 9.344C54.4042 8.14933 54.7988 7.008 55.1615 5.92C55.5455 4.832 55.8655 3.91467 56.1215 3.168C56.3775 2.4 56.5268 1.94133 56.5695 1.792C56.7615 1.152 57.2308 0.831999 57.9775 0.831999C59.5348 0.831999 60.8362 0.821332 61.8815 0.799999C62.9268 0.778666 63.5242 0.768 63.6735 0.768C63.9508 0.768 64.0895 0.917333 64.0895 1.216C64.0895 1.51467 63.9508 1.664 63.6735 1.664C62.8842 1.664 62.3295 1.83467 62.0095 2.176C61.7108 2.496 61.5615 2.96533 61.5615 3.584V21.024C61.5615 21.7067 61.6895 22.2187 61.9455 22.56C62.2015 22.9013 62.7135 23.072 63.4815 23.072C63.7588 23.072 63.8975 23.2107 63.8975 23.488C63.8975 23.8293 63.7588 24 63.4815 24C63.2682 24 62.8415 23.9893 62.2015 23.968C61.5828 23.9253 60.7828 23.904 59.8015 23.904C59.1828 23.904 58.5322 23.9147 57.8495 23.936C57.1882 23.936 56.6122 23.9467 56.1215 23.968C55.6308 23.9893 55.3108 24 55.1615 24C54.8415 24 54.6815 23.8293 54.6815 23.488C54.6815 23.2107 54.8415 23.072 55.1615 23.072C56.1428 23.072 56.8148 22.9227 57.1775 22.624C57.5402 22.304 57.7215 21.7707 57.7215 21.024V2.208C56.3348 6.24 55.1615 9.6 54.2015 12.288C53.2628 14.976 52.5055 17.1093 51.9295 18.688C51.3748 20.2453 50.9695 21.3547 50.7135 22.016C50.4788 22.6773 50.3615 23.008 50.3615 23.008C50.2975 23.1787 50.2335 23.2853 50.1695 23.328C50.1268 23.3493 50.0522 23.36 49.9455 23.36C49.7748 23.36 49.6468 23.264 49.5615 23.072C49.5402 23.0507 49.4122 22.7307 49.1775 22.112C48.9428 21.472 48.6228 20.64 48.2175 19.616C47.8335 18.592 47.3962 17.4507 46.9055 16.192C46.4148 14.9333 45.9135 13.6533 45.4015 12.352C44.9108 11.0293 44.4308 9.77067 43.9615 8.576C43.4922 7.36 43.0762 6.29333 42.7135 5.376C42.3508 4.43733 42.0842 3.73333 41.9135 3.264V18.752C41.9135 20.3733 42.2335 21.504 42.8735 22.144C43.5135 22.7627 44.2602 23.072 45.1135 23.072C45.4335 23.072 45.5935 23.2107 45.5935 23.488C45.5935 23.8293 45.4335 24 45.1135 24C44.9002 24 44.4628 23.9893 43.8015 23.968C43.1615 23.9253 42.3722 23.904 41.4335 23.904C40.3242 23.904 39.4815 23.9253 38.9055 23.968C38.3508 23.9893 37.9562 24 37.7215 24ZM74.328 24.384C72.1733 24.384 70.264 23.9467 68.6 23.072C66.9573 22.176 65.6667 20.8427 64.728 19.072C63.8107 17.3013 63.352 15.0933 63.352 12.448C63.352 9.86667 63.8427 7.68 64.824 5.888C65.8267 4.096 67.16 2.73067 68.824 1.792C70.488 0.853333 72.3227 0.383999 74.328 0.383999C75.1173 0.383999 75.8427 0.501332 76.504 0.735998C77.1653 0.949333 77.7413 1.19467 78.232 1.472C78.7227 1.74933 79.1067 2.00533 79.384 2.24C79.6827 2.45333 79.8533 2.56 79.896 2.56C80.2373 2.28267 80.536 2.02667 80.792 1.792C81.048 1.55733 81.2507 1.38667 81.4 1.28C81.592 1.10933 81.8053 1.06667 82.04 1.152C82.2747 1.23733 82.392 1.408 82.392 1.664V7.68C82.392 7.936 82.2427 8.096 81.944 8.16C81.6453 8.224 81.4427 8.14933 81.336 7.936C80.9307 6.912 80.408 5.90933 79.768 4.928C79.128 3.92533 78.36 3.104 77.464 2.464C76.568 1.80267 75.5227 1.472 74.328 1.472C73.2827 1.472 72.2587 1.856 71.256 2.624C70.2747 3.37067 69.4533 4.55467 68.792 6.176C68.152 7.776 67.832 9.86667 67.832 12.448C67.832 14.3893 68.024 16.032 68.408 17.376C68.792 18.72 69.304 19.7973 69.944 20.608C70.584 21.4187 71.2987 22.0053 72.088 22.368C72.8987 22.7307 73.72 22.912 74.552 22.912C76.5147 22.912 78.1147 22.464 79.352 21.568C80.6107 20.6507 81.6667 19.2853 82.52 17.472C82.6267 17.28 82.7653 17.152 82.936 17.088C83.1067 17.0027 83.2667 17.0133 83.416 17.12C83.5653 17.2053 83.672 17.3227 83.736 17.472C83.8213 17.6213 83.832 17.7813 83.768 17.952C83.0213 19.8933 81.8693 21.4507 80.312 22.624C78.776 23.7973 76.7813 24.384 74.328 24.384Z" fill="#FFBB00"/>
</svg>
