<svg width="171" height="48" viewBox="0 0 171 48" fill="none" xmlns="http://www.w3.org/2000/svg">
<path d="M27.5312 35.5C27.5312 34.4375 27.3646 33.5 27.0312 32.6875C26.7188 31.8542 26.1562 31.1042 25.3438 30.4375C24.5521 29.7708 23.4479 29.1354 22.0312 28.5312C20.6354 27.9271 18.8646 27.3125 16.7188 26.6875C14.4688 26.0208 12.4375 25.2812 10.625 24.4688C8.8125 23.6354 7.26042 22.6875 5.96875 21.625C4.67708 20.5625 3.6875 19.3438 3 17.9688C2.3125 16.5938 1.96875 15.0208 1.96875 13.25C1.96875 11.4792 2.33333 9.84375 3.0625 8.34375C3.79167 6.84375 4.83333 5.54167 6.1875 4.4375C7.5625 3.3125 9.19792 2.4375 11.0938 1.8125C12.9896 1.1875 15.1042 0.875 17.4375 0.875C20.8542 0.875 23.75 1.53125 26.125 2.84375C28.5208 4.13542 30.3438 5.83333 31.5938 7.9375C32.8438 10.0208 33.4688 12.25 33.4688 14.625H27.4688C27.4688 12.9167 27.1042 11.4062 26.375 10.0938C25.6458 8.76042 24.5417 7.71875 23.0625 6.96875C21.5833 6.19792 19.7083 5.8125 17.4375 5.8125C15.2917 5.8125 13.5208 6.13542 12.125 6.78125C10.7292 7.42708 9.6875 8.30208 9 9.40625C8.33333 10.5104 8 11.7708 8 13.1875C8 14.1458 8.19792 15.0208 8.59375 15.8125C9.01042 16.5833 9.64583 17.3021 10.5 17.9688C11.375 18.6354 12.4792 19.25 13.8125 19.8125C15.1667 20.375 16.7812 20.9167 18.6562 21.4375C21.2396 22.1667 23.4688 22.9792 25.3438 23.875C27.2188 24.7708 28.7604 25.7812 29.9688 26.9062C31.1979 28.0104 32.1042 29.2708 32.6875 30.6875C33.2917 32.0833 33.5938 33.6667 33.5938 35.4375C33.5938 37.2917 33.2188 38.9688 32.4688 40.4688C31.7188 41.9688 30.6458 43.25 29.25 44.3125C27.8542 45.375 26.1771 46.1979 24.2188 46.7812C22.2812 47.3438 20.1146 47.625 17.7188 47.625C15.6146 47.625 13.5417 47.3333 11.5 46.75C9.47917 46.1667 7.63542 45.2917 5.96875 44.125C4.32292 42.9583 3 41.5208 2 39.8125C1.02083 38.0833 0.53125 36.0833 0.53125 33.8125H6.53125C6.53125 35.375 6.83333 36.7188 7.4375 37.8438C8.04167 38.9479 8.86458 39.8646 9.90625 40.5938C10.9688 41.3229 12.1667 41.8646 13.5 42.2188C14.8542 42.5521 16.2604 42.7188 17.7188 42.7188C19.8229 42.7188 21.6042 42.4271 23.0625 41.8438C24.5208 41.2604 25.625 40.4271 26.375 39.3438C27.1458 38.2604 27.5312 36.9792 27.5312 35.5ZM57.5 25.7188H45.9688L45.9062 20.875H56.375C58.1042 20.875 59.6146 20.5833 60.9062 20C62.1979 19.4167 63.1979 18.5833 63.9062 17.5C64.6354 16.3958 65 15.0833 65 13.5625C65 11.8958 64.6771 10.5417 64.0312 9.5C63.4062 8.4375 62.4375 7.66667 61.125 7.1875C59.8333 6.6875 58.1875 6.4375 56.1875 6.4375H47.3125V47H41.2812V1.5H56.1875C58.5208 1.5 60.6042 1.73958 62.4375 2.21875C64.2708 2.67708 65.8229 3.40625 67.0938 4.40625C68.3854 5.38542 69.3646 6.63542 70.0312 8.15625C70.6979 9.67708 71.0312 11.5 71.0312 13.625C71.0312 15.5 70.5521 17.1979 69.5938 18.7188C68.6354 20.2188 67.3021 21.4479 65.5938 22.4062C63.9062 23.3646 61.9271 23.9792 59.6562 24.25L57.5 25.7188ZM57.2188 47H43.5938L47 42.0938H57.2188C59.1354 42.0938 60.7604 41.7604 62.0938 41.0938C63.4479 40.4271 64.4792 39.4896 65.1875 38.2812C65.8958 37.0521 66.25 35.6042 66.25 33.9375C66.25 32.25 65.9479 30.7917 65.3438 29.5625C64.7396 28.3333 63.7917 27.3854 62.5 26.7188C61.2083 26.0521 59.5417 25.7188 57.5 25.7188H48.9062L48.9688 20.875H60.7188L62 22.625C64.1875 22.8125 66.0417 23.4375 67.5625 24.5C69.0833 25.5417 70.2396 26.875 71.0312 28.5C71.8438 30.125 72.25 31.9167 72.25 33.875C72.25 36.7083 71.625 39.1042 70.375 41.0625C69.1458 43 67.4062 44.4792 65.1562 45.5C62.9062 46.5 60.2604 47 57.2188 47ZM83.0625 1.5H88.9062L103.812 38.5938L118.688 1.5H124.562L106.062 47H101.5L83.0625 1.5ZM81.1562 1.5H86.3125L87.1562 29.25V47H81.1562V1.5ZM121.281 1.5H126.438V47H120.438V29.25L121.281 1.5ZM164.5 32.5312H170.5C170.188 35.4062 169.365 37.9792 168.031 40.25C166.698 42.5208 164.812 44.3229 162.375 45.6562C159.938 46.9688 156.896 47.625 153.25 47.625C150.583 47.625 148.156 47.125 145.969 46.125C143.802 45.125 141.938 43.7083 140.375 41.875C138.812 40.0208 137.604 37.8021 136.75 35.2188C135.917 32.6146 135.5 29.7188 135.5 26.5312V22C135.5 18.8125 135.917 15.9271 136.75 13.3438C137.604 10.7396 138.823 8.51042 140.406 6.65625C142.01 4.80208 143.938 3.375 146.188 2.375C148.438 1.375 150.969 0.875 153.781 0.875C157.219 0.875 160.125 1.52083 162.5 2.8125C164.875 4.10417 166.719 5.89583 168.031 8.1875C169.365 10.4583 170.188 13.0938 170.5 16.0938H164.5C164.208 13.9688 163.667 12.1458 162.875 10.625C162.083 9.08333 160.958 7.89583 159.5 7.0625C158.042 6.22917 156.135 5.8125 153.781 5.8125C151.76 5.8125 149.979 6.19792 148.438 6.96875C146.917 7.73958 145.635 8.83333 144.594 10.25C143.573 11.6667 142.802 13.3646 142.281 15.3438C141.76 17.3229 141.5 19.5208 141.5 21.9375V26.5312C141.5 28.7604 141.729 30.8542 142.188 32.8125C142.667 34.7708 143.385 36.4896 144.344 37.9688C145.302 39.4479 146.521 40.6146 148 41.4688C149.479 42.3021 151.229 42.7188 153.25 42.7188C155.812 42.7188 157.854 42.3125 159.375 41.5C160.896 40.6875 162.042 39.5208 162.812 38C163.604 36.4792 164.167 34.6562 164.5 32.5312Z" fill="#EDD20E"/>
</svg>
